<svg width="22" height="24" viewBox="0 0 22 24" fill="none" xmlns="http://www.w3.org/2000/svg">
<path d="M18.7418 15.1781V10.6181C18.7418 7.23097 16.5741 4.27744 13.5895 3.17422C13.6243 3.00001 13.6437 2.82198 13.6437 2.64388C13.6437 1.18454 12.4592 0 10.9999 0C9.54051 0 8.35597 1.18454 8.35597 2.64388C8.35597 2.8181 8.3753 2.99225 8.40627 3.15871C7.38049 3.52259 6.4321 4.09935 5.62307 4.88128C4.09792 6.35226 3.25794 8.33031 3.25794 10.4516V15.1781C3.25794 15.3445 3.12244 15.4839 2.9521 15.4839C1.52373 15.4839 0.304343 16.56 0.172728 17.9304C0.0991626 18.693 0.350822 19.4516 0.865649 20.0168C1.3766 20.5781 2.10824 20.9033 2.87078 20.9033H7.53919C7.73274 22.6414 9.21147 24.0001 10.9999 24.0001C12.7882 24.0001 14.267 22.6414 14.4605 20.9033H19.1289C19.8915 20.9033 20.6231 20.5781 21.1341 20.0168C21.645 19.4516 21.8967 18.693 21.827 17.9304C21.6954 16.56 20.4722 15.4839 19.0476 15.4839C19.0074 15.4841 18.9675 15.4764 18.9303 15.4611C18.8931 15.4458 18.8593 15.4233 18.8308 15.3948C18.8024 15.3664 18.7799 15.3326 18.7646 15.2954C18.7493 15.2582 18.7415 15.2183 18.7418 15.1781ZM10.9999 1.54836C11.6037 1.54836 12.0953 2.03998 12.0953 2.64382C12.0953 2.69411 12.0876 2.74059 12.0798 2.79088C11.8166 2.75216 11.5495 2.72508 11.2823 2.71732C10.8217 2.7018 10.3688 2.73283 9.91978 2.79476C9.91202 2.74447 9.90426 2.69799 9.90426 2.6477C9.90439 2.03998 10.396 1.54836 10.9999 1.54836ZM10.9999 22.4516C10.067 22.4516 9.28504 21.7857 9.10306 20.9032H12.8966C12.7147 21.7858 11.9328 22.4516 10.9999 22.4516ZM20.2863 18.0774C20.3173 18.4103 20.2128 18.7316 19.9921 18.9755C19.7637 19.2194 19.4618 19.3548 19.1289 19.3548H2.87085C2.53793 19.3548 2.23604 19.2193 2.01147 18.9755C1.78696 18.7316 1.68243 18.4103 1.71339 18.0774C1.76756 17.4929 2.31342 17.0323 2.9521 17.0323C3.97407 17.0323 4.80629 16.2 4.80629 15.1781V10.4516C4.80629 8.75612 5.47982 7.17292 6.69921 5.99614C7.86435 4.86971 9.38181 4.25805 10.9999 4.25805C11.0773 4.25805 11.1508 4.25805 11.2282 4.26193C14.5147 4.37803 17.1934 7.23097 17.1934 10.6181V15.1781C17.1934 16.2 18.0256 17.0323 19.0476 17.0323C19.6863 17.0323 20.2283 17.4929 20.2863 18.0774Z" fill="#222222"/>
</svg>
