<svg width="48" height="48" viewBox="0 0 48 48" fill="none" xmlns="http://www.w3.org/2000/svg">
<path fill-rule="evenodd" clip-rule="evenodd" d="M12.2996 0H28.3476L41.9488 14.1769V41.7511C41.9488 45.2054 39.1542 48 35.7119 48H12.2996C8.84537 48 6.05078 45.2054 6.05078 41.7511V6.24885C6.05072 2.79459 8.84531 0 12.2996 0Z" fill="#E5252A"/>
<path opacity="0.302" fill-rule="evenodd" clip-rule="evenodd" d="M28.3354 0V14.069H41.9487L28.3354 0Z" fill="white"/>
<path d="M12.9951 35.8141V27.0464H16.7253C17.6488 27.0464 18.3805 27.2983 18.9322 27.8141C19.4839 28.3178 19.7598 29.0015 19.7598 29.853C19.7598 30.7046 19.4839 31.3883 18.9322 31.892C18.3805 32.4078 17.6488 32.6597 16.7253 32.6597H15.238V35.8141H12.9951ZM15.238 30.7526H16.4734C16.8092 30.7526 17.0731 30.6807 17.253 30.5128C17.4329 30.3569 17.5289 30.1409 17.5289 29.8531C17.5289 29.5653 17.433 29.3494 17.253 29.1934C17.0731 29.0255 16.8093 28.9536 16.4734 28.9536H15.238V30.7526ZM20.6833 35.8141V27.0464H23.7897C24.4014 27.0464 24.9771 27.1304 25.5168 27.3103C26.0565 27.4902 26.5483 27.7421 26.9801 28.09C27.4119 28.4258 27.7597 28.8815 28.0116 29.4573C28.2515 30.033 28.3834 30.6927 28.3834 31.4363C28.3834 32.1679 28.2515 32.8276 28.0116 33.4033C27.7597 33.979 27.4119 34.4348 26.9801 34.7706C26.5483 35.1184 26.0565 35.3702 25.5168 35.5502C24.9771 35.7301 24.4014 35.8141 23.7897 35.8141H20.6833ZM22.8782 33.9071H23.5258C23.8736 33.9071 24.1975 33.8711 24.4973 33.7871C24.7852 33.7032 25.0611 33.5712 25.325 33.3913C25.5768 33.2114 25.7807 32.9595 25.9246 32.6237C26.0686 32.2879 26.1405 31.892 26.1405 31.4363C26.1405 30.9685 26.0686 30.5727 25.9246 30.2369C25.7807 29.9011 25.5768 29.6492 25.325 29.4693C25.0611 29.2894 24.7852 29.1574 24.4973 29.0735C24.1975 28.9895 23.8736 28.9535 23.5258 28.9535H22.8782V33.9071ZM29.5109 35.8141V27.0464H35.7478V28.9535H31.7537V30.3568H34.9441V32.2519H31.7537V35.8141H29.5109Z" fill="white"/>
</svg>
