<svg width="39" height="39" viewBox="0 0 39 39" fill="none" xmlns="http://www.w3.org/2000/svg">
<path fill-rule="evenodd" clip-rule="evenodd" d="M0 19.5C0 8.73045 8.73045 0 19.5 0C30.2696 0 39 8.73045 39 19.5C39 30.2696 30.2696 39 19.5 39C8.73045 39 0 30.2696 0 19.5ZM19.5 9.75C24.8625 9.75 29.25 14.1375 29.25 19.5C29.25 24.375 25.7156 28.5187 20.8406 29.25V22.3031H23.1562L23.6437 19.5H20.9625V17.6719C20.9625 16.9406 21.3281 16.2094 22.5469 16.2094H23.7656V13.7719C23.7656 13.7719 22.6688 13.5281 21.5719 13.5281C19.3781 13.5281 17.9156 14.8687 17.9156 17.3062V19.5H15.4781V22.3031H17.9156V29.1281C13.2844 28.3969 9.75 24.375 9.75 19.5C9.75 14.1375 14.1375 9.75 19.5 9.75Z" fill="#222222"/>
</svg>
