<svg width="29" height="29" viewBox="0 0 29 29" fill="none" xmlns="http://www.w3.org/2000/svg">
<path opacity="0.5" d="M18.1387 6.08504C17.8626 6.08504 17.6131 6.18845 17.4176 6.35366L17.4073 6.34341L8.5997 15.1207C7.60159 16.1186 7.19235 17.0922 7.18711 18.482C7.18711 19.569 7.58877 20.5468 8.31784 21.2354C9.07083 21.9462 10.1166 22.3219 11.3426 22.3217H11.3683C12.6444 22.316 13.8385 21.8139 14.7296 20.9091L24.9494 10.6918C27.5378 8.1031 27.6057 4.41375 25.1109 1.91875C23.8735 0.681469 22.2261 0 20.4719 0C18.7178 0 17.0708 0.681469 15.8343 1.91884L3.03435 14.717C-0.228897 17.9803 -0.228897 23.2903 3.03435 26.5536C4.61258 28.1313 6.71417 29 8.95194 29C11.1898 29 13.2915 28.1314 14.8704 26.5533L28.1216 13.2553C28.1216 13.2553 28.4136 12.9682 28.4136 12.484C28.4136 11.8636 27.9106 11.3606 27.2902 11.3606C26.9954 11.3606 26.729 11.4768 26.5286 11.6627L26.5251 11.6593L13.2737 24.9575C12.1211 26.1095 10.5862 26.744 8.9517 26.744C7.3172 26.744 5.78252 26.1095 4.63035 24.9575C2.24719 22.5735 2.24719 18.6957 4.63035 16.3133L17.4303 3.51528C18.2414 2.70419 19.3216 2.2576 20.4719 2.2576C21.6223 2.2576 22.7031 2.70438 23.5149 3.51528C24.3244 4.32478 24.7313 5.28645 24.6919 6.29671C24.6529 7.29097 24.1902 8.25882 23.3533 9.09564L13.1121 19.3346C12.644 19.8034 12.0215 20.0627 11.3603 20.0643C10.1026 20.0643 9.44466 19.2719 9.44466 18.4902C9.44719 17.8297 9.70622 17.2075 10.1744 16.7386L19.0035 7.93984L18.9934 7.92984C19.1586 7.73432 19.2621 7.48486 19.2621 7.20872C19.2622 6.58787 18.7591 6.08504 18.1387 6.08504Z" fill="#6B7280"/>
</svg>
