<svg width="39" height="39" viewBox="0 0 39 39" fill="none" xmlns="http://www.w3.org/2000/svg">
<path fill-rule="evenodd" clip-rule="evenodd" d="M19.5 0C30.2696 0 39 8.73045 39 19.5C39 30.2696 30.2696 39 19.5 39C8.73045 39 0 30.2696 0 19.5C0 8.73045 8.73045 0 19.5 0ZM23.4095 15.0859C22.399 14.1198 21.1138 13.6278 19.6823 13.6278C17.1429 13.6278 14.9938 15.3429 14.2271 17.6474C14.0321 18.2325 13.9213 18.8573 13.9213 19.5C13.9213 20.1426 14.0317 20.7674 14.2267 21.3524C14.9934 23.657 17.1429 25.3721 19.6823 25.3721C20.9941 25.3721 22.1113 25.0265 22.9844 24.4415C24.017 23.7501 24.704 22.7175 24.93 21.4988H19.6827V17.7273H28.8654C28.9807 18.3655 29.0427 19.0303 29.0427 19.7216C29.0427 22.6909 27.9791 25.1905 26.1354 26.8879C24.5222 28.377 22.3148 29.25 19.6823 29.25C15.8709 29.25 12.5737 27.0651 10.9693 23.8786C10.309 22.5623 9.93269 21.0733 9.93269 19.5C9.93269 17.9267 10.3094 16.4376 10.9697 15.1213C12.5741 11.9348 15.8709 9.75 19.6823 9.75C22.3104 9.75 24.5174 10.7161 26.206 12.2894L23.4095 15.0859Z" fill="#222222"/>
</svg>
