<svg width="37" height="34" viewBox="0 0 37 34" fill="none" xmlns="http://www.w3.org/2000/svg">
<path d="M32.375 6.125V27.875C32.375 28.3723 32.16 28.8492 31.7774 29.2008C31.3947 29.5525 30.8757 29.75 30.3346 29.75H6.66544C6.12428 29.75 5.60529 29.5525 5.22263 29.2008C4.83997 28.8492 4.625 28.3723 4.625 27.875V6.125C4.625 5.62772 4.83997 5.15081 5.22263 4.79917C5.60529 4.44754 6.12428 4.25 6.66544 4.25H30.3346C30.8757 4.25 31.3947 4.44754 31.7774 4.79917C32.16 5.15081 32.375 5.62772 32.375 6.125ZM12.7868 14H8.70588V26H12.7868V14ZM13.154 9.875C13.1562 9.59134 13.0975 9.31007 12.9814 9.04725C12.8652 8.78443 12.6939 8.54521 12.4771 8.34324C12.2604 8.14127 12.0024 7.98051 11.7181 7.87015C11.4337 7.75978 11.1285 7.70196 10.8198 7.7H10.7463C10.1186 7.7 9.51655 7.92915 9.07266 8.33704C8.62878 8.74493 8.37941 9.29815 8.37941 9.875C8.37941 10.4518 8.62878 11.0051 9.07266 11.413C9.51655 11.8208 10.1186 12.05 10.7463 12.05C11.055 12.057 11.3622 12.008 11.6503 11.9058C11.9384 11.8037 12.2018 11.6504 12.4254 11.4547C12.649 11.2589 12.8284 11.0247 12.9534 10.7652C13.0785 10.5057 13.1466 10.2262 13.154 9.9425V9.875ZM28.2941 18.71C28.2941 15.1025 25.7966 13.7 23.3154 13.7C22.5031 13.6626 21.6942 13.8216 20.9696 14.1611C20.2449 14.5007 19.6298 15.0089 19.1856 15.635H19.0713V14H15.2353V26H19.3162V19.6175C19.2572 18.9638 19.4813 18.3152 19.9397 17.8124C20.3982 17.3097 21.054 16.9935 21.7647 16.9325H21.9198C23.2175 16.9325 24.1806 17.6825 24.1806 19.5725V26H28.2615L28.2941 18.71Z" fill="#222222"/>
</svg>
