<svg width="286" height="28" viewBox="0 0 286 28" fill="none" xmlns="http://www.w3.org/2000/svg">
<path d="M7 14H264.6" stroke="#3274FF" stroke-width="4" stroke-linecap="round" stroke-linejoin="round"/>
<circle cx="14" cy="14" r="14" fill="#3274FF"/>
<path d="M13.4078 21V10.5H10.5078V8.5H12.8078C13.2078 8.5 13.4078 8.3 13.4078 7.9V7H15.5078V21H13.4078Z" fill="white"/>
<circle cx="143" cy="14" r="13.5" fill="white" stroke="#3274FF"/>
<path d="M139.004 21V19.2L144.764 13.4C145.151 13.0133 145.417 12.6733 145.564 12.38C145.724 12.0733 145.804 11.68 145.804 11.2C145.804 10.44 145.597 9.85333 145.184 9.44C144.784 9.01333 144.224 8.8 143.504 8.8C142.797 8.8 142.204 9.05333 141.724 9.56C141.244 10.0667 141.004 10.7133 141.004 11.5H138.904C138.904 10.1 139.331 8.96667 140.184 8.1C141.037 7.23333 142.144 6.8 143.504 6.8C144.864 6.8 145.951 7.20667 146.764 8.02C147.591 8.82 148.004 9.88 148.004 11.2C148.004 11.96 147.831 12.62 147.484 13.18C147.151 13.74 146.657 14.3467 146.004 15L142.104 18.9V19H148.204V21H139.004Z" fill="#3274FF"/>
<circle cx="272" cy="14" r="13.5" fill="white" stroke="#3274FF"/>
<path d="M267.509 17H269.609C269.609 17.5733 269.862 18.0867 270.369 18.54C270.889 18.98 271.535 19.2 272.309 19.2C273.135 19.2 273.775 19 274.229 18.6C274.682 18.2 274.909 17.6667 274.909 17C274.909 16.3733 274.662 15.8533 274.169 15.44C273.689 15.0133 273.035 14.8 272.209 14.8H271.309V12.9H272.209C272.982 12.9 273.589 12.7067 274.029 12.32C274.482 11.92 274.709 11.4133 274.709 10.8C274.709 10.2267 274.489 9.75333 274.049 9.38C273.622 8.99333 273.042 8.8 272.309 8.8C271.562 8.8 270.955 8.99333 270.489 9.38C270.035 9.75333 269.809 10.2267 269.809 10.8H267.709C267.709 9.68 268.129 8.73333 268.969 7.96C269.822 7.18667 270.935 6.8 272.309 6.8C273.642 6.8 274.722 7.18667 275.549 7.96C276.389 8.73333 276.809 9.68 276.809 10.8C276.809 11.7067 276.475 12.48 275.809 13.12C275.515 13.4 275.182 13.6267 274.809 13.8V13.9C275.222 14.0867 275.589 14.32 275.909 14.6C276.642 15.28 277.009 16.1133 277.009 17.1C277.009 18.2733 276.569 19.2533 275.689 20.04C274.822 20.8133 273.695 21.2 272.309 21.2C270.882 21.2 269.722 20.8 268.829 20C267.949 19.1867 267.509 18.1867 267.509 17Z" fill="#3274FF"/>
</svg>
