<svg width="126" height="19" viewBox="0 0 126 19" fill="none" xmlns="http://www.w3.org/2000/svg">
<path fill-rule="evenodd" clip-rule="evenodd" d="M11.819 3.24985V0.637218H0V3.24985H4.61836V18.4159H7.20591V3.24985H11.819ZM29.9848 13.2756C29.0599 15.4312 27.3695 17.1667 25.2407 18.1463C23.1118 19.1259 20.6959 19.28 18.4602 18.5787C16.2245 17.8774 14.3279 16.3707 13.1374 14.35C11.9469 12.3292 11.5471 9.93807 12.0152 7.63913C12.4834 5.34019 13.7862 3.29682 15.6718 1.90434C17.5574 0.51185 19.8916 -0.130795 22.223 0.100724C24.5543 0.332244 26.7171 1.42147 28.2929 3.1577C29.8687 4.89392 30.7455 7.15374 30.7537 9.49999C30.7537 9.80798 30.7272 10.1107 30.706 10.3921H14.5338C14.7149 11.8875 15.395 13.2778 16.4638 14.3376C17.0955 14.9737 17.8465 15.4785 18.6737 15.823C19.5009 16.1675 20.3879 16.3448 21.2837 16.3448C22.1795 16.3448 23.0665 16.1675 23.8936 15.823C24.7208 15.4785 25.4718 14.9737 26.1035 14.3376C26.4859 13.9428 26.8254 13.5085 27.1163 13.0419L29.9848 13.2703V13.2756ZM21.2837 2.65511C20.3867 2.65386 19.4985 2.83167 18.6709 3.17814C17.8434 3.52461 17.093 4.0328 16.4638 4.67299C15.6101 5.53257 14.9974 6.60216 14.6875 7.77417H27.8798C27.5647 6.60433 26.9527 5.53602 26.1035 4.67299C25.4739 4.03327 24.7236 3.5254 23.8961 3.17897C23.0686 2.83253 22.1806 2.65445 21.2837 2.65511ZM35.0698 10.2275H45.4837V18.4052H48.0977V0.637218H45.4837V7.62017H35.0592V0.637218H32.4451V18.4159H35.0592V10.2381L35.0698 10.2275ZM56.6239 18.4052H63.7026V0.637218H60.9771L61.0037 16.0369H59.0789L57.3291 0.637218H50.2505V18.4159H53.0236V3.0162H54.9219L56.5921 18.4159L56.6239 18.4052ZM70.5956 3.24985H72.9022V0.637218H65.7493V3.24985H68.0823V15.9307H65.7493V18.4159H72.9234V15.9307H70.6168V3.24985H70.5956ZM91.699 0.403568L77.8015 6.73336V0.637218H75.1875V18.4159H77.8015V12.2985L91.699 18.5858V15.5961L78.3053 9.49999L91.699 3.3773V0.403568ZM103.014 0.637218V15.8032H96.5454V0.637218H93.9578V18.4159H105.623V0.637218H103.014ZM113.873 18.4159H119.934L121.763 3.0162H123.259L123.206 18.4159H126V0.637218H119.303L117.654 15.9785H116.185L114.558 0.637218H107.887V18.4159H110.575V2.97372H112.097L113.873 18.4159Z" fill="#231F20"/>
</svg>
