<svg width="198" height="47" viewBox="0 0 198 47" fill="none" xmlns="http://www.w3.org/2000/svg">
<g clip-path="url(#clip0_199_726)">
<mask id="mask0_199_726" style="mask-type:luminance" maskUnits="userSpaceOnUse" x="0" y="0" width="154" height="47">
<path d="M153.254 0.81604H0V46.7376H153.254V0.81604Z" fill="white"/>
</mask>
<g mask="url(#mask0_199_726)">
<mask id="mask1_199_726" style="mask-type:alpha" maskUnits="userSpaceOnUse" x="0" y="0" width="47" height="47">
<path fill-rule="evenodd" clip-rule="evenodd" d="M0 23.7769C0 36.4578 10.5208 46.7376 23.499 46.7376C36.4772 46.7376 46.9979 36.4578 46.9979 23.7769C46.9979 11.0959 36.4772 0.81604 23.499 0.81604C10.5208 0.81604 0 11.0959 0 23.7769Z" fill="white"/>
</mask>
<g mask="url(#mask1_199_726)">
<path fill-rule="evenodd" clip-rule="evenodd" d="M0 23.7769C0 36.4578 10.5208 46.7376 23.499 46.7376C36.4772 46.7376 46.9979 36.4578 46.9979 23.7769C46.9979 11.0959 36.4772 0.81604 23.499 0.81604C10.5208 0.81604 0 11.0959 0 23.7769Z" fill="url(#paint0_radial_199_726)"/>
<path fill-rule="evenodd" clip-rule="evenodd" d="M40.674 -1.02051H5.8955V8.16383H40.674V-1.02051ZM5.8955 48.5746H40.674V39.3903H5.8955V48.5746ZM-2.56543 29.7475H49.6023V17.8079H-2.56543V29.7475Z" fill="url(#paint1_linear_199_726)"/>
</g>
</g>
<path d="M58.7969 13.1808H74.3807C80.4925 13.1808 82.0149 15.8075 82.0149 18.1491V18.4592C82.0149 21.0861 79.6887 22.4134 78.0843 22.6088C80.4957 22.9468 83.0772 24.4448 83.0772 27.8035V28.1137C83.0772 30.9669 81.3278 34.1861 74.469 34.1861H58.8001V13.1808H58.7969ZM64.7101 17.5567V21.3124H73.5201C75.301 21.3124 75.8463 20.4658 75.8463 19.4765V19.4206C75.8463 18.4034 75.2727 17.5567 73.5201 17.5567H64.7101ZM64.7101 25.4341V29.5837H73.9803C76.0765 29.5837 76.6501 28.5385 76.6501 27.4655V27.3538C76.6501 26.3087 76.0765 25.4341 73.9803 25.4341H64.7101Z" fill="black"/>
<path d="M96.5799 34.5581H95.5176C87.6533 34.5581 85.7021 30.3218 85.7021 26.5661V26.1721C85.7021 22.615 87.4799 18.1801 95.0291 18.1801H96.293C104.444 18.1801 105.907 22.6429 105.907 27.0189V27.5275H91.4137C91.6721 29.3356 92.7911 30.8025 96.2363 30.8025C99.4797 30.8025 99.9085 29.5867 100.025 29.3045H105.85C105.85 30.576 104.816 34.5581 96.5799 34.5581ZM91.4704 24.5625H99.9085C99.8801 23.4058 99.3347 21.7683 95.7477 21.7683C92.8195 21.7683 91.8171 22.9251 91.4704 24.5625Z" fill="black"/>
<path d="M119.233 34.5581H118.171C110.306 34.5581 108.355 30.3218 108.355 26.5661V26.1721C108.355 22.615 110.133 18.1801 117.682 18.1801H118.946C127.098 18.1801 128.56 22.6429 128.56 27.0189V27.5275H114.067C114.325 29.3356 115.444 30.8025 118.889 30.8025C122.133 30.8025 122.562 29.5867 122.678 29.3045H128.503C128.503 30.576 127.469 34.5581 119.233 34.5581ZM114.124 24.5625H122.562C122.533 23.4058 121.988 21.7683 118.401 21.7683C115.473 21.7683 114.471 22.9251 114.124 24.5625Z" fill="black"/>
<path d="M137.033 34.1922H131.436V12.8147H137.033V34.1922Z" fill="black"/>
<path d="M146.078 16.769H140.367V12.8148H146.078V16.769ZM146.022 34.1923H140.423V18.5182H146.022V34.1892V34.1923Z" fill="black"/>
<path d="M149.201 18.5181H154.739V21.0023C155.398 20.1556 157.578 18.149 161.197 18.149H161.484C166.134 18.149 168.258 21.2565 168.258 24.023V34.1891H162.66V26.0295C162.66 24.2214 161.597 22.4723 158.842 22.4723C156.088 22.4723 154.795 24.3082 154.795 26.228V34.1922H149.197V18.5181H149.201Z" fill="black"/>
<path d="M182.13 34.5581H181.067C173.203 34.5581 171.252 30.3218 171.252 26.5661V26.1721C171.252 22.615 173.029 18.1801 180.579 18.1801H181.842C189.994 18.1801 191.457 22.6429 191.457 27.0189V27.5275H176.964C177.222 29.3356 178.341 30.8025 181.786 30.8025C185.029 30.8025 185.458 29.5867 185.575 29.3045H191.4C191.4 30.576 190.366 34.5581 182.13 34.5581ZM177.02 24.5625H185.458C185.43 23.4058 184.885 21.7683 181.297 21.7683C178.369 21.7683 177.366 22.9251 177.02 24.5625Z" fill="black"/>
<path d="M193.657 19.2003C190.527 19.2003 189.735 17.5194 189.735 16.0959V15.8633C189.735 14.5359 190.455 12.796 193.657 12.796H194.126C197.32 12.796 198 14.5359 198 15.8881V16.0959C198 17.5194 197.023 19.2003 194.105 19.2003H193.66H193.657ZM193.916 18.3722C196.661 18.3722 197.02 16.9859 197.02 15.9129C197.02 14.9018 196.685 13.6241 193.916 13.6241H193.89C191.044 13.6241 190.748 14.8522 190.748 15.9843C190.748 17.1162 191.044 18.3691 193.89 18.3691H193.916V18.3722ZM193.174 17.631H191.901V14.3436H194.672C195.674 14.3436 195.958 14.7096 195.958 15.1344V15.1841C195.958 15.6337 195.598 15.854 195.302 15.9036C195.785 15.9997 196.009 16.3067 196.009 16.6448V17.2403C196.009 17.4232 196.021 17.4946 196.084 17.569V17.631H194.823C194.773 17.5814 194.713 17.5225 194.713 17.3519V17.0107C194.713 16.682 194.615 16.5487 194.294 16.5487H193.181V17.631H193.174ZM194.363 15.7206C194.634 15.7206 194.71 15.5873 194.71 15.4167C194.71 15.2337 194.634 15.1003 194.363 15.1003H193.174V15.7206H194.363Z" fill="black"/>
</g>
<defs>
<radialGradient id="paint0_radial_199_726" cx="0" cy="0" r="1" gradientUnits="userSpaceOnUse" gradientTransform="translate(30.3862 19.2933) rotate(104.087) scale(28.2953 28.8842)">
<stop stop-color="#FBE993"/>
<stop offset="0.426228" stop-color="#FDE622"/>
<stop offset="1" stop-color="#F5B732"/>
</radialGradient>
<linearGradient id="paint1_linear_199_726" x1="-0.068555" y1="23.0173" x2="47.1386" y2="23.0173" gradientUnits="userSpaceOnUse">
<stop stop-color="#2B2B2B"/>
<stop offset="0.152836" stop-color="#131313"/>
<stop offset="0.745954" stop-color="#131313"/>
<stop offset="1" stop-color="#1B1B1B"/>
</linearGradient>
<clipPath id="clip0_199_726">
<rect width="198" height="47" fill="white"/>
</clipPath>
</defs>
</svg>
