<svg width="42" height="27" viewBox="0 0 42 27" fill="none" xmlns="http://www.w3.org/2000/svg">
<g clip-path="url(#clip0_27_132)">
<path d="M0.928894 3.375C0.928894 1.51104 2.44626 0 4.31802 0H38.2093C40.081 0 41.5984 1.51104 41.5984 3.375V23.625C41.5984 25.489 40.081 27 38.2093 27H4.31802C2.44626 27 0.928894 25.489 0.928894 23.625V3.375Z" fill="#FDEACE"/>
<path d="M25.5038 5.50772L16.7555 5.53723L17.024 21.4929L25.7723 21.4634L25.5038 5.50772Z" fill="#FF5F00"/>
<path d="M17.3297 13.5483C17.2751 10.303 18.7341 7.41951 21.0198 5.54918C19.2942 4.20036 17.1309 3.38923 14.786 3.39714C9.23075 3.41587 4.81278 7.97444 4.90727 13.5902C5.00176 19.206 9.57263 23.7342 15.1279 23.7155C17.4728 23.7076 19.6085 22.882 21.2886 21.5217C18.9407 19.6952 17.3844 16.7936 17.3297 13.5483Z" fill="#EB001B"/>
<path d="M37.6198 13.4114C37.7147 19.0271 33.297 23.5856 27.7418 23.6043C25.3969 23.6122 23.2335 22.801 21.5078 21.4522C23.8212 19.5818 25.2521 16.6984 25.1973 13.4531C25.1425 10.2078 23.5864 7.33443 21.2379 5.4797C22.9179 4.11942 25.0536 3.29382 27.3985 3.28595C32.9537 3.26729 37.5254 7.82382 37.6198 13.4114Z" fill="#F79E1B"/>
</g>
<defs>
<clipPath id="clip0_27_132">
<rect width="40.6695" height="27" fill="white" transform="translate(0.928894)"/>
</clipPath>
</defs>
</svg>
