<svg width="24" height="22" viewBox="0 0 24 22" fill="none" xmlns="http://www.w3.org/2000/svg">
<path d="M12 0.0356445C5.48395 0.0356445 0 4.50832 0 10.2579C0 13.4506 1.72228 16.414 4.65352 18.3438L2.73164 20.6501C2.23312 21.2482 2.80392 22.1446 3.56189 21.9326L9.52683 20.2628C16.861 21.5695 24 16.8633 24 10.2579C24 4.50729 18.5148 0.0356445 12 0.0356445ZM9.64134 18.6568C9.51947 18.6333 9.39384 18.6385 9.27431 18.6719L5.60733 19.6984L6.47864 18.6529C6.80006 18.2671 6.69047 17.6831 6.25069 17.4404C3.33863 15.8328 1.60003 13.1478 1.60003 10.2579C1.60003 5.50352 6.26545 1.63563 12 1.63563C17.7346 1.63563 22.4001 5.50352 22.4001 10.2579C22.4 15.8343 16.1136 19.9035 9.64134 18.6568Z" fill="#222222"/>
</svg>
