<svg width="21" height="29" viewBox="0 0 21 29" fill="none" xmlns="http://www.w3.org/2000/svg">
<path d="M10.5012 21.2667C8.93396 21.2667 7.47242 20.6684 6.38601 19.5818C5.29948 18.4954 4.70117 17.0339 4.70117 15.4667V5.8C4.70117 4.23279 5.29948 2.77125 6.38601 1.68484C7.47242 0.598306 8.93396 0 10.5012 0C12.0684 0 13.5299 0.598306 14.6163 1.68484C15.7029 2.77125 16.3012 4.23279 16.3012 5.8V15.4667C16.3012 17.0339 15.7029 18.4954 14.6163 19.5818C13.5299 20.6684 12.0684 21.2667 10.5012 21.2667ZM10.5012 1.93333C8.33294 1.93333 6.63451 3.63177 6.63451 5.8V15.4667C6.63451 17.6349 8.33294 19.3333 10.5012 19.3333C12.6694 19.3333 14.3678 17.6349 14.3678 15.4667V5.8C14.3678 3.63177 12.6694 1.93333 10.5012 1.93333Z" fill="#6B7280"/>
<path d="M10.5007 25.1333C5.51271 25.1333 3.13761 22.4772 2.02353 20.2489C0.847518 17.8969 0.833984 15.5648 0.833984 15.4667C0.833984 14.9328 1.26681 14.5 1.80065 14.5C2.33377 14.5 2.76605 14.9316 2.76732 15.4644C2.76738 15.4844 2.7884 17.4926 3.78081 19.4399C5.05234 21.9349 7.31319 23.2 10.5007 23.2C13.7123 23.2 15.9826 21.9162 17.2485 19.3844C18.2227 17.436 18.234 15.4861 18.234 15.4667C18.234 14.9328 18.6667 14.5 19.2007 14.5C19.7346 14.5 20.1673 14.9328 20.1673 15.4667C20.1673 15.5648 20.1538 17.8969 18.9778 20.2489C17.8637 22.4772 15.4886 25.1333 10.5007 25.1333Z" fill="#6B7280"/>
<path d="M10.4999 29C9.96603 29 9.5332 28.5672 9.5332 28.0333V24.1667C9.5332 23.6328 9.96603 23.2 10.4999 23.2C11.0337 23.2 11.4665 23.6328 11.4665 24.1667V28.0333C11.4665 28.5672 11.0337 29 10.4999 29Z" fill="#6B7280"/>
<path d="M16.301 29H4.70104C4.1672 29 3.73438 28.5672 3.73438 28.0333C3.73438 27.4994 4.1672 27.0667 4.70104 27.0667H16.301C16.8349 27.0667 17.2677 27.4994 17.2677 28.0333C17.2677 28.5672 16.8349 29 16.301 29Z" fill="#6B7280"/>
</svg>
