<svg width="36" height="48" viewBox="0 0 36 48" fill="none" xmlns="http://www.w3.org/2000/svg">
<path fill-rule="evenodd" clip-rule="evenodd" d="M6.29963 0H22.3476L35.9488 14.1769V41.7511C35.9488 45.2054 33.1542 48 29.7119 48H6.29963C2.84537 48 0.0507813 45.2054 0.0507813 41.7511V6.24885C0.0507206 2.79459 2.84531 0 6.29963 0Z" fill="#E5252A"/>
<path opacity="0.302" fill-rule="evenodd" clip-rule="evenodd" d="M22.3359 0V14.069H35.9491L22.3359 0Z" fill="white"/>
<path d="M6.99512 35.8141V27.0464H10.7253C11.6488 27.0464 12.3805 27.2983 12.9322 27.8141C13.4839 28.3178 13.7598 29.0015 13.7598 29.853C13.7598 30.7046 13.4839 31.3883 12.9322 31.892C12.3805 32.4078 11.6488 32.6597 10.7253 32.6597H9.238V35.8141H6.99512ZM9.238 30.7526H10.4734C10.8092 30.7526 11.0731 30.6807 11.253 30.5128C11.4329 30.3569 11.5289 30.1409 11.5289 29.8531C11.5289 29.5653 11.433 29.3494 11.253 29.1934C11.0731 29.0255 10.8093 28.9536 10.4734 28.9536H9.238V30.7526ZM14.6833 35.8141V27.0464H17.7897C18.4014 27.0464 18.9771 27.1304 19.5168 27.3103C20.0565 27.4902 20.5483 27.7421 20.9801 28.09C21.4119 28.4258 21.7597 28.8815 22.0116 29.4573C22.2515 30.033 22.3834 30.6927 22.3834 31.4363C22.3834 32.1679 22.2515 32.8276 22.0116 33.4033C21.7597 33.979 21.4119 34.4348 20.9801 34.7706C20.5483 35.1184 20.0565 35.3702 19.5168 35.5502C18.9771 35.7301 18.4014 35.8141 17.7897 35.8141H14.6833ZM16.8782 33.9071H17.5258C17.8736 33.9071 18.1975 33.8711 18.4973 33.7871C18.7852 33.7032 19.0611 33.5712 19.325 33.3913C19.5768 33.2114 19.7807 32.9595 19.9246 32.6237C20.0686 32.2879 20.1405 31.892 20.1405 31.4363C20.1405 30.9685 20.0686 30.5727 19.9246 30.2369C19.7807 29.9011 19.5768 29.6492 19.325 29.4693C19.0611 29.2894 18.7852 29.1574 18.4973 29.0735C18.1975 28.9895 17.8736 28.9535 17.5258 28.9535H16.8782V33.9071ZM23.5109 35.8141V27.0464H29.7478V28.9535H25.7537V30.3568H28.9441V32.2519H25.7537V35.8141H23.5109Z" fill="white"/>
</svg>
