<svg width="24" height="24" viewBox="0 0 24 24" fill="none" xmlns="http://www.w3.org/2000/svg">
<path d="M23.8352 8.79432C23.6307 8.14322 23.222 7.57523 22.6697 7.17435C22.1173 6.77348 21.4507 6.56099 20.7682 6.56832H16.3992L15.0722 2.43232C14.8635 1.78128 14.4535 1.21333 13.9012 0.810386C13.3489 0.407437 12.6829 0.190308 11.9992 0.190308C11.3155 0.190308 10.6495 0.407437 10.0972 0.810386C9.54495 1.21333 9.13489 1.78128 8.92622 2.43232L7.59922 6.56832H3.23022C2.54996 6.56929 1.88741 6.7852 1.3372 7.18523C0.786984 7.58525 0.377257 8.14891 0.166538 8.79571C-0.0441816 9.44251 -0.0451143 10.1394 0.163873 10.7867C0.37286 11.4341 0.781077 11.9988 1.33022 12.4003L4.88622 15.0003L3.53422 19.1873C3.31573 19.8367 3.31296 20.5393 3.52633 21.1904C3.73969 21.8415 4.15776 22.4062 4.71822 22.8003C5.26907 23.2071 5.93661 23.425 6.62137 23.4216C7.30613 23.4182 7.97146 23.1936 8.51822 22.7813L11.9992 20.2193L15.4812 22.7783C16.0311 23.1828 16.695 23.4025 17.3776 23.4058C18.0602 23.4091 18.7262 23.1959 19.28 22.7968C19.8338 22.3978 20.2467 21.8334 20.4595 21.1848C20.6723 20.5362 20.6739 19.8369 20.4642 19.1873L19.1122 15.0003L22.6722 12.4003C23.2276 12.0039 23.6406 11.4391 23.8501 10.7897C24.0596 10.1402 24.0543 9.44058 23.8352 8.79432ZM21.4922 10.7853L17.3482 13.8143C17.178 13.9385 17.0514 14.1132 16.9864 14.3137C16.9213 14.5141 16.9213 14.7299 16.9862 14.9303L18.5612 19.8003C18.6409 20.0473 18.6402 20.3132 18.5593 20.5598C18.4783 20.8064 18.3212 21.021 18.1106 21.1727C17.9 21.3244 17.6468 21.4054 17.3872 21.4041C17.1277 21.4028 16.8753 21.3192 16.6662 21.1653L12.5912 18.1653C12.4196 18.0392 12.2122 17.9713 11.9992 17.9713C11.7863 17.9713 11.5789 18.0392 11.4072 18.1653L7.33222 21.1653C7.1233 21.3212 6.87015 21.4066 6.60948 21.4089C6.34881 21.4113 6.09416 21.3306 5.88245 21.1785C5.67073 21.0264 5.51296 20.8108 5.43201 20.563C5.35106 20.3152 5.35113 20.0481 5.43222 19.8003L7.01222 14.9303C7.07713 14.7299 7.07709 14.5141 7.01208 14.3137C6.94707 14.1132 6.82043 13.9385 6.65022 13.8143L2.50622 10.7853C2.29752 10.6325 2.14245 10.4177 2.06316 10.1715C1.98386 9.92526 1.9844 9.6603 2.0647 9.41442C2.145 9.16854 2.30094 8.95433 2.51026 8.80237C2.71958 8.65042 2.97156 8.5685 3.23022 8.56832H8.33022C8.54193 8.56831 8.74818 8.50111 8.91926 8.3764C9.09035 8.25168 9.21743 8.07588 9.28222 7.87432L10.8322 3.04332C10.9118 2.79611 11.0677 2.58051 11.2776 2.42757C11.4875 2.27463 11.7405 2.19223 12.0002 2.19223C12.2599 2.19223 12.5129 2.27463 12.7228 2.42757C12.9327 2.58051 13.0887 2.79611 13.1682 3.04332L14.7182 7.87432C14.783 8.07588 14.9101 8.25168 15.0812 8.3764C15.2523 8.50111 15.4585 8.56831 15.6702 8.56832H20.7702C21.0289 8.5685 21.2809 8.65042 21.4902 8.80237C21.6995 8.95433 21.8554 9.16854 21.9357 9.41442C22.016 9.6603 22.0166 9.92526 21.9373 10.1715C21.858 10.4177 21.7029 10.6325 21.4942 10.7853H21.4922Z" fill="#FBC756"/>
</svg>
