<svg width="178" height="27" viewBox="0 0 178 27" fill="none" xmlns="http://www.w3.org/2000/svg">
<g clip-path="url(#clip0_234_2558)">
<path fill-rule="evenodd" clip-rule="evenodd" d="M16.6966 4.61824V0.905547H0V4.61824H6.52434V26.1699H10.1798V4.61824H16.6966ZM42.3596 18.8653C41.0529 21.9286 38.6648 24.3948 35.6574 25.7869C32.6501 27.1789 29.2371 27.3979 26.0787 26.4013C22.9203 25.4048 20.2411 23.2637 18.5592 20.3921C16.8774 17.5205 16.3125 14.1226 16.9739 10.8556C17.6352 7.58871 19.4758 4.68499 22.1395 2.70619C24.8033 0.727391 28.1009 -0.185841 31.3944 0.14316C34.6879 0.472161 37.7432 2.02001 39.9693 4.48728C42.1954 6.95455 43.4341 10.1659 43.4457 13.5C43.4457 13.9377 43.4082 14.3678 43.3783 14.7678H20.5318C20.7878 16.8928 21.7485 18.8684 23.2584 20.3745C24.1508 21.2785 25.2118 21.9958 26.3803 22.4853C27.5488 22.9749 28.8019 23.2268 30.0674 23.2268C31.3329 23.2268 32.586 22.9749 33.7545 22.4853C34.923 21.9958 35.984 21.2785 36.8764 20.3745C37.4166 19.8135 37.8962 19.1963 38.3071 18.5333L42.3596 18.8578V18.8653ZM30.0674 3.77307C28.8003 3.7713 27.5455 4.02398 26.3764 4.51633C25.2073 5.00869 24.1473 5.73084 23.2584 6.64059C22.0523 7.8621 21.1869 9.38205 20.7491 11.0475H39.3858C38.9405 9.38513 38.0761 7.867 36.8764 6.64059C35.987 5.73152 34.9269 5.00981 33.758 4.51751C32.589 4.0252 31.3344 3.77214 30.0674 3.77307ZM49.5431 14.5338H64.2547V26.1549H67.9476V0.905547H64.2547V10.8287H49.5281V0.905547H45.8352V26.1699H49.5281V14.5489L49.5431 14.5338ZM79.9925 26.1549H89.9925V0.905547H86.1423L86.1798 22.7893H83.4607L80.9888 0.905547H70.9888V26.1699H74.9064V4.28621H77.588L79.9476 26.1699L79.9925 26.1549ZM99.7303 4.61824H102.989V0.905547H92.8839V4.61824H96.1798V22.6384H92.8839V26.1699H103.019V22.6384H99.7603V4.61824H99.7303ZM129.543 0.573517L109.91 9.56849V0.905547H106.217V26.1699H109.91V17.4768L129.543 26.4114V22.163L110.622 13.5L129.543 4.79934V0.573517ZM145.528 0.905547V22.4573H136.39V0.905547H132.734V26.1699H149.213V0.905547H145.528ZM160.869 26.1699H169.431L172.015 4.28621H174.127L174.052 26.1699H178V0.905547H168.539L166.21 22.7063H164.135L161.835 0.905547H152.412V26.1699H156.21V4.22584H158.36L160.869 26.1699Z" fill="#222222"/>
</g>
<defs>
<clipPath id="clip0_234_2558">
<rect width="178" height="27" fill="white"/>
</clipPath>
</defs>
</svg>
