<svg width="34" height="34" viewBox="0 0 34 34" fill="none" xmlns="http://www.w3.org/2000/svg">
<path fill-rule="evenodd" clip-rule="evenodd" d="M31.1668 17C31.1668 24.8241 24.8242 31.1667 17.0002 31.1667C9.17613 31.1667 2.8335 24.8241 2.8335 17C2.8335 9.17601 9.17613 2.83337 17.0002 2.83337C24.8242 2.83337 31.1668 9.17601 31.1668 17ZM17.5078 13.2918C16.1299 13.865 13.376 15.0512 9.24612 16.8505C8.57549 17.1172 8.22419 17.3781 8.19221 17.6332C8.13816 18.0643 8.67806 18.2341 9.41326 18.4653C9.51327 18.4967 9.61689 18.5293 9.72312 18.5638C10.4464 18.799 11.4194 19.074 11.9253 19.085C12.3841 19.0949 12.8962 18.9057 13.4616 18.5175C17.3203 15.9128 19.3121 14.5962 19.4372 14.5678C19.5254 14.5478 19.6476 14.5226 19.7305 14.5963C19.8133 14.6699 19.8052 14.8093 19.7964 14.8467C19.7429 15.0747 17.6236 17.045 16.5269 18.0647C16.185 18.3825 15.9424 18.608 15.8929 18.6595C15.7818 18.7748 15.6686 18.884 15.5598 18.9888C14.8878 19.6366 14.3839 20.1224 15.5877 20.9157C16.1662 21.2969 16.6291 21.6122 17.091 21.9267C17.5953 22.2702 18.0984 22.6127 18.7493 23.0394C18.9151 23.1481 19.0735 23.261 19.2277 23.371C19.8147 23.7894 20.342 24.1654 20.9935 24.1054C21.372 24.0706 21.763 23.7146 21.9616 22.653C22.4309 20.1441 23.3534 14.708 23.5666 12.4679C23.5853 12.2716 23.5618 12.0204 23.543 11.9102C23.5241 11.7999 23.4847 11.6428 23.3413 11.5265C23.1716 11.3888 22.9096 11.3598 22.7924 11.3618C22.2595 11.3712 21.442 11.6555 17.5078 13.2918Z" fill="#222222"/>
</svg>
