<svg width="42" height="27" viewBox="0 0 42 27" fill="none" xmlns="http://www.w3.org/2000/svg">
<g clip-path="url(#clip0_27_117)">
<path d="M0.367981 3.375C0.367981 1.51104 1.88534 0 3.7571 0H37.6483C39.5201 0 41.0375 1.51104 41.0375 3.375V23.625C41.0375 25.489 39.5201 27 37.6483 27H3.7571C1.88534 27 0.367981 25.489 0.367981 23.625V3.375Z" fill="#D8E3F3"/>
<path d="M35.3692 8.46692H33.2386C32.5945 8.46692 32.099 8.66429 31.8017 9.30574L27.7387 18.5327H30.6125C30.6125 18.5327 31.108 17.2992 31.2071 17.0031C31.5044 17.0031 34.3287 17.0031 34.7251 17.0031C34.8242 17.3485 35.0719 18.4834 35.0719 18.4834H37.6484L35.3692 8.46692ZM31.9999 14.9307C32.2476 14.3386 33.09 12.1182 33.09 12.1182C33.09 12.1676 33.3377 11.5261 33.4368 11.1807L33.635 12.0689C33.635 12.0689 34.18 14.4867 34.2791 14.9801H31.9999V14.9307Z" fill="#3362AB"/>
<path d="M27.9368 15.227C27.9368 17.2994 26.054 18.6809 23.1306 18.6809C21.8919 18.6809 20.7027 18.4342 20.0586 18.1382L20.455 15.8684L20.8018 16.0165C21.6937 16.4112 22.2883 16.5592 23.3783 16.5592C24.1711 16.5592 25.0135 16.2632 25.0135 15.5724C25.0135 15.1283 24.6666 14.8323 23.5765 14.3388C22.536 13.8454 21.1487 13.0559 21.1487 11.625C21.1487 9.65133 23.0811 8.31909 25.8062 8.31909C26.8467 8.31909 27.7386 8.51646 28.2837 8.76317L27.8873 10.9342L27.6891 10.7369C27.1936 10.5395 26.5495 10.3421 25.608 10.3421C24.5675 10.3915 24.072 10.8355 24.072 11.2303C24.072 11.6744 24.6666 12.0198 25.608 12.4638C27.1936 13.204 27.9368 14.0428 27.9368 15.227Z" fill="#3362AB"/>
<path d="M3.75714 8.567L3.80669 8.36963H8.06787C8.66245 8.36963 9.10839 8.567 9.25703 9.20845L10.1985 13.6492C9.25703 11.2808 7.0769 9.35647 3.75714 8.567Z" fill="#F9B50B"/>
<path d="M16.1938 8.46719L11.883 18.4836H8.95967L6.48224 10.0955C8.26599 11.2303 9.75245 13.0067 10.2975 14.2402L10.5948 15.2764L13.2704 8.41785H16.1938V8.46719Z" fill="#3362AB"/>
<path d="M17.3333 8.41785H20.0585L18.3243 18.4836H15.5991L17.3333 8.41785Z" fill="#3362AB"/>
</g>
<defs>
<clipPath id="clip0_27_117">
<rect width="40.6695" height="27" fill="white" transform="translate(0.367981)"/>
</clipPath>
</defs>
</svg>
