<svg width="34" height="51" viewBox="0 0 34 51" fill="none" xmlns="http://www.w3.org/2000/svg">
<mask id="path-1-outside-1_142_267" maskUnits="userSpaceOnUse" x="-0.264648" y="-1" width="34" height="56" fill="black">
<rect fill="white" x="-0.264648" y="-1" width="34" height="56"/>
<path d="M6.21052 28.4715C4.30153 29.0042 3.02599 29.5031 2.1524 30.4763C1.28038 31.4477 0.870212 32.7943 0.736689 35.1242C0.735388 35.1471 0.735036 35.17 0.735634 35.1929C0.792376 37.5278 0.81927 39.8954 0.815474 42.2297C0.815293 42.3406 0.836985 42.4505 0.879307 42.553C0.921628 42.6555 0.98375 42.7487 1.06212 42.8272C1.14048 42.9057 1.23356 42.968 1.33602 43.0105C1.43848 43.053 1.54831 43.0748 1.65922 43.0748H3.14939V48.8426H2.2469C2.02312 48.8426 1.80851 48.9315 1.65027 49.0897C1.49204 49.248 1.40315 49.4626 1.40315 49.6863V51.6101C1.40398 52.2438 1.6561 52.8512 2.10421 53.2993C2.55232 53.7473 3.15983 53.9993 3.79349 54H30.2065C30.8402 53.9993 31.4478 53.7472 31.896 53.2991C32.3441 52.851 32.5962 52.2433 32.5969 51.6096V49.6863C32.5969 49.4626 32.508 49.248 32.3498 49.0897C32.1915 48.9315 31.9769 48.8426 31.7532 48.8426H30.8507V43.0748H32.3408C32.4517 43.0748 32.5616 43.053 32.664 43.0105C32.7665 42.968 32.8596 42.9057 32.9379 42.8272C33.0163 42.7487 33.0784 42.6555 33.1207 42.553C33.1631 42.4505 33.1848 42.3406 33.1846 42.2297C33.1808 39.8954 33.2077 37.5278 33.2644 35.1929C33.265 35.1699 33.2644 35.1471 33.2634 35.1242C33.1298 32.7943 32.7197 31.4477 31.8477 30.4763C30.9746 29.5031 29.6984 29.0039 27.7894 28.4715C23.9484 27.3992 22.2794 26.9834 21.4914 26.8181L20.9819 24.9169C23.0968 23.8579 24.7051 22.003 25.4538 19.7595H25.8186C26.4685 19.7597 27.1035 19.5644 27.6409 19.1989C28.1782 18.8334 28.5932 18.3147 28.8317 17.7101C29.0703 17.1056 29.1214 16.4433 28.9785 15.8093C28.8355 15.1753 28.505 14.599 28.0301 14.1554C28.0537 14.1027 28.0718 14.0478 28.0843 13.9915C28.2331 13.3149 28.3578 12.6333 28.4583 11.9478C28.4894 11.7369 28.5201 11.5389 28.549 11.3517C28.8187 9.61381 28.9814 8.56482 27.9394 6.60289C26.7997 4.45892 25.0577 2.69521 22.928 1.52909C20.7983 0.36296 18.374 -0.154633 15.9538 0.040086C13.5335 0.234805 11.2231 1.13333 9.30728 2.62494C7.39142 4.11655 5.95379 6.13608 5.17154 8.43467C5.15658 8.47878 5.14526 8.52403 5.13769 8.56999C4.81738 10.5254 5.10963 12.5707 6.00338 14.6511C5.66991 15.1217 5.46828 15.6729 5.41934 16.2476C5.37041 16.8223 5.47595 17.3996 5.72505 17.9198C5.97414 18.4401 6.35774 18.8843 6.83613 19.2065C7.31453 19.5286 7.87033 19.7171 8.44603 19.7524C8.82303 20.8792 9.42041 21.9198 10.2034 22.8135C10.9864 23.7072 11.9393 24.4363 13.0067 24.9583L12.5085 26.8181C11.7204 26.9834 10.0515 27.3992 6.21052 28.4715ZM13.1125 28.4188L15.5538 30.0435L14.0954 31.0138L12.3638 28.5789C12.7149 28.4964 12.9536 28.4465 13.1124 28.4186L13.1125 28.4188ZM17.0768 31.0571L17.9205 31.6187H16.233L17.0768 31.0571ZM2.50287 41.3873C2.49975 39.3202 2.47324 37.2532 2.42335 35.1866C2.63555 31.5585 3.37003 31.0164 6.66403 30.0968C8.36725 29.6213 9.64669 29.2741 10.6077 29.0218L12.4543 31.6185H5.53974C4.90597 31.6192 4.29837 31.8713 3.85024 32.3194C3.4021 32.7676 3.15001 33.3752 3.14929 34.0089V41.3873H2.50287ZM30.9094 51.6096C30.9092 51.7959 30.8351 51.9746 30.7033 52.1064C30.5715 52.2382 30.3928 52.3123 30.2065 52.3125H3.79349C3.60712 52.3123 3.42843 52.2382 3.29665 52.1064C3.16486 51.9746 3.09074 51.7959 3.09054 51.6096V50.5301H30.9094V51.6096ZM4.83679 48.8426V34.0089C4.83701 33.8226 4.91114 33.6439 5.04292 33.5121C5.1747 33.3804 5.35337 33.3062 5.53974 33.306H28.4602C28.6466 33.3062 28.8252 33.3804 28.957 33.5121C29.0888 33.6439 29.1629 33.8226 29.1632 34.0089V48.8426H4.83679ZM31.5766 35.1866C31.5268 37.2433 31.5001 39.3252 31.4971 41.3873H30.8507V34.0089C30.8499 33.3752 30.5978 32.7676 30.1497 32.3194C29.7016 31.8713 29.094 31.6192 28.4602 31.6185H21.6987L23.4794 29.1147C23.4933 29.0952 23.5056 29.0749 23.5176 29.0547C24.4637 29.3042 25.7065 29.642 27.3356 30.0969C30.6299 31.0164 31.3648 31.5587 31.5766 35.1866ZM21.7672 28.6101L20.0576 31.014L18.5992 30.0436L21.0078 28.4409C21.1832 28.4752 21.4288 28.5293 21.7672 28.6101ZM25.8448 18.0705C25.9818 17.0364 25.937 15.9862 25.7125 14.9675H25.818C26.2265 14.9687 26.618 15.1309 26.9076 15.4189C27.1973 15.7068 27.3617 16.0974 27.3652 16.5059C27.3687 16.9143 27.211 17.3077 26.9263 17.6006C26.6416 17.8935 26.253 18.0623 25.8446 18.0705H25.8448ZM6.79207 8.9115C7.47929 6.93487 8.72817 5.20163 10.3857 3.92417C12.0432 2.64671 14.0374 1.88051 16.1239 1.71945C18.2104 1.5584 20.2985 2.0095 22.1325 3.01746C23.9664 4.02542 25.4665 5.54647 26.4489 7.39422C27.2277 8.86024 27.1334 9.46837 26.8813 11.093C26.8517 11.2841 26.8203 11.4863 26.7886 11.7018C26.7071 12.2545 26.609 12.8047 26.4946 13.3515C26.2723 13.304 26.0457 13.2801 25.8184 13.28H25.1868C24.1297 9.76305 22.9451 7.94646 21.4678 7.57268C20.544 7.33917 19.6221 7.67962 18.7265 8.58518C18.6778 8.63431 18.6353 8.68925 18.5999 8.74876C16.861 11.6871 13.7623 13.0908 9.3884 12.9217C9.24798 12.9168 9.10855 12.947 8.98278 13.0097C8.857 13.0723 8.74885 13.1653 8.66815 13.2803H8.64706C8.20904 13.28 7.77556 13.3689 7.3731 13.5418C6.76022 11.9425 6.56373 10.3876 6.79207 8.9115ZM7.09519 16.5197C7.09573 16.2025 7.1934 15.893 7.37505 15.633C7.5567 15.3729 7.81362 15.1747 8.11128 15.065C7.93196 16.0133 7.9032 16.9839 8.02606 17.9412C7.74963 17.8202 7.51441 17.6214 7.34911 17.369C7.18381 17.1165 7.09558 16.8214 7.09519 16.5197ZM9.95223 14.6226H10.0983C14.6903 14.6226 18.0175 12.9695 19.9955 9.70283C20.4109 9.30205 20.7668 9.13572 21.0541 9.20829C21.4391 9.30574 22.4621 9.96766 23.6412 14.001C23.6501 14.0312 23.6606 14.061 23.6729 14.09C24.2932 15.572 24.4061 17.2175 23.9942 18.7703C23.5822 20.3232 22.6684 21.6963 21.395 22.6759C20.1217 23.6554 18.5602 24.1866 16.9536 24.1866C15.347 24.1866 13.7855 23.6554 12.5122 22.6758C10.0746 20.8011 9.06777 17.5586 9.95223 14.6226ZM16.9535 25.8715C17.7808 25.8713 18.6042 25.757 19.4003 25.5319L19.8441 27.1878L17.0771 29.0293L14.1798 27.1013L14.5942 25.555C15.3632 25.7645 16.1565 25.8709 16.9535 25.8715ZM17 38.3014C16.4764 38.3014 15.9646 38.4567 15.5292 38.7476C15.0939 39.0384 14.7546 39.4519 14.5542 39.9356C14.3539 40.4193 14.3014 40.9516 14.4036 41.4651C14.5057 41.9787 14.7578 42.4504 15.1281 42.8206C15.4983 43.1908 15.97 43.4429 16.4835 43.5451C16.997 43.6472 17.5293 43.5948 18.013 43.3944C18.4968 43.1941 18.9102 42.8548 19.2011 42.4194C19.492 41.9841 19.6472 41.4723 19.6472 40.9487C19.6464 40.2468 19.3673 39.574 18.871 39.0777C18.3747 38.5814 17.7018 38.3022 17 38.3014ZM17 41.9085C16.8101 41.9085 16.6246 41.8522 16.4668 41.7467C16.3089 41.6412 16.1859 41.4913 16.1133 41.316C16.0406 41.1406 16.0216 40.9476 16.0586 40.7614C16.0957 40.5753 16.1871 40.4043 16.3213 40.27C16.4555 40.1358 16.6266 40.0444 16.8127 40.0074C16.9989 39.9703 17.1919 39.9893 17.3673 40.062C17.5426 40.1346 17.6925 40.2576 17.798 40.4155C17.9034 40.5733 17.9597 40.7589 17.9597 40.9487C17.9595 41.2031 17.8583 41.4471 17.6783 41.627C17.4984 41.807 17.2544 41.9082 17 41.9085Z"/>
</mask>
<path d="M6.21052 28.4715C4.30153 29.0042 3.02599 29.5031 2.1524 30.4763C1.28038 31.4477 0.870212 32.7943 0.736689 35.1242C0.735388 35.1471 0.735036 35.17 0.735634 35.1929C0.792376 37.5278 0.81927 39.8954 0.815474 42.2297C0.815293 42.3406 0.836985 42.4505 0.879307 42.553C0.921628 42.6555 0.98375 42.7487 1.06212 42.8272C1.14048 42.9057 1.23356 42.968 1.33602 43.0105C1.43848 43.053 1.54831 43.0748 1.65922 43.0748H3.14939V48.8426H2.2469C2.02312 48.8426 1.80851 48.9315 1.65027 49.0897C1.49204 49.248 1.40315 49.4626 1.40315 49.6863V51.6101C1.40398 52.2438 1.6561 52.8512 2.10421 53.2993C2.55232 53.7473 3.15983 53.9993 3.79349 54H30.2065C30.8402 53.9993 31.4478 53.7472 31.896 53.2991C32.3441 52.851 32.5962 52.2433 32.5969 51.6096V49.6863C32.5969 49.4626 32.508 49.248 32.3498 49.0897C32.1915 48.9315 31.9769 48.8426 31.7532 48.8426H30.8507V43.0748H32.3408C32.4517 43.0748 32.5616 43.053 32.664 43.0105C32.7665 42.968 32.8596 42.9057 32.9379 42.8272C33.0163 42.7487 33.0784 42.6555 33.1207 42.553C33.1631 42.4505 33.1848 42.3406 33.1846 42.2297C33.1808 39.8954 33.2077 37.5278 33.2644 35.1929C33.265 35.1699 33.2644 35.1471 33.2634 35.1242C33.1298 32.7943 32.7197 31.4477 31.8477 30.4763C30.9746 29.5031 29.6984 29.0039 27.7894 28.4715C23.9484 27.3992 22.2794 26.9834 21.4914 26.8181L20.9819 24.9169C23.0968 23.8579 24.7051 22.003 25.4538 19.7595H25.8186C26.4685 19.7597 27.1035 19.5644 27.6409 19.1989C28.1782 18.8334 28.5932 18.3147 28.8317 17.7101C29.0703 17.1056 29.1214 16.4433 28.9785 15.8093C28.8355 15.1753 28.505 14.599 28.0301 14.1554C28.0537 14.1027 28.0718 14.0478 28.0843 13.9915C28.2331 13.3149 28.3578 12.6333 28.4583 11.9478C28.4894 11.7369 28.5201 11.5389 28.549 11.3517C28.8187 9.61381 28.9814 8.56482 27.9394 6.60289C26.7997 4.45892 25.0577 2.69521 22.928 1.52909C20.7983 0.36296 18.374 -0.154633 15.9538 0.040086C13.5335 0.234805 11.2231 1.13333 9.30728 2.62494C7.39142 4.11655 5.95379 6.13608 5.17154 8.43467C5.15658 8.47878 5.14526 8.52403 5.13769 8.56999C4.81738 10.5254 5.10963 12.5707 6.00338 14.6511C5.66991 15.1217 5.46828 15.6729 5.41934 16.2476C5.37041 16.8223 5.47595 17.3996 5.72505 17.9198C5.97414 18.4401 6.35774 18.8843 6.83613 19.2065C7.31453 19.5286 7.87033 19.7171 8.44603 19.7524C8.82303 20.8792 9.42041 21.9198 10.2034 22.8135C10.9864 23.7072 11.9393 24.4363 13.0067 24.9583L12.5085 26.8181C11.7204 26.9834 10.0515 27.3992 6.21052 28.4715ZM13.1125 28.4188L15.5538 30.0435L14.0954 31.0138L12.3638 28.5789C12.7149 28.4964 12.9536 28.4465 13.1124 28.4186L13.1125 28.4188ZM17.0768 31.0571L17.9205 31.6187H16.233L17.0768 31.0571ZM2.50287 41.3873C2.49975 39.3202 2.47324 37.2532 2.42335 35.1866C2.63555 31.5585 3.37003 31.0164 6.66403 30.0968C8.36725 29.6213 9.64669 29.2741 10.6077 29.0218L12.4543 31.6185H5.53974C4.90597 31.6192 4.29837 31.8713 3.85024 32.3194C3.4021 32.7676 3.15001 33.3752 3.14929 34.0089V41.3873H2.50287ZM30.9094 51.6096C30.9092 51.7959 30.8351 51.9746 30.7033 52.1064C30.5715 52.2382 30.3928 52.3123 30.2065 52.3125H3.79349C3.60712 52.3123 3.42843 52.2382 3.29665 52.1064C3.16486 51.9746 3.09074 51.7959 3.09054 51.6096V50.5301H30.9094V51.6096ZM4.83679 48.8426V34.0089C4.83701 33.8226 4.91114 33.6439 5.04292 33.5121C5.1747 33.3804 5.35337 33.3062 5.53974 33.306H28.4602C28.6466 33.3062 28.8252 33.3804 28.957 33.5121C29.0888 33.6439 29.1629 33.8226 29.1632 34.0089V48.8426H4.83679ZM31.5766 35.1866C31.5268 37.2433 31.5001 39.3252 31.4971 41.3873H30.8507V34.0089C30.8499 33.3752 30.5978 32.7676 30.1497 32.3194C29.7016 31.8713 29.094 31.6192 28.4602 31.6185H21.6987L23.4794 29.1147C23.4933 29.0952 23.5056 29.0749 23.5176 29.0547C24.4637 29.3042 25.7065 29.642 27.3356 30.0969C30.6299 31.0164 31.3648 31.5587 31.5766 35.1866ZM21.7672 28.6101L20.0576 31.014L18.5992 30.0436L21.0078 28.4409C21.1832 28.4752 21.4288 28.5293 21.7672 28.6101ZM25.8448 18.0705C25.9818 17.0364 25.937 15.9862 25.7125 14.9675H25.818C26.2265 14.9687 26.618 15.1309 26.9076 15.4189C27.1973 15.7068 27.3617 16.0974 27.3652 16.5059C27.3687 16.9143 27.211 17.3077 26.9263 17.6006C26.6416 17.8935 26.253 18.0623 25.8446 18.0705H25.8448ZM6.79207 8.9115C7.47929 6.93487 8.72817 5.20163 10.3857 3.92417C12.0432 2.64671 14.0374 1.88051 16.1239 1.71945C18.2104 1.5584 20.2985 2.0095 22.1325 3.01746C23.9664 4.02542 25.4665 5.54647 26.4489 7.39422C27.2277 8.86024 27.1334 9.46837 26.8813 11.093C26.8517 11.2841 26.8203 11.4863 26.7886 11.7018C26.7071 12.2545 26.609 12.8047 26.4946 13.3515C26.2723 13.304 26.0457 13.2801 25.8184 13.28H25.1868C24.1297 9.76305 22.9451 7.94646 21.4678 7.57268C20.544 7.33917 19.6221 7.67962 18.7265 8.58518C18.6778 8.63431 18.6353 8.68925 18.5999 8.74876C16.861 11.6871 13.7623 13.0908 9.3884 12.9217C9.24798 12.9168 9.10855 12.947 8.98278 13.0097C8.857 13.0723 8.74885 13.1653 8.66815 13.2803H8.64706C8.20904 13.28 7.77556 13.3689 7.3731 13.5418C6.76022 11.9425 6.56373 10.3876 6.79207 8.9115ZM7.09519 16.5197C7.09573 16.2025 7.1934 15.893 7.37505 15.633C7.5567 15.3729 7.81362 15.1747 8.11128 15.065C7.93196 16.0133 7.9032 16.9839 8.02606 17.9412C7.74963 17.8202 7.51441 17.6214 7.34911 17.369C7.18381 17.1165 7.09558 16.8214 7.09519 16.5197ZM9.95223 14.6226H10.0983C14.6903 14.6226 18.0175 12.9695 19.9955 9.70283C20.4109 9.30205 20.7668 9.13572 21.0541 9.20829C21.4391 9.30574 22.4621 9.96766 23.6412 14.001C23.6501 14.0312 23.6606 14.061 23.6729 14.09C24.2932 15.572 24.4061 17.2175 23.9942 18.7703C23.5822 20.3232 22.6684 21.6963 21.395 22.6759C20.1217 23.6554 18.5602 24.1866 16.9536 24.1866C15.347 24.1866 13.7855 23.6554 12.5122 22.6758C10.0746 20.8011 9.06777 17.5586 9.95223 14.6226ZM16.9535 25.8715C17.7808 25.8713 18.6042 25.757 19.4003 25.5319L19.8441 27.1878L17.0771 29.0293L14.1798 27.1013L14.5942 25.555C15.3632 25.7645 16.1565 25.8709 16.9535 25.8715ZM17 38.3014C16.4764 38.3014 15.9646 38.4567 15.5292 38.7476C15.0939 39.0384 14.7546 39.4519 14.5542 39.9356C14.3539 40.4193 14.3014 40.9516 14.4036 41.4651C14.5057 41.9787 14.7578 42.4504 15.1281 42.8206C15.4983 43.1908 15.97 43.4429 16.4835 43.5451C16.997 43.6472 17.5293 43.5948 18.013 43.3944C18.4968 43.1941 18.9102 42.8548 19.2011 42.4194C19.492 41.9841 19.6472 41.4723 19.6472 40.9487C19.6464 40.2468 19.3673 39.574 18.871 39.0777C18.3747 38.5814 17.7018 38.3022 17 38.3014ZM17 41.9085C16.8101 41.9085 16.6246 41.8522 16.4668 41.7467C16.3089 41.6412 16.1859 41.4913 16.1133 41.316C16.0406 41.1406 16.0216 40.9476 16.0586 40.7614C16.0957 40.5753 16.1871 40.4043 16.3213 40.27C16.4555 40.1358 16.6266 40.0444 16.8127 40.0074C16.9989 39.9703 17.1919 39.9893 17.3673 40.062C17.5426 40.1346 17.6925 40.2576 17.798 40.4155C17.9034 40.5733 17.9597 40.7589 17.9597 40.9487C17.9595 41.2031 17.8583 41.4471 17.6783 41.627C17.4984 41.807 17.2544 41.9082 17 41.9085Z" fill="white"/>
<path d="M6.21052 28.4715C4.30153 29.0042 3.02599 29.5031 2.1524 30.4763C1.28038 31.4477 0.870212 32.7943 0.736689 35.1242C0.735388 35.1471 0.735036 35.17 0.735634 35.1929C0.792376 37.5278 0.81927 39.8954 0.815474 42.2297C0.815293 42.3406 0.836985 42.4505 0.879307 42.553C0.921628 42.6555 0.98375 42.7487 1.06212 42.8272C1.14048 42.9057 1.23356 42.968 1.33602 43.0105C1.43848 43.053 1.54831 43.0748 1.65922 43.0748H3.14939V48.8426H2.2469C2.02312 48.8426 1.80851 48.9315 1.65027 49.0897C1.49204 49.248 1.40315 49.4626 1.40315 49.6863V51.6101C1.40398 52.2438 1.6561 52.8512 2.10421 53.2993C2.55232 53.7473 3.15983 53.9993 3.79349 54H30.2065C30.8402 53.9993 31.4478 53.7472 31.896 53.2991C32.3441 52.851 32.5962 52.2433 32.5969 51.6096V49.6863C32.5969 49.4626 32.508 49.248 32.3498 49.0897C32.1915 48.9315 31.9769 48.8426 31.7532 48.8426H30.8507V43.0748H32.3408C32.4517 43.0748 32.5616 43.053 32.664 43.0105C32.7665 42.968 32.8596 42.9057 32.9379 42.8272C33.0163 42.7487 33.0784 42.6555 33.1207 42.553C33.1631 42.4505 33.1848 42.3406 33.1846 42.2297C33.1808 39.8954 33.2077 37.5278 33.2644 35.1929C33.265 35.1699 33.2644 35.1471 33.2634 35.1242C33.1298 32.7943 32.7197 31.4477 31.8477 30.4763C30.9746 29.5031 29.6984 29.0039 27.7894 28.4715C23.9484 27.3992 22.2794 26.9834 21.4914 26.8181L20.9819 24.9169C23.0968 23.8579 24.7051 22.003 25.4538 19.7595H25.8186C26.4685 19.7597 27.1035 19.5644 27.6409 19.1989C28.1782 18.8334 28.5932 18.3147 28.8317 17.7101C29.0703 17.1056 29.1214 16.4433 28.9785 15.8093C28.8355 15.1753 28.505 14.599 28.0301 14.1554C28.0537 14.1027 28.0718 14.0478 28.0843 13.9915C28.2331 13.3149 28.3578 12.6333 28.4583 11.9478C28.4894 11.7369 28.5201 11.5389 28.549 11.3517C28.8187 9.61381 28.9814 8.56482 27.9394 6.60289C26.7997 4.45892 25.0577 2.69521 22.928 1.52909C20.7983 0.36296 18.374 -0.154633 15.9538 0.040086C13.5335 0.234805 11.2231 1.13333 9.30728 2.62494C7.39142 4.11655 5.95379 6.13608 5.17154 8.43467C5.15658 8.47878 5.14526 8.52403 5.13769 8.56999C4.81738 10.5254 5.10963 12.5707 6.00338 14.6511C5.66991 15.1217 5.46828 15.6729 5.41934 16.2476C5.37041 16.8223 5.47595 17.3996 5.72505 17.9198C5.97414 18.4401 6.35774 18.8843 6.83613 19.2065C7.31453 19.5286 7.87033 19.7171 8.44603 19.7524C8.82303 20.8792 9.42041 21.9198 10.2034 22.8135C10.9864 23.7072 11.9393 24.4363 13.0067 24.9583L12.5085 26.8181C11.7204 26.9834 10.0515 27.3992 6.21052 28.4715ZM13.1125 28.4188L15.5538 30.0435L14.0954 31.0138L12.3638 28.5789C12.7149 28.4964 12.9536 28.4465 13.1124 28.4186L13.1125 28.4188ZM17.0768 31.0571L17.9205 31.6187H16.233L17.0768 31.0571ZM2.50287 41.3873C2.49975 39.3202 2.47324 37.2532 2.42335 35.1866C2.63555 31.5585 3.37003 31.0164 6.66403 30.0968C8.36725 29.6213 9.64669 29.2741 10.6077 29.0218L12.4543 31.6185H5.53974C4.90597 31.6192 4.29837 31.8713 3.85024 32.3194C3.4021 32.7676 3.15001 33.3752 3.14929 34.0089V41.3873H2.50287ZM30.9094 51.6096C30.9092 51.7959 30.8351 51.9746 30.7033 52.1064C30.5715 52.2382 30.3928 52.3123 30.2065 52.3125H3.79349C3.60712 52.3123 3.42843 52.2382 3.29665 52.1064C3.16486 51.9746 3.09074 51.7959 3.09054 51.6096V50.5301H30.9094V51.6096ZM4.83679 48.8426V34.0089C4.83701 33.8226 4.91114 33.6439 5.04292 33.5121C5.1747 33.3804 5.35337 33.3062 5.53974 33.306H28.4602C28.6466 33.3062 28.8252 33.3804 28.957 33.5121C29.0888 33.6439 29.1629 33.8226 29.1632 34.0089V48.8426H4.83679ZM31.5766 35.1866C31.5268 37.2433 31.5001 39.3252 31.4971 41.3873H30.8507V34.0089C30.8499 33.3752 30.5978 32.7676 30.1497 32.3194C29.7016 31.8713 29.094 31.6192 28.4602 31.6185H21.6987L23.4794 29.1147C23.4933 29.0952 23.5056 29.0749 23.5176 29.0547C24.4637 29.3042 25.7065 29.642 27.3356 30.0969C30.6299 31.0164 31.3648 31.5587 31.5766 35.1866ZM21.7672 28.6101L20.0576 31.014L18.5992 30.0436L21.0078 28.4409C21.1832 28.4752 21.4288 28.5293 21.7672 28.6101ZM25.8448 18.0705C25.9818 17.0364 25.937 15.9862 25.7125 14.9675H25.818C26.2265 14.9687 26.618 15.1309 26.9076 15.4189C27.1973 15.7068 27.3617 16.0974 27.3652 16.5059C27.3687 16.9143 27.211 17.3077 26.9263 17.6006C26.6416 17.8935 26.253 18.0623 25.8446 18.0705H25.8448ZM6.79207 8.9115C7.47929 6.93487 8.72817 5.20163 10.3857 3.92417C12.0432 2.64671 14.0374 1.88051 16.1239 1.71945C18.2104 1.5584 20.2985 2.0095 22.1325 3.01746C23.9664 4.02542 25.4665 5.54647 26.4489 7.39422C27.2277 8.86024 27.1334 9.46837 26.8813 11.093C26.8517 11.2841 26.8203 11.4863 26.7886 11.7018C26.7071 12.2545 26.609 12.8047 26.4946 13.3515C26.2723 13.304 26.0457 13.2801 25.8184 13.28H25.1868C24.1297 9.76305 22.9451 7.94646 21.4678 7.57268C20.544 7.33917 19.6221 7.67962 18.7265 8.58518C18.6778 8.63431 18.6353 8.68925 18.5999 8.74876C16.861 11.6871 13.7623 13.0908 9.3884 12.9217C9.24798 12.9168 9.10855 12.947 8.98278 13.0097C8.857 13.0723 8.74885 13.1653 8.66815 13.2803H8.64706C8.20904 13.28 7.77556 13.3689 7.3731 13.5418C6.76022 11.9425 6.56373 10.3876 6.79207 8.9115ZM7.09519 16.5197C7.09573 16.2025 7.1934 15.893 7.37505 15.633C7.5567 15.3729 7.81362 15.1747 8.11128 15.065C7.93196 16.0133 7.9032 16.9839 8.02606 17.9412C7.74963 17.8202 7.51441 17.6214 7.34911 17.369C7.18381 17.1165 7.09558 16.8214 7.09519 16.5197ZM9.95223 14.6226H10.0983C14.6903 14.6226 18.0175 12.9695 19.9955 9.70283C20.4109 9.30205 20.7668 9.13572 21.0541 9.20829C21.4391 9.30574 22.4621 9.96766 23.6412 14.001C23.6501 14.0312 23.6606 14.061 23.6729 14.09C24.2932 15.572 24.4061 17.2175 23.9942 18.7703C23.5822 20.3232 22.6684 21.6963 21.395 22.6759C20.1217 23.6554 18.5602 24.1866 16.9536 24.1866C15.347 24.1866 13.7855 23.6554 12.5122 22.6758C10.0746 20.8011 9.06777 17.5586 9.95223 14.6226ZM16.9535 25.8715C17.7808 25.8713 18.6042 25.757 19.4003 25.5319L19.8441 27.1878L17.0771 29.0293L14.1798 27.1013L14.5942 25.555C15.3632 25.7645 16.1565 25.8709 16.9535 25.8715ZM17 38.3014C16.4764 38.3014 15.9646 38.4567 15.5292 38.7476C15.0939 39.0384 14.7546 39.4519 14.5542 39.9356C14.3539 40.4193 14.3014 40.9516 14.4036 41.4651C14.5057 41.9787 14.7578 42.4504 15.1281 42.8206C15.4983 43.1908 15.97 43.4429 16.4835 43.5451C16.997 43.6472 17.5293 43.5948 18.013 43.3944C18.4968 43.1941 18.9102 42.8548 19.2011 42.4194C19.492 41.9841 19.6472 41.4723 19.6472 40.9487C19.6464 40.2468 19.3673 39.574 18.871 39.0777C18.3747 38.5814 17.7018 38.3022 17 38.3014ZM17 41.9085C16.8101 41.9085 16.6246 41.8522 16.4668 41.7467C16.3089 41.6412 16.1859 41.4913 16.1133 41.316C16.0406 41.1406 16.0216 40.9476 16.0586 40.7614C16.0957 40.5753 16.1871 40.4043 16.3213 40.27C16.4555 40.1358 16.6266 40.0444 16.8127 40.0074C16.9989 39.9703 17.1919 39.9893 17.3673 40.062C17.5426 40.1346 17.6925 40.2576 17.798 40.4155C17.9034 40.5733 17.9597 40.7589 17.9597 40.9487C17.9595 41.2031 17.8583 41.4471 17.6783 41.627C17.4984 41.807 17.2544 41.9082 17 41.9085Z" stroke="white" stroke-width="0.2" mask="url(#path-1-outside-1_142_267)"/>
</svg>
