<svg width="54" height="54" viewBox="0 0 54 54" fill="none" xmlns="http://www.w3.org/2000/svg">
<path d="M22.7813 11.3054V11.1729C22.7832 10.462 22.6441 9.75769 22.372 9.10087C22.0998 8.44406 21.7001 7.84776 21.1959 7.34652C20.7404 6.88836 20.1985 6.52514 19.6017 6.27791C19.0048 6.03068 18.3648 5.90435 17.7188 5.90624C16.4531 5.90624 15.2601 6.38127 14.3438 7.24696C13.4329 6.38291 12.2243 5.90278 10.9688 5.90624C10.3227 5.90435 9.68274 6.03068 9.08588 6.27791C8.48902 6.52514 7.94715 6.88836 7.49168 7.34652C6.98747 7.84776 6.58772 8.44406 6.31558 9.10087C6.04344 9.75769 5.90432 10.462 5.90627 11.1729V11.3054C5.90627 12.9406 6.60743 14.5015 7.82918 15.5874L14.3438 21.3789L20.8575 15.5883C21.4623 15.0506 21.9464 14.391 22.278 13.6528C22.6096 12.9146 22.7811 12.1146 22.7813 11.3054ZM14.3438 19.1211L8.95052 14.3269C8.52393 13.9475 8.18248 13.4822 7.94864 12.9614C7.7148 12.4406 7.59385 11.8763 7.59377 11.3054V11.1729C7.59377 10.1781 7.98105 9.24327 8.68474 8.53958C9.29477 7.92955 10.1065 7.59374 10.9688 7.59374C11.8311 7.59374 12.6428 7.92955 13.2528 8.53958L14.3438 9.63055L15.4347 8.53958C16.6548 7.32037 18.7827 7.32037 20.0028 8.53958C20.3498 8.88455 20.6249 9.29493 20.8121 9.74695C20.9994 10.199 21.0951 10.6837 21.0938 11.1729V11.3054C21.0936 11.8762 20.9726 12.4406 20.7388 12.9613C20.5049 13.4821 20.1635 13.9475 19.737 14.3269L14.3438 19.1211Z" fill="white"/>
<path d="M50.625 7.59375H27.8438V3.375C27.8438 1.97944 26.7081 0.84375 25.3125 0.84375H3.375C1.97944 0.84375 0.84375 1.97944 0.84375 3.375V21.9375C0.84375 23.3331 1.97944 24.4688 3.375 24.4688H10.5739L11.9804 26.1562H5.0625C3.66694 26.1562 2.53125 27.2919 2.53125 28.6875V45.5625C2.53125 46.9581 3.66694 48.0938 5.0625 48.0938H13.9489L17.5702 52.4391C17.9499 52.8947 18.5077 53.1562 19.1008 53.1562C19.6292 53.1556 20.1357 52.9454 20.5093 52.5718C20.8829 52.1982 21.0931 51.6917 21.0938 51.1633V48.0938H30.375C31.7706 48.0938 32.9062 46.9581 32.9062 45.5625V31.2188H34.5938V34.2883C34.5944 34.8167 34.8046 35.3232 35.1782 35.6968C35.5518 36.0704 36.0583 36.2806 36.5867 36.2812C37.1798 36.2812 37.7376 36.0197 38.1172 35.5641L41.7386 31.2188H50.625C52.0206 31.2188 53.1562 30.0831 53.1562 28.6875V10.125C53.1562 8.72944 52.0206 7.59375 50.625 7.59375ZM3.375 22.7812C2.91009 22.7812 2.53125 22.4032 2.53125 21.9375V3.375C2.53125 2.90925 2.91009 2.53125 3.375 2.53125H25.3125C25.7774 2.53125 26.1562 2.90925 26.1562 3.375V21.9375C26.1562 22.4032 25.7774 22.7812 25.3125 22.7812H16.0312V27.5383C16.0312 27.799 15.6583 27.934 15.4913 27.7332L11.3636 22.7812H3.375ZM22.7812 26.1562H17.7188V24.4688H22.7812V26.1562ZM31.2188 45.5625C31.2188 46.0283 30.8399 46.4062 30.375 46.4062H19.4062V51.1633C19.4062 51.424 19.0333 51.559 18.8663 51.3582L14.7386 46.4062H5.0625C4.59759 46.4062 4.21875 46.0283 4.21875 45.5625V28.6875C4.21875 28.2218 4.59759 27.8438 5.0625 27.8438H13.3861L14.1952 28.8141C14.44 29.1085 14.7647 29.326 15.1301 29.4403C15.4956 29.5546 15.8863 29.5609 16.2552 29.4583C16.6241 29.3558 16.9556 29.1489 17.2097 28.8625C17.4638 28.576 17.6297 28.2223 17.6875 27.8438H22.7812V28.6875C22.7812 30.0831 23.9169 31.2188 25.3125 31.2188H31.2188V45.5625ZM51.4688 28.6875C51.4688 29.1532 51.0899 29.5312 50.625 29.5312H40.9489L36.8213 34.4832C36.6542 34.6823 36.2812 34.5482 36.2812 34.2883V29.5312H25.3125C24.8476 29.5312 24.4688 29.1532 24.4688 28.6875V24.4688H25.3125C26.7081 24.4688 27.8438 23.3331 27.8438 21.9375V9.28125H50.625C51.0899 9.28125 51.4688 9.65925 51.4688 10.125V28.6875Z" fill="white"/>
<path d="M21.0938 36.2812C21.0938 36.7816 21.2102 37.2524 21.4059 37.6793C21.0412 37.3557 20.6356 37.0814 20.1994 36.8634C20.7722 36.2462 21.0915 35.4358 21.0938 34.5938C21.0938 32.7324 19.5801 31.2188 17.7188 31.2188C15.8574 31.2188 14.3438 32.7324 14.3438 34.5938C14.346 35.4358 14.6653 36.2462 15.2381 36.8634C14.8019 37.0814 14.3963 37.3557 14.0316 37.6793C14.2355 37.2414 14.342 36.7644 14.3438 36.2812C14.3438 34.4199 12.8301 32.9062 10.9688 32.9062C9.10744 32.9062 7.59375 34.4199 7.59375 36.2812C7.59375 37.1807 7.95234 37.9932 8.52778 38.599C7.73446 39.036 7.07281 39.6776 6.61173 40.4571C6.15066 41.2367 5.90704 42.1256 5.90625 43.0312V44.7187H7.59375V43.0312C7.59375 41.1699 9.10744 39.6562 10.9688 39.6562C11.5003 39.6562 12.0099 39.7828 12.474 40.0148C12.3367 40.4066 12.2433 40.8124 12.1956 41.2248L11.8176 44.6251L13.4941 44.8116L13.8721 41.4112C14.0906 39.4487 15.7444 37.9687 17.7188 37.9687C19.6931 37.9687 21.3469 39.4487 21.5654 41.4112L21.9434 44.8116L23.6199 44.6251L23.2419 41.2248C23.1946 40.8123 23.1012 40.4065 22.9635 40.0148C23.4304 39.7796 23.9459 39.6568 24.4688 39.6562C26.3301 39.6562 27.8438 41.1699 27.8438 43.0312V44.7187H29.5312V43.0312C29.5312 41.1244 28.4707 39.4622 26.9097 38.599C27.5079 37.9756 27.8425 37.1453 27.8438 36.2812C27.8438 34.4199 26.3301 32.9062 24.4688 32.9062C22.6074 32.9062 21.0938 34.4199 21.0938 36.2812ZM9.28125 36.2812C9.28125 35.3506 10.0381 34.5938 10.9688 34.5938C11.8994 34.5938 12.6562 35.3506 12.6562 36.2812C12.6562 37.2119 11.8994 37.9687 10.9688 37.9687C10.0381 37.9687 9.28125 37.2119 9.28125 36.2812ZM16.0312 34.5938C16.0312 33.6631 16.7881 32.9062 17.7188 32.9062C18.6494 32.9062 19.4062 33.6631 19.4062 34.5938C19.4062 35.5244 18.6494 36.2812 17.7188 36.2812C16.7881 36.2812 16.0312 35.5244 16.0312 34.5938ZM26.1562 36.2812C26.1562 37.2119 25.3994 37.9687 24.4688 37.9687C23.5381 37.9687 22.7812 37.2119 22.7812 36.2812C22.7812 35.3506 23.5381 34.5938 24.4688 34.5938C25.3994 34.5938 26.1562 35.3506 26.1562 36.2812ZM44.7188 16.0313H43.1831L43.3865 14.8129C43.4656 14.34 43.4407 13.8555 43.3133 13.3933C43.1859 12.931 42.9592 12.5021 42.649 12.1365C42.3395 11.7703 41.9538 11.476 41.5188 11.2743C41.0837 11.0726 40.6099 10.9684 40.1304 10.9688C39.5658 10.9683 39.0173 11.1568 38.5722 11.5042C38.1271 11.8516 37.811 12.3379 37.6743 12.8858C37.3684 14.1094 36.7359 15.227 35.8442 16.119L35.5953 16.3679C35.3065 16.1506 34.9552 16.0325 34.5938 16.0313H31.2188C30.2881 16.0313 29.5312 16.7881 29.5312 17.7188V26.1563C29.5312 27.0869 30.2881 27.8438 31.2188 27.8438H34.5938C35.3303 27.8438 35.9505 27.367 36.1808 26.7081C37.6814 27.4547 39.3345 27.8434 41.0105 27.8438H44.7188C46.5801 27.8438 48.0938 26.3301 48.0938 24.4688V19.4062C48.0938 17.5449 46.5801 16.0313 44.7188 16.0313ZM31.2188 26.1563V17.7188H34.5938L34.5946 26.1563H31.2188ZM46.4062 24.4688C46.4062 25.3994 45.6494 26.1563 44.7188 26.1563H41.0105C39.3356 26.1563 37.7114 25.6998 36.2812 24.8417V18.0681L37.0373 17.3121C38.1455 16.2039 38.9317 14.8154 39.312 13.295C39.3574 13.1124 39.4627 12.9502 39.6111 12.8345C39.7594 12.7187 39.9423 12.656 40.1304 12.6563C40.6055 12.6563 41.0543 12.8638 41.3615 13.2275C41.6686 13.5903 41.8002 14.067 41.7218 14.5361L41.1919 17.7188H44.7188C45.6494 17.7188 46.4062 18.4756 46.4062 19.4062V24.4688Z" fill="white"/>
</svg>
