<svg width="50" height="36" viewBox="0 0 50 36" fill="none" xmlns="http://www.w3.org/2000/svg">
<path d="M23.5577 35.3981C23.867 35.5763 24.195 35.6579 24.5149 35.6579C25.5191 35.6579 26.441 34.8542 26.441 33.7318V1.92617C26.441 0.803757 25.5197 0 24.5149 0C24.195 0 23.867 0.0816751 23.5577 0.259875L8.41809 9.28125H3.43468C1.57286 9.28187 0 10.8306 0 12.6646V22.9946C0 24.8273 1.57286 26.3755 3.43468 26.3755H8.41809L23.5577 35.3981ZM23.5917 3.52873V32.1305L11.7519 25.3081V10.3504L23.5917 3.52873ZM3.43468 23.5261C3.14449 23.5261 2.84934 23.2576 2.84934 22.994V12.6646C2.84934 12.4004 3.14511 12.1312 3.43468 12.1312H8.41809V23.5267L3.43468 23.5261ZM29.9135 10.7062V24.5947C29.9135 24.9725 30.0635 25.3348 30.3307 25.6019C30.5978 25.869 30.9601 26.0191 31.3378 26.0191C31.7156 26.0191 32.0779 25.869 32.345 25.6019C32.6121 25.3348 32.7622 24.9725 32.7622 24.5947V10.7062C32.7622 10.3285 32.6121 9.96618 32.345 9.69906C32.0779 9.43194 31.7156 9.28187 31.3378 9.28187C30.9601 9.28187 30.5978 9.43194 30.3307 9.69906C30.0635 9.96618 29.9135 10.3285 29.9135 10.7062ZM37.0359 30.2928C37.2229 30.2928 37.4082 30.2559 37.581 30.1843C37.7538 30.1128 37.9108 30.0078 38.0431 29.8756C38.1753 29.7433 38.2803 29.5863 38.3518 29.4135C38.4234 29.2407 38.4603 29.0555 38.4603 28.8684V6.78893C38.4603 6.41116 38.3102 6.04887 38.0431 5.78175C37.776 5.51463 37.4137 5.36456 37.0359 5.36456C36.6581 5.36456 36.2958 5.51463 36.0287 5.78175C35.7616 6.04887 35.6115 6.41116 35.6115 6.78893V28.8678C35.6115 29.2456 35.7616 29.608 36.0287 29.8752C36.2958 30.1424 36.6581 30.2926 37.0359 30.2928ZM42.3776 23.5261C42.5646 23.5261 42.7498 23.4893 42.9226 23.4177C43.0955 23.3461 43.2525 23.2412 43.3847 23.1089C43.517 22.9767 43.6219 22.8196 43.6935 22.6468C43.7651 22.474 43.8019 22.2888 43.8019 22.1018V13.555C43.8019 13.1772 43.6519 12.8149 43.3847 12.5478C43.1176 12.2807 42.7553 12.1306 42.3776 12.1306C41.9998 12.1306 41.6375 12.2807 41.3704 12.5478C41.1033 12.8149 40.9532 13.1772 40.9532 13.555V22.1018C40.9532 22.4795 41.1033 22.8418 41.3704 23.1089C41.6375 23.376 41.9998 23.5261 42.3776 23.5261ZM48.0756 14.6235C47.6979 14.6235 47.3356 14.7736 47.0685 15.0407C46.8013 15.3078 46.6513 15.6701 46.6513 16.0479V19.6088C46.6513 19.9866 46.8013 20.3489 47.0685 20.616C47.3356 20.8831 47.6979 21.0332 48.0756 21.0332C48.4534 21.0332 48.8157 20.8831 49.0828 20.616C49.3499 20.3489 49.5 19.9866 49.5 19.6088V16.0479C49.5 15.6701 49.3499 15.3078 49.0828 15.0407C48.8157 14.7736 48.4534 14.6235 48.0756 14.6235Z" fill="white"/>
</svg>
