<svg width="51" height="48" viewBox="0 0 51 48" fill="none" xmlns="http://www.w3.org/2000/svg">
<path d="M0.816533 20.4133H5.34641C5.6141 21.3795 6.0004 22.3088 6.4965 23.18L3.29038 26.3849C3.21451 26.4607 3.15432 26.5508 3.11325 26.6499C3.07219 26.749 3.05105 26.8552 3.05105 26.9625C3.05105 27.0698 3.07219 27.176 3.11325 27.2751C3.15432 27.3742 3.21451 27.4643 3.29038 27.5401L6.75428 31.005C7.07321 31.3233 7.58992 31.3233 7.90885 31.005L11.1154 27.7981C11.9863 28.2941 12.9152 28.6804 13.8811 28.948V33.4778C13.8811 33.9288 14.2466 34.2944 14.6976 34.2944H19.5968C20.0478 34.2944 20.4133 33.9288 20.4133 33.4778V28.948C21.3792 28.6804 22.3081 28.2941 23.179 27.7981L26.3855 31.005C26.7095 31.3112 27.2163 31.3112 27.5401 31.005L31.0046 27.5401C31.0805 27.4643 31.1407 27.3742 31.1818 27.2751C31.2228 27.176 31.244 27.0698 31.244 26.9625C31.244 26.8552 31.2228 26.749 31.1818 26.6499C31.1407 26.5508 31.0805 26.4607 31.0046 26.3849L27.7978 23.18C28.2939 22.3088 28.6803 21.3795 28.948 20.4133H33.4778C33.9288 20.4133 34.2944 20.0478 34.2944 19.5968V14.6976C34.2944 14.2469 33.9288 13.8811 33.4778 13.8811H28.948C28.6802 12.915 28.2939 11.9858 27.7978 11.1147L31.004 7.90983C31.0799 7.83399 31.1401 7.74394 31.1811 7.64483C31.2222 7.54573 31.2433 7.4395 31.2433 7.33222C31.2433 7.22494 31.2222 7.11871 31.1811 7.0196C31.1401 6.92049 31.0799 6.83044 31.004 6.7546L27.5401 3.28965C27.2212 2.97104 26.7045 2.97104 26.3855 3.28965L23.179 6.4965C22.308 6.0008 21.379 5.6146 20.4133 5.34666V0.816533C20.4133 0.365807 20.0478 0 19.5968 0H14.6976C14.2466 0 13.8811 0.365807 13.8811 0.816533V5.34666C12.9153 5.61462 11.9864 6.00086 11.1154 6.49658L7.90885 3.28965C7.58485 2.98345 7.07803 2.98345 6.75428 3.28965L3.28973 6.75452C3.21385 6.83036 3.15367 6.92041 3.1126 7.01952C3.07154 7.11863 3.0504 7.22486 3.0504 7.33214C3.0504 7.43942 3.07154 7.54564 3.1126 7.64475C3.15367 7.74386 3.21385 7.83391 3.28973 7.90975L6.4965 11.1146C6.00046 11.9858 5.61416 12.9149 5.34641 13.881H0.816533C0.365562 13.881 0 14.2468 0 14.6975V19.5967C0 20.0477 0.365562 20.4132 0.816533 20.4132V20.4133ZM1.63307 15.5141H5.98518C6.36896 15.5141 6.70096 15.2471 6.78294 14.8723C7.05093 13.6493 7.53541 12.484 8.2135 11.4315C8.31397 11.2746 8.35779 11.0881 8.33771 10.9029C8.31763 10.7178 8.23486 10.545 8.10311 10.4133L5.02168 7.33189L7.33165 5.02168L10.4124 8.10311C10.5441 8.23511 10.717 8.31808 10.9024 8.33822C11.0878 8.35836 11.2745 8.31447 11.4315 8.21383C12.4842 7.53605 13.6494 7.0516 14.8723 6.78326C15.0542 6.74326 15.217 6.64235 15.3337 6.49724C15.4504 6.35212 15.5141 6.17149 15.5141 5.98527V1.63307H18.7803V5.98518C18.7803 6.36896 19.0475 6.70096 19.422 6.78326C20.645 7.0516 21.8102 7.53605 22.8629 8.21383C23.0199 8.31447 23.2066 8.35836 23.392 8.33822C23.5773 8.31808 23.7502 8.23511 23.8819 8.10311L26.9627 5.02168L29.272 7.33189L26.1913 10.4124C26.0593 10.5442 25.9764 10.7171 25.9563 10.9025C25.9362 11.0878 25.9802 11.2745 26.0809 11.4315C26.7587 12.4842 27.2429 13.6498 27.5105 14.873C27.5504 15.0549 27.6512 15.2177 27.7963 15.3345C27.9414 15.4513 28.122 15.515 28.3082 15.5151H32.6613V18.7812H28.3081C27.9248 18.7812 27.5928 19.0482 27.5105 19.423C27.2429 20.6457 26.7588 21.8107 26.0809 22.8629C25.9804 23.0198 25.9366 23.2064 25.9566 23.3916C25.9767 23.5768 26.0595 23.7496 26.1913 23.8814L29.2727 26.9622L26.9627 29.2729L23.8819 26.1913C23.7502 26.0594 23.5773 25.9765 23.3919 25.9564C23.2065 25.9363 23.0199 25.9802 22.8629 26.0809C21.8107 26.759 20.6457 27.2435 19.4229 27.5114C19.0478 27.5931 18.7803 27.9254 18.7803 28.3092V32.6613H15.5141V28.3092C15.5141 27.9254 15.2465 27.5931 14.8714 27.5114C13.6486 27.2435 12.4836 26.759 11.4315 26.0809C11.2745 25.9802 11.0878 25.9363 10.9025 25.9564C10.7171 25.9765 10.5442 26.0594 10.4124 26.1913L7.33165 29.273L5.02233 26.9628L8.10311 23.882C8.23509 23.7503 8.31802 23.5773 8.33811 23.3919C8.35819 23.2066 8.31422 23.0199 8.2135 22.8629C7.5354 21.8101 7.05093 20.6446 6.78294 19.4214C6.74302 19.2396 6.64215 19.0769 6.49705 18.9602C6.35195 18.8436 6.17134 18.7801 5.98518 18.7803H1.63307V15.5141Z" fill="white"/>
<path d="M17.1475 23.6794C20.7553 23.6794 23.6798 20.7552 23.6798 17.1471C23.6798 13.5394 20.7553 10.6149 17.1475 10.6149C13.5397 10.6149 10.6152 13.5394 10.6152 17.1471C10.6191 20.7529 13.5417 23.6756 17.1475 23.6794ZM17.1475 12.2479C19.8529 12.2479 22.0467 14.4417 22.0467 17.1471C22.0467 19.8529 19.8529 22.0463 17.1475 22.0463C14.4421 22.0463 12.2483 19.8529 12.2483 17.1471C12.2512 14.4424 14.4427 12.2508 17.1475 12.2479Z" fill="white"/>
<path d="M17.1472 26.129C22.1076 26.129 26.129 22.108 26.129 17.1472C26.129 12.1868 22.1076 8.16533 17.1472 8.16533C12.1868 8.16533 8.16533 12.1868 8.16533 17.1472C8.17137 22.1054 12.189 26.1233 17.1472 26.129ZM17.1472 9.79839C21.2059 9.79839 24.496 13.0884 24.496 17.1472C24.496 21.2059 21.2059 24.496 17.1472 24.496C13.0884 24.496 9.79839 21.2059 9.79839 17.1472C9.80288 13.0907 13.0903 9.80289 17.1472 9.79839ZM46.5424 37.5605V31.0282C46.5424 30.5775 46.1768 30.2117 45.7258 30.2117H44.0928V23.6795C44.0928 23.2287 43.7272 22.8629 43.2762 22.8629H35.9274C35.4765 22.8629 35.1109 23.2287 35.1109 23.6795V30.2117H31.0282C30.5773 30.2117 30.2117 30.5775 30.2117 31.0282V37.5605H4.08266C1.82887 37.5634 0.00285786 39.3894 0 41.6432V43.2762C0.00285786 45.5303 1.82887 47.3564 4.08266 47.3589H46.5424C48.7962 47.3564 50.6222 45.5303 50.625 43.2762V41.6432C50.6222 39.3894 48.7962 37.5634 46.5424 37.5605ZM44.9093 37.5605H39.1936V31.8448H44.9093V37.5605ZM36.744 24.496H42.4597V30.2117H36.744V24.496ZM31.8448 31.8448H37.5605V37.5605H31.8448V31.8448ZM48.992 43.2762C48.992 44.6292 47.895 45.7258 46.5424 45.7258H4.08266C2.73 45.7258 1.63307 44.6292 1.63307 43.2762V41.6432C1.63307 40.2905 2.73 39.1936 4.08266 39.1936H46.5424C47.895 39.1936 48.992 40.2905 48.992 41.6432V43.2762Z" fill="white"/>
<path d="M25.3125 40.0101C23.9598 40.0101 22.8629 41.107 22.8629 42.4597C22.8629 43.8127 23.9598 44.9093 25.3125 44.9093C26.6651 44.9093 27.7621 43.8127 27.7621 42.4597C27.7621 41.107 26.6651 40.0101 25.3125 40.0101ZM25.3125 43.2762C24.8615 43.2762 24.4959 42.9107 24.4959 42.4597C24.4959 42.009 24.8615 41.6432 25.3125 41.6432C25.7634 41.6432 26.129 42.009 26.129 42.4597C26.129 42.9107 25.7634 43.2762 25.3125 43.2762ZM17.1472 40.0101C15.7945 40.0101 14.6976 41.107 14.6976 42.4597C14.6976 43.8127 15.7945 44.9093 17.1472 44.9093C18.4998 44.9093 19.5967 43.8127 19.5967 42.4597C19.5967 41.107 18.4998 40.0101 17.1472 40.0101ZM17.1472 43.2762C16.6962 43.2762 16.3306 42.9107 16.3306 42.4597C16.3306 42.009 16.6962 41.6432 17.1472 41.6432C17.5981 41.6432 17.9637 42.009 17.9637 42.4597C17.9637 42.9107 17.5981 43.2762 17.1472 43.2762ZM33.4778 40.0101C32.1251 40.0101 31.0282 41.107 31.0282 42.4597C31.0282 43.8127 32.1251 44.9093 33.4778 44.9093C34.8305 44.9093 35.9274 43.8127 35.9274 42.4597C35.9274 41.107 34.8305 40.0101 33.4778 40.0101ZM33.4778 43.2762C33.0268 43.2762 32.6613 42.9107 32.6613 42.4597C32.6613 42.009 33.0268 41.6432 33.4778 41.6432C33.9288 41.6432 34.2943 42.009 34.2943 42.4597C34.2943 42.9107 33.9288 43.2762 33.4778 43.2762ZM8.98182 40.0101C7.62916 40.0101 6.53223 41.107 6.53223 42.4597C6.53223 43.8127 7.62916 44.9093 8.98182 44.9093C10.3345 44.9093 11.4314 43.8127 11.4314 42.4597C11.4314 41.107 10.3345 40.0101 8.98182 40.0101ZM8.98182 43.2762C8.53085 43.2762 8.16529 42.9107 8.16529 42.4597C8.16529 42.009 8.53085 41.6432 8.98182 41.6432C9.4328 41.6432 9.79836 42.009 9.79836 42.4597C9.79836 42.9107 9.4328 43.2762 8.98182 43.2762ZM41.6431 40.0101C40.2905 40.0101 39.1935 41.107 39.1935 42.4597C39.1935 43.8127 40.2905 44.9093 41.6431 44.9093C42.9958 44.9093 44.0927 43.8127 44.0927 42.4597C44.0927 41.107 42.9958 40.0101 41.6431 40.0101ZM41.6431 43.2762C41.1922 43.2762 40.8266 42.9107 40.8266 42.4597C40.8266 42.009 41.1922 41.6432 41.6431 41.6432C42.0941 41.6432 42.4597 42.009 42.4597 42.4597C42.4597 42.9107 42.0941 43.2762 41.6431 43.2762Z" fill="white"/>
</svg>
