<svg width="266" height="234" viewBox="0 0 266 234" fill="none" xmlns="http://www.w3.org/2000/svg">
<path d="M47.9151 228.788L34.3732 228.98L34.1738 216.202L47.6607 214.51L47.9151 228.788Z" fill="#FE9F73"/>
<path d="M61.8321 231.08L34.1812 231.094L34.1777 225.527C34.1777 225.527 36.1869 222.855 39.2514 224.217C39.2514 224.217 43.7871 227.5 47.8674 223.572L58.1076 227.964C58.1076 227.966 61.8321 229.188 61.8321 231.08Z" fill="#FF6666"/>
<path d="M34.1795 233.041L62.6484 233.027C62.8598 233.027 63.03 232.855 63.03 232.644V231.461C63.03 231.249 62.8581 231.079 62.6467 231.079L34.1777 231.093L34.1795 233.041Z" fill="#472A31"/>
<path d="M50.9141 224.873C49.9877 226.322 48.1263 229.235 46.9421 231.087L45.0566 231.089C46.1137 229.433 48.3308 225.963 49.4342 224.238L50.9141 224.873Z" fill="#D7E4F7"/>
<path d="M49.9772 231.087L48.0918 231.089C48.9529 229.742 50.6304 227.116 51.818 225.258L53.2961 225.892C52.2992 227.452 50.9174 229.617 49.9772 231.087Z" fill="#D7E4F7"/>
<path d="M23.719 120.177C24.3309 133.367 27.4418 182.669 31.9603 216.387C32.2576 218.609 34.1637 220.265 36.4049 220.232C38.8851 220.195 42.6491 220.427 46.4578 219.211C48.2985 218.623 49.5618 216.926 49.5687 214.993L50.5294 111.939C50.5312 111.689 50.5105 111.44 50.4693 111.194L50.3851 110.687C49.921 107.896 46.9975 106.247 44.3695 107.294L27.9093 113.856C26.1544 114.554 23.6314 118.289 23.719 120.177Z" fill="#99CCFF"/>
<path d="M6.81531 118.629C6.81531 118.629 1.79147 153.809 5.99032 218.388C6.11063 220.242 7.6403 221.685 9.49481 221.803C12.1193 221.97 16.1102 221.891 20.5961 220.639C22.1171 220.215 23.212 218.882 23.3288 217.307L29.7534 123.998L34.571 100.859L6.81531 118.629Z" fill="#6699CC"/>
<path d="M35.0053 230.973L7.35781 231.317L7.28906 225.75C7.28906 225.75 9.26731 223.054 12.3456 224.38C12.3456 224.38 16.9191 227.607 20.9529 223.632L31.2447 227.901C31.243 227.903 34.9812 229.081 35.0053 230.973Z" fill="#FF6666"/>
<path d="M7.40101 233.266L35.8683 232.912C36.0797 232.908 36.2481 232.736 36.2464 232.525L36.2309 231.342C36.2275 231.13 36.0556 230.962 35.8442 230.963L7.37695 231.318L7.40101 233.266Z" fill="#683D46"/>
<path d="M24.0201 224.899C23.1109 226.359 21.2839 229.294 20.122 231.161L18.2383 231.186C19.2764 229.518 21.4523 226.022 22.5351 224.283L24.0201 224.899Z" fill="#D7E4F7"/>
<path d="M23.1298 231.122L21.2461 231.146C22.09 229.789 23.7365 227.143 24.9035 225.27L26.3902 225.887C25.4088 227.461 24.0511 229.641 23.1298 231.122Z" fill="#D7E4F7"/>
<path d="M53.1858 124.126L53.3473 123.938L56.3121 78.0594C56.3121 78.0594 70.9763 90.0691 75.1064 90.6211C79.2348 91.173 98.7028 67.09 98.7028 67.09C95.8652 57.8884 88.3664 55.9934 88.3664 55.9934L72.7621 71.389L57.584 53.8181C56.7934 53.1991 53.8475 53.4965 50.6197 52.0142C45.161 51.0994 38.5285 50.3927 38.5285 50.3927C38.5285 50.3927 25.2496 48.4925 22.9138 49.7392C20.5781 50.9842 6.85919 73.6623 4.6575 84.2998C2.45753 94.939 1.27162 100.486 8.82026 102.424L10.3396 104.502L10.6816 119.282C10.6816 119.282 23.3521 125.596 53.2494 124.453L53.1858 124.126Z" fill="#FF6666"/>
<path d="M88.3622 55.9909L72.7579 71.3865L57.5815 53.8174C56.7978 53.2035 53.9138 52.5689 50.6173 52.0135L38.4332 76.5883L25.6545 49.269C20.3797 48.8597 18.8689 50.0102 17.6933 50.7135C8.59783 56.1543 4.34741 73.7097 2.14744 84.3489C-0.0525278 94.9881 0.604027 102.059 8.15268 103.997L8.45173 104.03L5.18615 120.648C5.18615 120.648 24.7178 127.081 54.615 125.938L54.7766 125.75L56.9061 79.381C56.9061 79.381 70.924 91.757 75.0524 92.309C79.1808 92.861 98.7004 67.0875 98.7004 67.0875C95.861 57.8877 88.3622 55.9909 88.3622 55.9909Z" fill="#3366FF"/>
<path d="M16.5692 88.7087L16.2891 88.2805L19.6131 85.7579L22.1241 70.5497L22.6071 70.6357L20.0617 86.0588L16.5692 88.7087Z" fill="#21111D"/>
<path d="M10.9059 104.565L8.09409 104.252C4.38852 103.301 2.15246 101.095 1.25872 97.506C0.481855 94.3935 0.689818 90.1943 1.91011 84.2943L2.38964 84.4026C-0.0973634 96.4278 1.58528 102.03 8.19894 103.738L10.9626 104.042L10.9059 104.565Z" fill="#21111D"/>
<path d="M72.5419 75.8514L72.5144 71.4939L57.8175 54.4802C56.7399 53.2335 54.454 53.0185 54.4316 53.0168L54.478 52.494C54.5812 52.5026 56.9754 52.7262 58.1802 54.1225L73.0042 71.2841L73.0334 75.8428L72.5419 75.8514Z" fill="#21111D"/>
<path d="M72.9335 71.5802L72.6035 71.1967L88.8008 56.4081L88.9297 56.4425C89.0036 56.4614 95.9163 57.8268 98.9413 67.0008L98.4789 67.1814C95.7582 58.929 89.6774 56.979 88.7063 56.6677L72.9335 71.5802Z" fill="#21111D"/>
<path d="M57.098 89.345L54.391 125.685C52.6998 125.756 41.6948 126.181 35.5967 125.579L35.5469 126.102C35.6878 126.115 35.8287 126.129 35.9748 126.141C42.6727 126.726 54.5044 126.206 54.6265 126.201L54.8465 126.191L57.6033 89.3673L57.098 89.345Z" fill="#21111D"/>
<path d="M33.0384 59.7657C30.7233 57.9085 29.1592 55.2105 28.6367 52.1668L29.1197 52.0653C29.6198 54.98 31.1186 57.5663 33.3357 59.3444L33.0384 59.7657Z" fill="#21111D"/>
<path d="M36.507 29.6076C36.507 29.6076 40.5116 28.3024 43.8356 29.7796C45.7606 30.6359 46.9139 32.6376 46.7317 34.7389L46.5529 36.7921L36.3815 31.3565C36.3815 31.3565 34.6422 32.0013 34.7968 31.7726C34.9515 31.5422 36.507 29.6076 36.507 29.6076Z" fill="#FE9F73"/>
<path d="M46.7517 34.5068L45.9972 43.1667C45.9972 43.1667 45.8563 46.2723 43.1166 46.4219L43.2627 50.5937C43.316 52.1447 42.271 53.5342 40.7585 53.8712C40.0178 54.0363 39.1447 54.1274 38.1684 54.0432C35.0764 53.7732 33.6035 51.3073 33.4471 50.1242C33.2907 48.9411 34.5471 43.4659 34.5471 43.4659L34.6897 40.7334L35.9616 30.2095L46.7517 34.5068Z" fill="#FE9F73"/>
<path d="M38.9574 37.9381C38.9248 37.9347 38.8938 37.9209 38.8715 37.8951C38.8251 37.8418 38.8302 37.7593 38.8835 37.7129C38.9024 37.6957 40.8326 36.0362 42.3382 37.4842C42.3897 37.534 42.3914 37.6148 42.3416 37.6664C42.2918 37.718 42.211 37.7197 42.1594 37.6699C40.8257 36.3888 39.1259 37.8453 39.0537 37.9072C39.0262 37.9313 38.9918 37.9416 38.9574 37.9381Z" fill="#21111D"/>
<path d="M44.3203 37.6274C44.2842 37.624 44.2498 37.6068 44.2275 37.5741C44.1862 37.5156 44.1983 37.4348 44.2567 37.3935C44.3134 37.3523 45.6334 36.4082 46.3518 37.1425C46.4017 37.1941 46.4017 37.2749 46.3501 37.3248C46.2986 37.3746 46.2178 37.3746 46.1679 37.323C45.6042 36.747 44.42 37.593 44.4097 37.6016C44.3805 37.6222 44.3495 37.6291 44.3203 37.6274Z" fill="#21111D"/>
<path d="M41.4781 38.6858C41.4592 38.899 41.2718 39.0572 41.057 39.0383C40.8439 39.0194 40.6858 38.832 40.7047 38.617C40.7236 38.4038 40.9109 38.2456 41.1257 38.2645C41.3389 38.2851 41.4953 38.4725 41.4781 38.6858Z" fill="black"/>
<path d="M45.65 38.6582C45.6311 38.8714 45.4437 39.0296 45.2289 39.0107C45.0157 38.9918 44.8576 38.8044 44.8765 38.5894C44.8954 38.3762 45.0828 38.218 45.2976 38.2369C45.5107 38.2558 45.6689 38.445 45.65 38.6582Z" fill="black"/>
<path d="M36.5232 29.4712C36.5232 29.4712 33.2645 29.0276 32.1835 31.8202C31.1041 34.6128 32.3863 36.2499 32.3399 37.1063C32.2935 37.9626 31.2124 43.67 35.2909 43.5943L37.2107 34.1778L36.1348 30.2691L36.5232 29.4712Z" fill="#21111D"/>
<path d="M38.2351 38.6677C38.5641 37.4237 37.8229 36.1484 36.5795 35.8192C35.3361 35.4901 34.0615 36.2317 33.7324 37.4757C33.4034 38.7197 34.1447 39.995 35.388 40.3242C36.6314 40.6534 37.9061 39.9117 38.2351 38.6677Z" fill="#FE9F73"/>
<path d="M35.6977 39.4787C35.2164 39.4374 34.926 39.0454 34.8521 38.6756C34.7644 38.2371 34.9432 37.833 35.311 37.6473C35.8524 37.3739 36.301 37.6181 36.5244 37.7969C36.447 37.5252 36.3078 37.3189 36.1067 37.1847C35.6719 36.8924 35.0892 37.0265 35.0824 37.0283C35.048 37.0369 35.0136 37.0145 35.005 36.9801C34.9964 36.9457 35.0188 36.9113 35.0532 36.9027C35.0789 36.8959 35.696 36.7548 36.1772 37.0764C36.4556 37.2621 36.6309 37.5648 36.6945 37.974L36.7306 38.2027L36.5811 38.0256C36.5605 37.9998 36.0552 37.4152 35.3677 37.7643C34.9878 37.9568 34.9191 38.3627 34.9775 38.6516C35.0377 38.9508 35.2646 39.3136 35.708 39.3514C35.7131 39.3514 35.7166 39.3514 35.7217 39.3532C35.7561 39.3566 35.7836 39.3876 35.7802 39.422C35.7767 39.4581 35.7458 39.4839 35.7114 39.4821C35.708 39.4787 35.7028 39.4787 35.6977 39.4787Z" fill="#F07162"/>
<path d="M37.0641 43.245C37.0641 43.245 36.7943 48.4399 43.2154 49.4975L43.1089 46.4211C43.1089 46.4211 38.843 46.8974 37.0641 43.245Z" fill="#F07162"/>
<path d="M42.625 41.415C42.5975 41.4133 42.5734 41.3926 42.5683 41.3651C42.5597 41.3307 42.582 41.2946 42.6164 41.2877L43.945 40.9731L43.8023 37.8967C43.8006 37.8606 43.8281 37.8313 43.8642 37.8296C43.9003 37.8262 43.9295 37.8554 43.9312 37.8915L44.079 41.0762L42.6456 41.415C42.6387 41.415 42.6318 41.415 42.625 41.415Z" fill="#F07162"/>
<path d="M34.3848 44.1772L35.2149 39.8507L36.2874 40.0657L35.9058 44.4369L34.3848 44.1772Z" fill="#FE9F73"/>
<path d="M37.1336 29.439C37.1336 29.439 36.2175 31.1844 37.1972 34.3158C38.1786 37.4454 34.1035 32.9108 34.1035 32.9108C34.1035 32.9108 34.7962 28.5121 37.1336 29.439Z" fill="#21111D"/>
<path d="M37.1885 34.314C37.1885 34.314 47.0884 34.5891 47.8979 32.3347C48.7057 30.0786 46.3957 29.8155 46.3957 29.8155C46.3957 29.8155 47.1159 26.5723 44.0548 27.2843C40.9938 27.9962 35.4938 27.3892 33.7029 30.0116C31.912 32.6374 37.1885 34.314 37.1885 34.314Z" fill="#21111D"/>
<path d="M36.84 35.9445L37.1081 37.7811L37.5842 37.2807C37.5842 37.2807 38.6515 34.7718 38.1789 33.4804C37.7062 32.1889 35.2227 33.7692 35.2227 33.7692L36.84 35.9445Z" fill="#21111D"/>
<path d="M33.543 48.692L38.9811 54.1827L43.2641 50.477L46.265 51.3488L42.8258 58.6382L39.0257 55.8249L34.6481 58.198L29.791 49.4538L33.543 48.692Z" fill="#EDFCFB"/>
<path d="M44.2695 42.4303C44.2317 42.4234 41.8203 42.3529 41.8203 42.3529C41.8203 42.3529 42.128 43.0545 43.0234 43.0837C43.9206 43.1113 44.2695 42.4303 44.2695 42.4303Z" fill="#FBFDFC"/>
<path d="M149.235 82.9621L85.3394 135.566C82.488 137.914 78.272 137.496 75.9363 134.633L47.1063 99.2759C44.786 96.43 45.202 92.241 48.0362 89.9075L111.932 37.3031C114.783 34.9559 119.001 35.3737 121.335 38.2369L150.165 73.5937C152.487 76.4413 152.071 80.6286 149.235 82.9621Z" fill="#7FC6A6"/>
<path d="M136.854 81.9564C140.826 78.6638 142.574 74.2174 140.758 72.025C138.943 69.8327 134.251 70.7245 130.279 74.0171C126.308 77.3096 124.56 81.756 126.375 83.9484C128.191 86.1408 132.883 85.2489 136.854 81.9564Z" fill="#5AB08A"/>
<path d="M65.8299 95.4442C65.1098 96.0409 64.0424 95.9411 63.446 95.2206C62.8496 94.5001 62.9493 93.4322 63.6695 92.8355C64.3896 92.2388 65.457 92.3386 66.0534 93.0591C66.6497 93.7796 66.5501 94.8475 65.8299 95.4442Z" fill="white"/>
<path d="M65.5757 97.47C65.6736 97.5886 65.7407 97.7382 65.7613 97.9033C65.8146 98.359 65.488 98.7734 65.0325 98.8267C63.5063 99.0073 62.0093 98.4071 61.0296 97.2258C60.1135 96.1201 59.7784 94.6275 60.1324 93.2346C60.2459 92.7892 60.6979 92.5192 61.143 92.6327C61.5882 92.7462 61.858 93.1985 61.7446 93.6439C61.5212 94.5243 61.7326 95.4666 62.3101 96.1648C62.9288 96.9111 63.8724 97.2894 64.8366 97.1759C65.1288 97.1398 65.4021 97.2602 65.5757 97.47Z" fill="white"/>
<path d="M65.8467 100.457C65.9446 100.576 66.0117 100.726 66.0323 100.891C66.0856 101.346 65.759 101.761 65.3035 101.814C62.7633 102.113 60.2728 101.118 58.6418 99.1487C57.1172 97.3087 56.5587 94.8239 57.1482 92.5041C57.2616 92.0587 57.7136 91.7888 58.1588 91.9023C58.6039 92.0157 58.8738 92.468 58.7603 92.9134C58.3014 94.719 58.7363 96.6535 59.9222 98.0859C61.1906 99.6181 63.1293 100.394 65.1076 100.162C65.3998 100.127 65.6731 100.247 65.8467 100.457Z" fill="white"/>
<path d="M130.299 67.9667L74.6139 114.133C72.835 115.608 70.1727 115.359 68.6981 113.577C67.2234 111.798 67.4726 109.134 69.2532 107.659L124.938 61.4924C126.717 60.017 129.379 60.2663 130.854 62.0478C132.329 63.8276 132.078 66.4913 130.299 67.9667Z" fill="#5AB08A"/>
<path d="M108.606 96.5398L78.6829 121.347C77.5261 122.306 75.7937 122.145 74.8346 120.986C73.8756 119.828 74.0371 118.095 75.1956 117.135L105.117 92.3285C106.274 91.3689 108.006 91.5306 108.965 92.6896C109.924 93.8469 109.763 95.5802 108.606 96.5398Z" fill="#5AB08A"/>
<path d="M97.2025 116.035L83.6125 127.302C82.4558 128.261 80.7234 128.1 79.7643 126.941C78.8053 125.783 78.9668 124.05 80.1252 123.09L93.7152 111.824C94.8719 110.864 96.6044 111.026 97.5634 112.185C98.5225 113.344 98.3592 115.075 97.2025 116.035Z" fill="#5AB08A"/>
<path d="M120.214 96.9576L106.624 108.224C105.468 109.184 103.735 109.022 102.776 107.863C101.817 106.706 101.979 104.973 103.137 104.013L116.727 92.7463C117.884 91.7868 119.616 91.9484 120.575 93.1074C121.532 94.2665 121.371 95.9981 120.214 96.9576Z" fill="#5AB08A"/>
<path d="M81.0388 137.643C79.0674 137.643 77.2215 136.768 75.9771 135.241L47.2761 100.071C47.1541 99.9217 47.1764 99.6999 47.3242 99.5761C47.3896 99.5227 47.4669 99.4952 47.5494 99.4952C47.656 99.4952 47.7556 99.5434 47.8244 99.6259L75.8499 133.966C77.3418 135.767 79.1499 136.719 81.08 136.719C82.6011 136.719 84.1497 136.1 85.5608 134.931L124.921 102.527C124.985 102.474 125.062 102.446 125.145 102.446C125.251 102.446 125.351 102.492 125.418 102.575C125.542 102.725 125.519 102.948 125.37 103.072L85.1826 136.159C84.0173 137.115 82.5461 137.643 81.0388 137.643Z" fill="black"/>
<path d="M69.9727 72.1881C69.9142 72.1881 69.8283 72.1744 69.7527 72.109C69.6719 72.0385 69.6289 71.9405 69.6289 71.8356C69.6306 71.7325 69.677 71.6344 69.7561 71.5691L112.033 36.7626C113.212 35.7927 114.699 35.2579 116.222 35.2579C118.216 35.2579 120.08 36.1435 121.339 37.686L144.416 65.9873C144.538 66.1369 144.516 66.3587 144.368 66.4825C144.302 66.5358 144.225 66.5633 144.143 66.5633C144.036 66.5633 143.936 66.5152 143.869 66.4326L121.064 38.4633C119.859 36.9844 118.073 36.1366 116.163 36.1366C114.704 36.1366 113.281 36.6474 112.152 37.5777L70.2305 72.0953C70.1566 72.1538 70.0655 72.1881 69.9727 72.1881Z" fill="black"/>
<path d="M54.0863 97.5621C56.5011 95.6499 54.1946 95.0928 54.1946 95.0928C55.3943 93.9252 55.1915 93.3147 54.8151 93.0086C54.5401 92.7851 54.174 92.73 53.8388 92.8366C52.7766 93.1737 49.5351 94.2158 47.5414 94.9948C46.1922 94.7729 46.8384 92.3569 47.5569 91.1532C47.9264 90.5324 48.0416 89.4645 46.4741 90.4137C45.1936 91.1893 43.1312 93.9303 43.1312 93.9303L35.6289 92.4893L35.7819 103.768C35.7819 103.768 44.4339 104.392 45.7367 104.496C47.0395 104.599 51.5392 103.388 52.9623 102.276C55.5455 100.255 54.0537 100.009 54.0537 100.009C56.5561 97.643 54.0863 97.5621 54.0863 97.5621Z" fill="#FE9F73"/>
<path d="M51.3014 96.6996C51.2344 96.6996 51.1742 96.6532 51.1536 96.5827C51.1278 96.495 51.1742 96.3987 51.2584 96.3712C52.422 95.974 54.1012 94.956 54.1184 94.9456C54.194 94.8992 54.2903 94.9284 54.3315 95.0075C54.3745 95.0884 54.347 95.1916 54.2697 95.238C54.1992 95.281 52.5441 96.2818 51.3495 96.691C51.3341 96.6979 51.3186 96.6996 51.3014 96.6996Z" fill="#F07162"/>
<path d="M51.2644 98.8312C51.1905 98.8312 51.1252 98.7744 51.1114 98.6936C51.0977 98.6025 51.1544 98.5148 51.2403 98.4976C52.6995 98.2121 53.9886 97.4245 54.0006 97.4159C54.0762 97.3695 54.1725 97.397 54.2154 97.4761C54.2584 97.5569 54.2309 97.6601 54.1553 97.7065C54.1003 97.7392 52.8078 98.5302 51.2919 98.8277C51.2833 98.8295 51.2747 98.8312 51.2644 98.8312Z" fill="#F07162"/>
<path d="M51.5704 101.263C51.4982 101.263 51.4329 101.208 51.4192 101.129C51.402 101.038 51.457 100.948 51.5429 100.93C52.7976 100.644 53.9422 99.8737 53.9526 99.8668C54.0265 99.817 54.1227 99.8393 54.1691 99.9184C54.2155 99.9958 54.1915 100.101 54.1193 100.151C54.0711 100.183 52.9144 100.96 51.6048 101.26C51.5927 101.263 51.5807 101.263 51.5704 101.263Z" fill="#F07162"/>
<path d="M31.6412 87.7612L39.2122 88.9495C39.2122 88.9495 40.2985 94.2888 37.5279 104.68C37.258 105.69 36.7287 107.408 36.7287 107.408C36.7287 107.408 28.9377 107.394 27.958 104.594C27.3427 102.837 29.6458 95.68 29.6458 95.68L31.6412 87.7612Z" fill="#FF6666"/>
<path d="M36.8937 107.693L10.8945 104.565L10.9547 104.042L36.562 107.123C37.0707 105.528 40.3776 94.7733 39.0181 89.1846L19.7872 86.1684L19.8646 85.649L39.4065 88.7151L39.4495 88.8768C41.0685 94.9968 37.1292 106.988 36.9607 107.495L36.8937 107.693Z" fill="#21111D"/>
<path d="M84.9317 56.3852C85.4851 55.9364 86.2121 55.9639 86.3152 56.0894L89.7286 60.2818C90.1119 60.753 90.0913 61.4546 89.6461 61.8673C89.158 62.3196 88.3983 62.2611 87.9841 61.7538L84.4848 57.4548C84.4848 57.4548 84.3782 56.834 84.9317 56.3852Z" fill="#FE9F73"/>
<path d="M86.6858 54.9769C87.2306 54.5177 87.9594 54.5315 88.0625 54.6553L91.5549 58.7806C91.9468 59.2449 91.9399 59.9448 91.5034 60.3678C91.0238 60.8304 90.2642 60.7857 89.8397 60.2853L86.2578 56.0551C86.2595 56.0551 86.1409 55.436 86.6858 54.9769Z" fill="#FE9F73"/>
<path d="M88.5647 54.1188C89.0047 53.7388 89.5994 53.7439 89.687 53.8437L92.5779 57.1797C92.9028 57.5546 92.9045 58.1272 92.5505 58.4763C92.1637 58.858 91.5416 58.8288 91.1909 58.4247L88.2261 55.0044C88.2278 55.0027 88.1247 54.4988 88.5647 54.1188Z" fill="#FE9F73"/>
<path d="M86.4412 55.9382C86.3638 55.8763 86.2521 55.8746 86.1713 55.9399C86.0803 56.0156 86.0665 56.1497 86.1421 56.2426L89.5676 60.4195C89.889 60.8133 89.8614 61.3808 89.5057 61.7109C89.3149 61.888 89.0674 61.9757 88.8096 61.9568C88.5518 61.9396 88.3198 61.8193 88.1565 61.6181L85.0353 57.7851C84.9596 57.6939 84.8256 57.6802 84.7328 57.7541C84.6417 57.8281 84.6279 57.9639 84.7018 58.0568L87.823 61.8898C88.0585 62.1787 88.4074 62.3592 88.7787 62.385C89.1568 62.4108 89.5177 62.2836 89.7961 62.0239C90.3169 61.5407 90.3616 60.7153 89.8975 60.1461L86.4721 55.9692C86.4635 55.9571 86.4532 55.9468 86.4412 55.9382Z" fill="#F07162"/>
<path d="M83.6384 58.1858C84.13 57.7886 84.7762 57.8127 84.8673 57.9244L87.8991 61.6491C88.2394 62.067 88.2223 62.6895 87.8269 63.0575C87.3938 63.4598 86.7184 63.4065 86.3506 62.956L83.2414 59.1367C83.2414 59.1367 83.1486 58.5848 83.6384 58.1858Z" fill="#FE9F73"/>
<path d="M84.9766 57.7883C84.9078 57.7333 84.8081 57.7315 84.7377 57.79C84.6569 57.8571 84.6448 57.9774 84.7119 58.0583L87.754 61.7692C88.0393 62.12 88.0153 62.6238 87.699 62.9161C87.5289 63.0726 87.3106 63.1517 87.0803 63.1345C86.8517 63.119 86.6454 63.0124 86.4994 62.8336L83.727 59.4288C83.66 59.348 83.5397 59.3359 83.4589 59.4013C83.3781 59.4683 83.3644 59.587 83.4314 59.6695L86.2037 63.0743C86.4134 63.3306 86.7228 63.4922 87.0528 63.5146C87.3879 63.5386 87.7093 63.4251 87.9568 63.1947C88.4192 62.7648 88.4587 62.0323 88.0479 61.5267L85.0041 57.8158C84.9972 57.8055 84.9869 57.7969 84.9766 57.7883Z" fill="#F07162"/>
<path d="M88.2257 54.6981C88.1467 54.6345 88.0315 54.6362 87.9524 54.705C87.8631 54.7824 87.8545 54.9182 87.9318 55.0076L91.3916 58.9817C91.7216 59.372 91.7113 59.881 91.3641 60.2146C91.1768 60.3952 90.9327 60.488 90.6732 60.4743C90.4154 60.4605 90.1816 60.3453 90.0132 60.1475L86.4314 55.9173C86.3557 55.8262 86.22 55.8159 86.1289 55.8915C86.0378 55.9689 86.0275 56.103 86.1031 56.1942L89.6849 60.4261C89.9255 60.7116 90.2779 60.8853 90.6508 60.9042C91.029 60.9231 91.3865 60.789 91.6597 60.5241C92.1685 60.0323 92.1925 59.2671 91.7147 58.7014L88.2532 54.7256C88.2446 54.7153 88.236 54.705 88.2257 54.6981Z" fill="#F07162"/>
<path d="M89.7984 53.6962C89.7296 53.6411 89.6282 53.6411 89.5578 53.7013C89.4787 53.7701 89.4701 53.8888 89.5389 53.9661L92.4298 57.3022C92.6979 57.6117 92.6893 58.0674 92.4126 58.3408C92.2648 58.487 92.0688 58.5644 91.8608 58.5558C91.6529 58.5472 91.4638 58.4577 91.328 58.2995L88.3633 54.8792C88.2962 54.8019 88.1759 54.7933 88.0986 54.8603C88.0195 54.9274 88.0109 55.0478 88.0797 55.1252L91.0445 58.5454C91.2455 58.7776 91.5395 58.9186 91.8471 58.9306C92.1599 58.9427 92.4538 58.8275 92.6772 58.6074C93.0949 58.1947 93.1121 57.512 92.7134 57.0545L89.8224 53.7185C89.8156 53.7116 89.807 53.703 89.7984 53.6962Z" fill="#F07162"/>
<path d="M98.1683 68.1079L95.0471 64.1621L96.4265 63.0709C96.7014 62.8535 96.9657 62.7217 97.2194 62.6755C97.4721 62.628 97.7051 62.6494 97.9185 62.7396C98.1308 62.8285 98.3131 62.9693 98.4655 63.1619C98.5997 63.3315 98.6802 63.4953 98.7072 63.6536C98.7355 63.8108 98.7263 63.9601 98.6794 64.1015C98.6339 64.2419 98.5668 64.3723 98.4782 64.4925L98.5087 64.531C98.6355 64.4432 98.7904 64.3896 98.9734 64.3701C99.1564 64.3507 99.3459 64.3804 99.5418 64.4592C99.7378 64.538 99.9181 64.6815 100.083 64.8896C100.239 65.0874 100.335 65.3008 100.37 65.5299C100.405 65.759 100.362 65.9965 100.241 66.2424C100.121 66.4883 99.9048 66.7342 99.594 66.9801L98.1683 68.1079ZM98.3108 67.3061L99.2587 66.5562C99.5708 66.3093 99.7446 66.0737 99.7801 65.8493C99.8159 65.6227 99.7652 65.4226 99.628 65.2492C99.5224 65.1157 99.3908 65.0193 99.2333 64.9601C99.0748 64.8996 98.9057 64.8851 98.726 64.9166C98.5453 64.9469 98.3688 65.03 98.1967 65.1662L97.2257 65.9343L98.3108 67.3061ZM96.8965 65.5181L97.7828 64.8171C97.9266 64.7033 98.034 64.5724 98.1049 64.4245C98.1771 64.2755 98.2065 64.1227 98.1933 63.9661C98.1814 63.8085 98.1206 63.6603 98.0109 63.5216C97.8737 63.3482 97.697 63.2489 97.4808 63.2236C97.2635 63.1971 97.0239 63.2875 96.7618 63.4948L95.8602 64.208L96.8965 65.5181ZM102.561 64.7459C102.373 64.8942 102.175 64.9935 101.967 65.0438C101.757 65.0928 101.554 65.0854 101.357 65.0216C101.159 64.9566 100.984 64.8278 100.832 64.6351C100.698 64.4656 100.623 64.3017 100.606 64.1436C100.589 63.9841 100.612 63.83 100.676 63.6813C100.74 63.5325 100.828 63.39 100.939 63.2538C101.051 63.1153 101.168 62.9826 101.291 62.856C101.453 62.6906 101.585 62.5579 101.688 62.458C101.791 62.3557 101.856 62.2695 101.884 62.1993C101.913 62.1281 101.899 62.0559 101.841 61.9827L101.829 61.9673C101.679 61.7772 101.51 61.6706 101.322 61.6476C101.136 61.6236 100.939 61.6944 100.729 61.86C100.512 62.0317 100.379 62.2138 100.331 62.4064C100.283 62.599 100.277 62.769 100.312 62.9166L99.7586 63.1038C99.6934 62.863 99.6854 62.6417 99.7346 62.44C99.7841 62.2359 99.8695 62.0535 99.9908 61.8927C100.112 61.7297 100.248 61.5893 100.397 61.4714C100.492 61.3962 100.61 61.3214 100.752 61.247C100.894 61.1703 101.05 61.1209 101.22 61.0988C101.392 61.0757 101.572 61.1037 101.76 61.1827C101.947 61.2618 102.134 61.4188 102.32 61.6539L103.862 63.6036L103.408 63.9633L103.091 63.5626L103.068 63.5808C103.088 63.6694 103.091 63.7788 103.077 63.9089C103.063 64.039 103.016 64.177 102.937 64.3229C102.859 64.4687 102.733 64.6098 102.561 64.7459ZM102.307 64.2826C102.487 64.1403 102.611 63.9851 102.678 63.817C102.747 63.6478 102.768 63.4824 102.743 63.3209C102.719 63.1583 102.658 63.0154 102.56 62.8921L102.231 62.4759C102.23 62.5143 102.205 62.569 102.154 62.6401C102.104 62.7089 102.043 62.7839 101.969 62.865C101.896 62.9439 101.823 63.02 101.752 63.0933C101.68 63.1642 101.623 63.2222 101.579 63.2673C101.473 63.3762 101.383 63.4886 101.307 63.6045C101.232 63.7182 101.19 63.834 101.181 63.9518C101.172 64.0674 101.214 64.183 101.305 64.2986C101.43 64.4565 101.583 64.5298 101.764 64.5182C101.945 64.5044 102.126 64.4258 102.307 64.2826ZM103.739 60.8073L105.147 62.5875L104.692 62.9472L102.351 59.9878L102.791 59.6404L103.157 60.1028L103.195 60.0723C103.146 59.8671 103.155 59.6631 103.224 59.4601C103.293 59.2559 103.438 59.0654 103.662 58.8886C103.862 58.7301 104.07 58.6325 104.285 58.5958C104.5 58.5579 104.714 58.5887 104.929 58.6884C105.142 58.7867 105.349 58.9618 105.548 59.2135L107.035 61.0939L106.58 61.4536L105.117 59.604C104.934 59.3716 104.73 59.2382 104.507 59.204C104.282 59.1685 104.065 59.234 103.854 59.4007C103.709 59.5155 103.604 59.6496 103.54 59.8029C103.476 59.9553 103.46 60.1177 103.49 60.2903C103.52 60.4628 103.603 60.6352 103.739 60.8073ZM107.436 59.0225L106.984 58.466L107.076 58.3929L107.328 56.0509L107.891 55.6059L107.615 58.092L107.576 58.1225L107.436 59.0225ZM107.866 60.4367L104.745 56.491L105.2 56.1313L108.321 60.077L107.866 60.4367ZM109.746 58.9493L107.432 58.3994L107.506 57.8274L110.324 58.4921L109.746 58.9493ZM111.39 54.7554L112.798 56.5356L112.343 56.8953L110.002 53.9359L110.441 53.5885L110.807 54.0509L110.846 54.0204C110.796 53.8152 110.806 53.6112 110.875 53.4082C110.943 53.204 111.089 53.0135 111.313 52.8367C111.513 52.6782 111.721 52.5806 111.936 52.5439C112.15 52.506 112.365 52.5368 112.579 52.6365C112.793 52.7349 112.999 52.9099 113.198 53.1617L114.686 55.0421L114.231 55.4017L112.768 53.5522C112.584 53.3197 112.381 53.1863 112.157 53.1521C111.933 53.1166 111.715 53.1822 111.505 53.3488C111.36 53.4636 111.255 53.5977 111.19 53.751C111.127 53.9034 111.11 54.0658 111.14 54.2384C111.17 54.4109 111.253 54.5833 111.39 54.7554ZM116.442 53.7653C116.255 53.9137 116.057 54.013 115.848 54.0632C115.638 54.1122 115.435 54.1048 115.239 54.0411C115.041 53.9761 114.866 53.8472 114.714 53.6545C114.579 53.485 114.504 53.3211 114.488 53.163C114.47 53.0036 114.493 52.8495 114.557 52.7007C114.621 52.5519 114.709 52.4094 114.82 52.2732C114.932 52.1347 115.05 52.0021 115.173 51.8754C115.334 51.71 115.467 51.5774 115.569 51.4774C115.672 51.3752 115.737 51.2889 115.765 51.2188C115.795 51.1476 115.78 51.0754 115.723 51.0021L115.71 50.9867C115.56 50.7966 115.391 50.6901 115.204 50.667C115.018 50.643 114.82 50.7138 114.611 50.8794C114.394 51.0511 114.261 51.2333 114.213 51.4258C114.165 51.6184 114.158 51.7885 114.194 51.936L113.64 52.1232C113.575 51.8825 113.567 51.6612 113.616 51.4594C113.666 51.2553 113.751 51.0729 113.872 50.9122C113.994 50.7491 114.129 50.6087 114.278 50.4909C114.373 50.4157 114.492 50.3409 114.633 50.2664C114.775 50.1897 114.931 50.1403 115.102 50.1182C115.273 50.0951 115.453 50.1231 115.641 50.2022C115.829 50.2812 116.016 50.4383 116.202 50.6733L117.744 52.6231L117.289 52.9827L116.972 52.582L116.949 52.6003C116.969 52.6889 116.972 52.7982 116.958 52.9284C116.944 53.0585 116.898 53.1964 116.819 53.3423C116.74 53.4882 116.615 53.6292 116.442 53.7653ZM116.189 53.302C116.369 53.1598 116.492 53.0046 116.56 52.8364C116.628 52.6672 116.65 52.5018 116.624 52.3403C116.6 52.1777 116.539 52.0348 116.442 51.9115L116.113 51.4954C116.112 51.5337 116.086 51.5884 116.036 51.6595C115.986 51.7283 115.924 51.8033 115.85 51.8845C115.777 51.9634 115.705 52.0394 115.633 52.1127C115.562 52.1837 115.504 52.2417 115.461 52.2867C115.355 52.3956 115.264 52.508 115.189 52.624C115.114 52.7376 115.072 52.8534 115.063 52.9713C115.054 53.0868 115.095 53.2024 115.187 53.318C115.311 53.476 115.464 53.5492 115.645 53.5377C115.826 53.5238 116.008 53.4453 116.189 53.302ZM118.574 51.9666L116.233 49.0073L116.672 48.6598L117.038 49.1222L117.076 49.0917C117.013 48.885 117.016 48.6835 117.084 48.4875C117.151 48.2902 117.281 48.1153 117.474 47.9629C117.669 47.8084 117.867 47.7242 118.067 47.7102C118.267 47.694 118.466 47.7358 118.664 47.8359L118.695 47.8115C118.65 47.5987 118.667 47.3874 118.748 47.1776C118.827 46.9666 118.973 46.7772 119.185 46.6096C119.449 46.4003 119.731 46.3119 120.031 46.3445C120.329 46.3758 120.616 46.5655 120.891 46.9136L122.458 48.8942L122.003 49.2538L120.437 47.2732C120.264 47.0549 120.081 46.9461 119.887 46.9468C119.693 46.9475 119.516 47.0119 119.354 47.1399C119.146 47.3045 119.034 47.495 119.02 47.7113C119.004 47.9263 119.072 48.1295 119.223 48.3209L120.747 50.2475L120.285 50.6133L118.681 48.5864C118.548 48.4182 118.387 48.3258 118.196 48.3095C118.005 48.2918 117.823 48.351 117.651 48.4872C117.533 48.5806 117.447 48.6995 117.394 48.8437C117.342 48.9869 117.329 49.1393 117.355 49.3008C117.38 49.46 117.451 49.6122 117.565 49.7573L119.029 51.6069L118.574 51.9666ZM124.579 47.3167C124.294 47.5423 123.998 47.6739 123.692 47.7116C123.385 47.747 123.087 47.6953 122.795 47.5563C122.504 47.4151 122.238 47.1929 121.998 46.8897C121.759 46.5866 121.603 46.2758 121.53 45.9572C121.458 45.6363 121.47 45.3323 121.567 45.0451C121.663 44.7556 121.845 44.5051 122.112 44.2938C122.267 44.1719 122.439 44.0772 122.63 44.0097C122.821 43.9422 123.024 43.9175 123.238 43.9355C123.452 43.9523 123.67 44.0261 123.893 44.157C124.116 44.2879 124.336 44.4915 124.554 44.7676L124.707 44.9603L122.426 46.7647L122.115 46.3717L123.934 44.933C123.801 44.766 123.65 44.6435 123.48 44.5653C123.311 44.4861 123.135 44.4569 122.953 44.4776C122.772 44.4973 122.6 44.5722 122.436 44.7023C122.254 44.8455 122.133 45.0144 122.072 45.209C122.011 45.4012 122.002 45.5966 122.044 45.795C122.086 45.9935 122.172 46.1743 122.301 46.3374L122.508 46.5994C122.685 46.8229 122.873 46.9819 123.073 47.0763C123.273 47.1685 123.475 47.2002 123.678 47.1714C123.879 47.1413 124.072 47.0536 124.256 46.9083C124.375 46.8138 124.47 46.7118 124.54 46.6022C124.61 46.4903 124.653 46.3723 124.67 46.2484C124.686 46.1231 124.673 45.9939 124.63 45.8607L125.167 45.6365C125.238 45.8221 125.264 46.0145 125.244 46.2139C125.224 46.412 125.158 46.6061 125.047 46.796C124.935 46.9847 124.779 47.1582 124.579 47.3167Z" fill="black"/>
<path d="M74.8901 105.534L78.0908 109.415L77.6208 109.803L74.8265 106.414L74.8037 106.433L74.375 107.844L73.9811 107.366L74.4201 105.922L74.8901 105.534ZM79.2071 108.495L78.9258 108.154L79.0504 105.695C79.0653 105.407 79.0714 105.162 79.0687 104.96C79.0649 104.758 79.0421 104.583 79.0003 104.437C78.9587 104.289 78.889 104.155 78.791 104.037C78.6785 103.9 78.5482 103.809 78.4002 103.764C78.2535 103.717 78.1015 103.713 77.9442 103.751C77.787 103.79 77.6382 103.867 77.498 103.982C77.3489 104.105 77.2443 104.243 77.1842 104.397C77.1242 104.548 77.1093 104.704 77.1393 104.864C77.1705 105.023 77.2471 105.176 77.369 105.324L76.9218 105.693C76.7342 105.465 76.622 105.222 76.5852 104.964C76.5484 104.706 76.5807 104.454 76.6822 104.209C76.785 103.963 76.9494 103.747 77.1756 103.56C77.403 103.373 77.6441 103.255 77.8989 103.206C78.1537 103.157 78.3982 103.173 78.6325 103.254C78.8667 103.334 79.0661 103.474 79.2307 103.674C79.3484 103.817 79.4377 103.978 79.4984 104.157C79.5593 104.334 79.5954 104.558 79.6066 104.829C79.618 105.097 79.611 105.443 79.5855 105.865L79.4826 107.516L79.5076 107.547L81.3119 106.059L81.6557 106.476L79.2071 108.495ZM83.7936 104.802C83.5435 105.008 83.2851 105.149 83.0184 105.225C82.7529 105.299 82.4997 105.308 82.2587 105.249C82.0178 105.189 81.8085 105.061 81.6307 104.866L82.1082 104.472C82.2215 104.589 82.3535 104.662 82.5044 104.69C82.6541 104.717 82.8106 104.705 82.9738 104.653C83.137 104.602 83.2932 104.514 83.4422 104.391C83.609 104.254 83.7329 104.103 83.8138 103.938C83.8948 103.774 83.9292 103.61 83.917 103.446C83.9049 103.282 83.8425 103.131 83.73 102.995C83.6123 102.852 83.4732 102.756 83.3129 102.705C83.1515 102.654 82.977 102.653 82.7895 102.704C82.602 102.755 82.4097 102.861 82.2126 103.024L81.9018 103.28L81.558 102.863L81.8688 102.607C82.0229 102.48 82.1352 102.34 82.2056 102.189C82.2772 102.036 82.3042 101.883 82.2866 101.727C82.2702 101.571 82.2057 101.425 82.0932 101.288C81.9849 101.157 81.8615 101.066 81.7232 101.017C81.5848 100.968 81.4402 100.96 81.2893 100.993C81.1396 101.025 80.9934 101.1 80.8506 101.218C80.7167 101.328 80.6106 101.457 80.5325 101.604C80.4546 101.749 80.4164 101.898 80.4179 102.052C80.4184 102.204 80.4686 102.348 80.5686 102.482L80.1137 102.857C79.9535 102.647 79.8679 102.418 79.8568 102.171C79.8447 101.922 79.8961 101.678 80.0109 101.439C80.1271 101.199 80.297 100.986 80.5206 100.802C80.7607 100.604 81.0067 100.483 81.2588 100.438C81.5098 100.393 81.7465 100.411 81.969 100.493C82.1915 100.575 82.3782 100.707 82.5293 100.89C82.7096 101.109 82.8058 101.343 82.8179 101.592C82.8313 101.84 82.7646 102.074 82.6177 102.295L82.6427 102.325C82.9211 102.163 83.1985 102.11 83.4748 102.164C83.7501 102.217 83.9893 102.367 84.1924 102.614C84.3664 102.825 84.4652 103.062 84.4888 103.324C84.5126 103.585 84.4656 103.845 84.3477 104.103C84.2297 104.362 84.0451 104.595 83.7936 104.802ZM85.0891 102.307L84.7703 101.921L84.2505 97.8153L84.531 97.584L85.0249 98.1829L84.8354 98.3392L85.2282 101.441L85.2532 101.471L87.5502 99.5773L87.894 99.9942L85.0891 102.307ZM87.5725 101.597L86.8192 100.683L86.6707 100.503L84.3718 97.7153L84.8191 97.3464L88.0198 101.228L87.5725 101.597ZM92.0183 98.0196C91.796 98.203 91.5592 98.3239 91.3082 98.3824C91.0571 98.4409 90.8143 98.4373 90.5798 98.3717C90.3453 98.3061 90.1417 98.179 89.9691 97.9902L90.4239 97.6151C90.5864 97.7761 90.7858 97.8558 91.0222 97.8541C91.2587 97.8501 91.4761 97.7663 91.6745 97.6027C91.8337 97.4714 91.9445 97.3175 92.0068 97.1408C92.0704 96.9631 92.084 96.78 92.0474 96.5915C92.0111 96.4008 91.9247 96.2226 91.7882 96.0571C91.6486 95.8878 91.4868 95.7675 91.3028 95.6963C91.1191 95.6228 90.931 95.6007 90.7386 95.6299C90.5462 95.6591 90.3667 95.7413 90.2001 95.8765C90.0803 95.9732 89.9735 96.0921 89.8797 96.2331C89.7848 96.3729 89.7209 96.5052 89.688 96.63L89.2045 96.9395L87.8642 94.8354L89.8807 93.1725L90.2245 93.5895L88.6022 94.9272L89.4097 96.1845L89.4325 96.1657C89.46 96.0369 89.5165 95.9022 89.6022 95.7615C89.6878 95.6208 89.7957 95.4968 89.9259 95.3895C90.1634 95.1936 90.4219 95.076 90.7014 95.0365C90.9811 94.9948 91.2548 95.028 91.5224 95.1364C91.7913 95.2436 92.0294 95.423 92.2368 95.6744C92.441 95.9221 92.5677 96.189 92.617 96.4753C92.6665 96.7592 92.6409 97.0371 92.5403 97.309C92.4387 97.5796 92.2647 97.8165 92.0183 98.0196ZM95.3411 95.2796C95.1798 95.4084 94.9956 95.5093 94.7885 95.5825C94.5814 95.6556 94.3553 95.6775 94.1104 95.6482C93.8643 95.6175 93.6041 95.5169 93.3297 95.3463C93.0542 95.1744 92.7685 94.909 92.4726 94.5502C92.1892 94.2065 91.9704 93.8755 91.816 93.557C91.6606 93.2373 91.5692 92.9359 91.5417 92.6529C91.5132 92.3687 91.5464 92.1078 91.6413 91.8703C91.7376 91.6317 91.895 91.4223 92.1135 91.2421C92.3309 91.0629 92.5601 90.9471 92.8013 90.8946C93.0427 90.8399 93.2807 90.8453 93.5152 90.9109C93.7497 90.9765 93.9656 91.0967 94.1628 91.2715L93.7004 91.6529C93.5136 91.5139 93.311 91.438 93.0923 91.4252C92.8737 91.4123 92.662 91.4902 92.4574 91.659C92.1567 91.907 92.0276 92.2331 92.0702 92.6374C92.114 93.0406 92.3301 93.479 92.7185 93.9526L92.7489 93.9276C92.731 93.7619 92.7395 93.601 92.7743 93.445C92.8093 93.2866 92.869 93.1376 92.9534 92.998C93.0378 92.8584 93.1463 92.7339 93.2789 92.6245C93.5013 92.4411 93.7506 92.3289 94.0267 92.288C94.3018 92.2458 94.5752 92.2762 94.8468 92.379C95.1174 92.4807 95.3559 92.6566 95.5622 92.9067C95.7601 93.1468 95.8877 93.4109 95.945 93.6991C96.0011 93.986 95.9804 94.2685 95.8827 94.5464C95.7853 94.8221 95.6047 95.0665 95.3411 95.2796ZM94.9973 94.8627C95.1565 94.7314 95.2664 94.5738 95.3271 94.3901C95.3891 94.2052 95.4015 94.0156 95.3643 93.8213C95.3284 93.6259 95.2428 93.4461 95.1073 93.2818C94.975 93.1213 94.8187 93.0051 94.6383 92.9331C94.4581 92.8588 94.2732 92.834 94.0835 92.8588C93.8951 92.8826 93.7213 92.9601 93.5621 93.0914C93.4421 93.1904 93.3501 93.3066 93.2861 93.44C93.221 93.5722 93.1832 93.7117 93.1726 93.8584C93.1632 94.0041 93.1802 94.1482 93.2235 94.2908C93.2657 94.4322 93.3348 94.5609 93.4306 94.6772C93.5578 94.8313 93.7125 94.9457 93.895 95.0202C94.0787 95.0937 94.2676 95.1194 94.4617 95.0974C94.657 95.0743 94.8355 94.996 94.9973 94.8627ZM97.4602 93.443L96.3644 88.5773L96.3394 88.547L94.338 90.1973L93.9942 89.7804L96.4807 87.7299L96.8433 88.1696L97.953 93.0366L97.4602 93.443ZM101.597 90.1211C101.336 90.3357 101.068 90.4792 100.793 90.5516C100.517 90.6217 100.257 90.6211 100.011 90.5498C99.7645 90.4772 99.5554 90.3355 99.3837 90.1248C99.247 89.9615 99.1542 89.7834 99.1052 89.5902C99.0553 89.3958 99.0486 89.2049 99.0852 89.0177C99.1221 88.8281 99.2008 88.6623 99.3215 88.5204L99.3027 88.4976C99.0774 88.6028 98.8436 88.6204 98.6014 88.5506C98.3581 88.4795 98.1522 88.3405 97.9836 88.1335C97.8198 87.9375 97.7244 87.7201 97.6973 87.4813C97.6702 87.2425 97.7082 87.0054 97.8111 86.7698C97.9152 86.5332 98.081 86.3211 98.3085 86.1336C98.5334 85.9481 98.7712 85.8273 99.0221 85.7712C99.273 85.715 99.513 85.7229 99.7422 85.795C99.9727 85.866 100.17 85.9996 100.334 86.1956C100.502 86.4026 100.598 86.6328 100.62 86.8862C100.642 87.1373 100.582 87.3619 100.44 87.5599L100.459 87.5827C100.62 87.4923 100.796 87.4481 100.986 87.4501C101.176 87.4509 101.362 87.4938 101.544 87.5788C101.726 87.6626 101.885 87.7861 102.022 87.9493C102.193 88.1601 102.291 88.3939 102.314 88.6509C102.337 88.9056 102.288 89.1615 102.167 89.4185C102.046 89.6733 101.856 89.9075 101.597 90.1211ZM101.253 89.7041C101.428 89.5593 101.557 89.4059 101.637 89.2438C101.718 89.0817 101.75 88.9202 101.735 88.7593C101.719 88.5984 101.654 88.4479 101.541 88.3079C101.418 88.1624 101.274 88.0641 101.107 88.0131C100.939 87.9622 100.765 87.9576 100.583 87.9994C100.402 88.0402 100.229 88.1283 100.065 88.2638C99.8996 88.4003 99.7783 88.5544 99.7013 88.7261C99.6256 88.8969 99.5968 89.0692 99.615 89.2431C99.6344 89.416 99.7052 89.5752 99.8273 89.7207C99.9407 89.8607 100.074 89.9544 100.228 90.0017C100.383 90.048 100.548 90.0465 100.724 89.9971C100.9 89.9476 101.076 89.85 101.253 89.7041ZM99.7338 87.862C99.8728 87.7474 99.973 87.618 100.035 87.4739C100.097 87.3287 100.119 87.1806 100.098 87.0298C100.078 86.8789 100.013 86.736 99.9038 86.601C99.7942 86.4707 99.669 86.3818 99.5281 86.3346C99.3862 86.286 99.2396 86.2795 99.0885 86.315C98.9363 86.3492 98.7888 86.4252 98.646 86.5429C98.5007 86.6628 98.3962 86.7946 98.3323 86.9386C98.2674 87.0812 98.2459 87.2263 98.2678 87.3738C98.2886 87.5201 98.3539 87.6584 98.4635 87.7888C98.5727 87.9237 98.6987 88.0161 98.8417 88.0659C98.9859 88.1147 99.1353 88.1221 99.2898 88.0881C99.4443 88.054 99.5923 87.9787 99.7338 87.862ZM103.091 82.1902C103.251 82.0601 103.435 81.9592 103.643 81.8873C103.851 81.8154 104.078 81.7941 104.323 81.8235C104.567 81.8516 104.826 81.951 105.1 82.1216C105.375 82.2922 105.659 82.5557 105.953 82.912C106.237 83.2569 106.457 83.5904 106.612 83.9124C106.768 84.2321 106.86 84.5341 106.888 84.8184C106.918 85.1016 106.885 85.3625 106.788 85.6011C106.693 85.8386 106.537 86.0474 106.318 86.2277C106.101 86.4069 105.871 86.5238 105.63 86.5786C105.389 86.631 105.15 86.625 104.915 86.5604C104.679 86.4936 104.462 86.3703 104.263 86.1906L104.725 85.8093C104.914 85.9531 105.118 86.032 105.337 86.0462C105.557 86.058 105.77 85.9795 105.974 85.8107C106.274 85.5638 106.402 85.2382 106.36 84.8339C106.318 84.4286 106.101 83.9872 105.707 83.5096L105.677 83.5346C105.693 83.699 105.685 83.8599 105.651 84.0172C105.617 84.1745 105.558 84.323 105.474 84.4626C105.39 84.6023 105.28 84.7273 105.146 84.8377C104.924 85.0211 104.675 85.1344 104.398 85.1776C104.122 85.2186 103.849 85.1882 103.578 85.0866C103.308 84.9827 103.069 84.8056 102.863 84.5555C102.667 84.3179 102.541 84.0568 102.485 83.7722C102.429 83.4853 102.449 83.2034 102.545 82.9265C102.643 82.6485 102.825 82.4031 103.091 82.1902ZM103.434 82.6071C103.275 82.7384 103.165 82.8964 103.103 83.0813C103.041 83.2638 103.028 83.4528 103.064 83.6482C103.1 83.8412 103.185 84.0187 103.318 84.1804C103.451 84.3421 103.608 84.4601 103.788 84.5344C103.969 84.6065 104.153 84.6306 104.341 84.6068C104.53 84.5807 104.704 84.5021 104.863 84.3708C104.983 84.2718 105.076 84.1562 105.141 84.024C105.205 83.8906 105.242 83.751 105.251 83.6053C105.26 83.4574 105.244 83.3127 105.202 83.1714C105.159 83.0288 105.09 82.9 104.995 82.785C104.87 82.6334 104.716 82.5215 104.533 82.4492C104.352 82.3759 104.163 82.3509 103.968 82.374C103.774 82.396 103.596 82.4737 103.434 82.6071ZM106.594 79.3907L109.794 83.272L109.324 83.6596L106.53 80.271L106.507 80.2898L106.078 81.7004L105.685 81.2228L106.123 79.7782L106.594 79.3907ZM112.22 81.3606C111.935 81.5961 111.627 81.7189 111.298 81.7292C110.968 81.7382 110.628 81.638 110.277 81.4286C109.925 81.2179 109.575 80.9016 109.227 80.4796C108.881 80.0601 108.639 79.6582 108.5 79.2737C108.361 78.887 108.328 78.5325 108.4 78.2101C108.472 77.8855 108.649 77.6065 108.932 77.3731C109.215 77.1397 109.522 77.0192 109.853 77.0115C110.185 77.0014 110.526 77.1017 110.878 77.3124C111.231 77.5207 111.58 77.8347 111.925 78.2541C112.273 78.6761 112.517 79.08 112.657 79.4657C112.796 79.8501 112.829 80.2035 112.758 80.5258C112.685 80.8469 112.506 81.1252 112.22 81.3606ZM111.876 80.9437C112.159 80.7103 112.267 80.3925 112.198 79.9904C112.13 79.5883 111.887 79.1346 111.471 78.6292C111.194 78.2931 110.922 78.0366 110.655 77.8598C110.389 77.6818 110.138 77.5862 109.902 77.5728C109.667 77.5584 109.457 77.6283 109.27 77.7825C108.989 78.0138 108.884 78.3329 108.954 78.7398C109.023 79.1455 109.266 79.6004 109.682 80.1045C109.959 80.4406 110.23 80.697 110.494 80.8736C110.759 81.0503 111.008 81.1452 111.242 81.1584C111.477 81.1705 111.688 81.0989 111.876 80.9437ZM112.41 74.5943L115.611 78.4757L115.141 78.8633L112.346 75.4747L112.323 75.4934L111.895 76.904L111.501 76.4265L111.94 74.9819L112.41 74.5943ZM116.392 71.3108L119.592 75.1922L119.122 75.5798L116.328 72.1912L116.305 72.2099L115.877 73.6205L115.483 73.1429L115.922 71.6984L116.392 71.3108ZM120.709 74.2717L120.427 73.9305L120.552 71.4716C120.567 71.1834 120.573 70.9385 120.57 70.737C120.566 70.5342 120.544 70.3598 120.502 70.2139C120.46 70.0656 120.391 69.9321 120.293 69.8134C120.18 69.6769 120.05 69.5859 119.902 69.5402C119.755 69.4936 119.603 69.4894 119.446 69.5278C119.289 69.5662 119.14 69.6432 119 69.7589C118.85 69.8818 118.746 70.0201 118.686 70.1737C118.626 70.325 118.611 70.4806 118.641 70.6405C118.672 70.7994 118.749 70.9528 118.871 71.1006L118.423 71.4694C118.236 71.242 118.124 70.9992 118.087 70.7408C118.05 70.4825 118.082 70.2309 118.184 69.9859C118.287 69.7398 118.451 69.5235 118.677 69.337C118.905 69.1495 119.146 69.0313 119.4 68.9825C119.655 68.9337 119.9 68.9497 120.134 69.0303C120.368 69.111 120.568 69.2512 120.732 69.4508C120.85 69.5936 120.939 69.7545 121 69.9337C121.061 70.1106 121.097 70.3345 121.108 70.6055C121.12 70.8741 121.113 71.2195 121.087 71.6417L120.984 73.293L121.009 73.3234L122.813 71.8356L123.157 72.2525L120.709 74.2717ZM122.104 66.6004L125.304 70.4818L124.834 70.8694L122.04 67.4808L122.017 67.4995L121.589 68.9102L121.195 68.4326L121.634 66.988L122.104 66.6004Z" fill="black"/>
<path d="M82.2088 114.659L81.8347 114.968C81.7239 114.878 81.6073 114.816 81.4848 114.78C81.3634 114.743 81.2406 114.73 81.1166 114.739C80.9928 114.746 80.872 114.775 80.7543 114.825C80.6365 114.875 80.5264 114.942 80.4238 115.026C80.2368 115.181 80.1064 115.368 80.0325 115.587C79.9596 115.806 79.9543 116.044 80.0165 116.302C80.0798 116.559 80.2217 116.821 80.4422 117.089C80.6628 117.356 80.8931 117.546 81.1333 117.657C81.3745 117.767 81.6095 117.807 81.8383 117.777C82.068 117.746 82.2764 117.654 82.4634 117.5C82.566 117.415 82.6529 117.32 82.7242 117.214C82.7955 117.108 82.847 116.995 82.8789 116.876C82.9108 116.755 82.9204 116.631 82.9075 116.505C82.8949 116.377 82.8556 116.251 82.7899 116.126L83.1639 115.817C83.2659 115.999 83.3311 116.182 83.3595 116.368C83.3879 116.554 83.3829 116.736 83.3444 116.915C83.3051 117.093 83.2353 117.261 83.1348 117.42C83.0354 117.578 82.9078 117.721 82.7519 117.85C82.4885 118.067 82.2012 118.196 81.89 118.236C81.5787 118.277 81.2665 118.227 80.9532 118.086C80.6399 117.946 80.3489 117.713 80.0803 117.387C79.8117 117.062 79.6383 116.732 79.5603 116.397C79.4823 116.063 79.4927 115.747 79.5917 115.449C79.6907 115.151 79.8719 114.894 80.1353 114.677C80.2912 114.548 80.4561 114.45 80.6301 114.383C80.8052 114.314 80.9841 114.278 81.1668 114.274C81.3487 114.27 81.5283 114.299 81.7055 114.362C81.8819 114.425 82.0496 114.524 82.2088 114.659ZM85.2424 115.816C85.0956 115.937 84.9396 116.019 84.7743 116.063C84.6083 116.105 84.4465 116.103 84.2891 116.055C84.1308 116.007 83.9895 115.907 83.8651 115.756C83.7557 115.623 83.6931 115.494 83.6774 115.369C83.6609 115.242 83.6769 115.119 83.7254 115C83.7739 114.88 83.8414 114.766 83.9279 114.655C84.0145 114.543 84.1059 114.436 84.2018 114.333C84.3277 114.199 84.4306 114.091 84.5106 114.01C84.5908 113.927 84.6415 113.857 84.6626 113.801C84.6848 113.744 84.6722 113.687 84.6249 113.63L84.615 113.617C84.4923 113.469 84.3562 113.387 84.2068 113.371C84.0584 113.355 83.9022 113.415 83.7383 113.55C83.5684 113.69 83.4659 113.837 83.4307 113.991C83.3956 114.145 83.3932 114.28 83.4236 114.397L82.9863 114.555C82.9306 114.365 82.9206 114.189 82.9565 114.027C82.9925 113.864 83.0575 113.718 83.1515 113.588C83.2456 113.456 83.351 113.342 83.4676 113.246C83.542 113.185 83.6349 113.123 83.7464 113.062C83.858 112.999 83.9814 112.957 84.1167 112.936C84.253 112.915 84.3964 112.935 84.5471 112.994C84.6978 113.054 84.849 113.176 85.0008 113.36L86.2593 114.886L85.9034 115.18L85.6447 114.866L85.6266 114.881C85.644 114.951 85.6481 115.038 85.6391 115.142C85.63 115.246 85.5953 115.356 85.535 115.474C85.4746 115.591 85.3771 115.705 85.2424 115.816ZM85.033 115.452C85.1738 115.336 85.2696 115.21 85.3205 115.075C85.3725 114.94 85.387 114.808 85.3641 114.68C85.3423 114.551 85.2915 114.438 85.2119 114.341L84.9433 114.016C84.9432 114.046 84.9237 114.09 84.8848 114.147C84.8462 114.203 84.7982 114.264 84.741 114.329C84.6839 114.393 84.6275 114.455 84.5718 114.515C84.5163 114.572 84.4715 114.619 84.4374 114.656C84.3549 114.744 84.2846 114.835 84.2266 114.928C84.1687 115.02 84.1371 115.113 84.1318 115.207C84.1266 115.299 84.1613 115.39 84.236 115.481C84.3379 115.604 84.4608 115.66 84.6045 115.648C84.7484 115.634 84.8913 115.569 85.033 115.452ZM86.909 114.351L84.9987 112.034L85.3426 111.751L85.6311 112.101L85.6552 112.081C85.6029 111.931 85.6027 111.775 85.6544 111.613C85.7061 111.45 85.8014 111.312 85.9401 111.197C85.9663 111.176 85.9993 111.149 86.0394 111.118C86.0794 111.086 86.1103 111.064 86.1321 111.049L86.4306 111.411C86.416 111.418 86.3846 111.436 86.3364 111.466C86.2884 111.493 86.2408 111.527 86.1935 111.566C86.0809 111.659 85.9998 111.765 85.9503 111.885C85.901 112.004 85.8847 112.125 85.9014 112.25C85.9183 112.373 85.9698 112.487 86.0561 112.591L87.2649 114.057L86.909 114.351ZM89.3331 112.433C89.1401 112.592 88.9294 112.684 88.7012 112.708C88.4722 112.731 88.2421 112.688 88.0111 112.578C87.7792 112.467 87.5622 112.288 87.3599 112.043C87.1592 111.8 87.0268 111.554 86.9627 111.307C86.8986 111.059 86.9007 110.825 86.9691 110.604C87.0375 110.384 87.1692 110.194 87.3642 110.033C87.515 109.909 87.6549 109.835 87.7838 109.814C87.9129 109.79 88.0267 109.791 88.1252 109.816C88.2239 109.839 88.3029 109.86 88.3622 109.879L88.3923 109.854L87.4521 108.714L87.8081 108.42L90.355 111.509L90.0112 111.793L89.7177 111.437L89.6755 111.471C89.6841 111.535 89.6909 111.619 89.6957 111.723C89.6997 111.826 89.6776 111.94 89.6296 112.064C89.5807 112.187 89.4819 112.31 89.3331 112.433ZM89.1177 112.073C89.2605 111.956 89.3505 111.819 89.3876 111.663C89.424 111.507 89.4131 111.341 89.3549 111.166C89.2959 110.99 89.1943 110.814 89.05 110.639C88.9074 110.466 88.7575 110.336 88.6003 110.247C88.4422 110.158 88.2841 110.118 88.1259 110.127C87.9668 110.135 87.8149 110.198 87.6701 110.318C87.5193 110.442 87.4255 110.584 87.3888 110.745C87.3523 110.903 87.3632 111.069 87.4216 111.242C87.4801 111.414 87.5765 111.581 87.7108 111.744C87.8468 111.909 87.9955 112.038 88.1568 112.131C88.3184 112.222 88.4817 112.267 88.6467 112.264C88.8119 112.26 88.9689 112.196 89.1177 112.073ZM91.4575 108.259L92.6067 109.652L92.2508 109.946L89.7038 106.857L90.0597 106.564L90.9949 107.698L91.0251 107.673C90.9807 107.508 90.9838 107.346 91.0343 107.186C91.0851 107.025 91.2014 106.869 91.3834 106.719C91.5412 106.588 91.7056 106.506 91.8765 106.472C92.0465 106.436 92.2177 106.456 92.39 106.532C92.5625 106.606 92.7308 106.743 92.895 106.942L94.1088 108.414L93.7528 108.707L92.5589 107.259C92.4072 107.075 92.2421 106.972 92.0637 106.951C91.8855 106.927 91.7124 106.984 91.5445 107.123C91.4279 107.219 91.3436 107.33 91.2917 107.455C91.2409 107.58 91.2278 107.712 91.2524 107.85C91.2781 107.988 91.3464 108.124 91.4575 108.259ZM95.7408 107.149C95.5316 107.321 95.3071 107.423 95.0672 107.453C94.8283 107.483 94.5908 107.445 94.3547 107.339C94.1197 107.232 93.9035 107.059 93.7061 106.82C93.5072 106.579 93.3772 106.332 93.3163 106.08C93.2563 105.827 93.2638 105.586 93.3385 105.357C93.4143 105.127 93.5567 104.926 93.7659 104.754C93.975 104.581 94.199 104.48 94.4379 104.451C94.6779 104.42 94.9158 104.459 95.1517 104.566C95.3885 104.673 95.6065 104.848 95.8055 105.089C96.0028 105.328 96.131 105.574 96.1901 105.826C96.2502 106.077 96.2424 106.317 96.1666 106.547C96.0918 106.776 95.9499 106.976 95.7408 107.149ZM95.4771 106.829C95.636 106.698 95.7331 106.55 95.7685 106.384C95.8039 106.218 95.7915 106.048 95.7313 105.875C95.6712 105.701 95.5772 105.537 95.4495 105.382C95.3219 105.227 95.1783 105.104 95.0187 105.01C94.8592 104.917 94.6941 104.872 94.5236 104.874C94.3531 104.876 94.1884 104.943 94.0295 105.074C93.8707 105.205 93.7739 105.354 93.7394 105.521C93.7048 105.688 93.718 105.858 93.779 106.033C93.84 106.207 93.9344 106.372 94.0621 106.526C94.1897 106.681 94.3329 106.805 94.4916 106.897C94.6504 106.989 94.8146 107.033 94.9843 107.03C95.154 107.027 95.3183 106.96 95.4771 106.829ZM95.1029 102.405L97.6499 105.493L97.2939 105.787L94.7469 102.698L95.1029 102.405ZM99.2163 104.283C99.0232 104.442 98.8126 104.534 98.5844 104.558C98.3553 104.582 98.1253 104.538 97.8942 104.428C97.6624 104.317 97.4453 104.139 97.243 103.893C97.0424 103.65 96.91 103.404 96.8459 103.157C96.7817 102.909 96.7839 102.675 96.8522 102.455C96.9206 102.234 97.0523 102.044 97.2474 101.883C97.3982 101.759 97.5381 101.685 97.667 101.664C97.7961 101.64 97.9099 101.641 98.0084 101.666C98.107 101.689 98.186 101.71 98.2453 101.729L98.2755 101.704L97.3353 100.564L97.6912 100.27L100.238 103.359L99.8943 103.643L99.6008 103.287L99.5586 103.322C99.5673 103.385 99.574 103.469 99.5788 103.573C99.5828 103.677 99.5608 103.79 99.5127 103.914C99.4639 104.037 99.3651 104.16 99.2163 104.283ZM99.0009 103.923C99.1436 103.806 99.2336 103.669 99.2708 103.513C99.3071 103.357 99.2962 103.191 99.2381 103.016C99.1791 102.84 99.0774 102.664 98.9332 102.489C98.7906 102.316 98.6407 102.186 98.4834 102.098C98.3254 102.008 98.1672 101.968 98.009 101.977C97.85 101.985 97.698 102.048 97.5533 102.168C97.4024 102.292 97.3087 102.435 97.272 102.595C97.2355 102.753 97.2464 102.919 97.3047 103.092C97.3632 103.264 97.4596 103.431 97.594 103.594C97.7299 103.759 97.8786 103.888 98.04 103.981C98.2015 104.072 98.3648 104.117 98.5298 104.114C98.695 104.11 98.8521 104.046 99.0009 103.923ZM101.95 102.028C101.727 102.212 101.494 102.322 101.251 102.357C101.008 102.39 100.769 102.353 100.535 102.248C100.301 102.14 100.086 101.967 99.8907 101.73C99.695 101.493 99.5658 101.248 99.503 100.996C99.4404 100.742 99.4452 100.5 99.5173 100.27C99.5896 100.038 99.7303 99.8355 99.9394 99.6631C100.06 99.5636 100.196 99.4854 100.347 99.4286C100.497 99.3719 100.658 99.3489 100.829 99.3598C101 99.3697 101.175 99.4249 101.354 99.5254C101.533 99.626 101.712 99.7843 101.89 100.001L102.014 100.151L100.229 101.624L99.9749 101.316L101.399 100.142C101.291 100.011 101.168 99.9164 101.032 99.8569C100.896 99.7966 100.756 99.7762 100.611 99.7957C100.468 99.8143 100.332 99.8767 100.203 99.9828C100.061 100.1 99.9676 100.236 99.9221 100.392C99.8768 100.546 99.8725 100.701 99.9092 100.859C99.9459 101.016 100.017 101.158 100.122 101.286L100.291 101.491C100.436 101.666 100.588 101.789 100.749 101.861C100.91 101.931 101.07 101.953 101.231 101.927C101.391 101.9 101.543 101.827 101.687 101.708C101.78 101.631 101.854 101.549 101.908 101.46C101.962 101.37 101.995 101.276 102.006 101.177C102.016 101.077 102.004 100.974 101.967 100.869L102.391 100.682C102.451 100.828 102.475 100.981 102.462 101.14C102.449 101.298 102.4 101.453 102.315 101.606C102.229 101.758 102.107 101.899 101.95 102.028ZM103.411 100.742L101.501 98.426L101.845 98.1424L102.133 98.4923L102.158 98.4724C102.105 98.3229 102.105 98.1669 102.157 98.0044C102.208 97.8418 102.304 97.7033 102.442 97.5889C102.469 97.5673 102.502 97.5409 102.542 97.5095C102.582 97.4782 102.613 97.4552 102.634 97.4407L102.933 97.8026C102.918 97.8096 102.887 97.8278 102.839 97.8574C102.791 97.8852 102.743 97.9186 102.696 97.9576C102.583 98.0504 102.502 98.157 102.453 98.2772C102.403 98.3956 102.387 98.5171 102.404 98.6419C102.421 98.7647 102.472 98.8785 102.558 98.983L103.767 100.449L103.411 100.742Z" fill="black"/>
<path d="M86.2886 125.162C86.0613 125.35 85.8168 125.448 85.555 125.456C85.2923 125.463 85.0213 125.383 84.742 125.216C84.4619 125.049 84.1834 124.797 83.9064 124.461C83.6312 124.128 83.4384 123.808 83.328 123.502C83.2178 123.194 83.1912 122.912 83.2483 122.655C83.3055 122.397 83.4467 122.175 83.6719 121.989C83.8971 121.804 84.1415 121.708 84.405 121.701C84.6687 121.694 84.9406 121.773 85.2207 121.941C85.501 122.107 85.7788 122.357 86.054 122.69C86.3309 123.026 86.525 123.348 86.6362 123.654C86.7466 123.96 86.7733 124.242 86.7162 124.498C86.6583 124.754 86.5158 124.975 86.2886 125.162ZM86.0149 124.831C86.2402 124.645 86.3256 124.392 86.2712 124.072C86.2167 123.752 86.0237 123.391 85.6921 122.989C85.4715 122.721 85.2551 122.517 85.0427 122.377C84.8314 122.235 84.6318 122.159 84.444 122.148C84.2572 122.137 84.0894 122.192 83.9406 122.315C83.7173 122.499 83.6337 122.753 83.6896 123.077C83.7447 123.4 83.9376 123.762 84.2684 124.163C84.4889 124.43 84.7045 124.634 84.915 124.775C85.1255 124.915 85.3238 124.991 85.5097 125.001C85.6967 125.011 85.8651 124.954 86.0149 124.831ZM88.961 122.959C88.8326 123.061 88.686 123.141 88.5212 123.2C88.3564 123.258 88.1765 123.275 87.9816 123.252C87.7858 123.228 87.5787 123.147 87.3604 123.012C87.1411 122.875 86.9138 122.664 86.6783 122.378C86.4528 122.105 86.2787 121.841 86.1558 121.588C86.0322 121.333 85.9594 121.094 85.9375 120.868C85.9148 120.642 85.9413 120.435 86.0168 120.246C86.0934 120.056 86.2186 119.889 86.3926 119.746C86.5655 119.603 86.748 119.511 86.9399 119.469C87.132 119.426 87.3214 119.43 87.508 119.482C87.6946 119.534 87.8664 119.63 88.0233 119.769L87.6553 120.073C87.5067 119.962 87.3455 119.902 87.1715 119.891C86.9975 119.881 86.8291 119.943 86.6662 120.078C86.4269 120.275 86.3242 120.534 86.3581 120.856C86.393 121.177 86.5649 121.526 86.874 121.903L86.8981 121.883C86.884 121.751 86.8907 121.623 86.9184 121.499C86.9462 121.373 86.9937 121.254 87.0609 121.143C87.128 121.032 87.2144 120.933 87.32 120.846C87.4969 120.7 87.6953 120.611 87.915 120.578C88.134 120.544 88.3515 120.569 88.5677 120.65C88.783 120.731 88.9727 120.871 89.1369 121.07C89.2944 121.261 89.3959 121.472 89.4415 121.701C89.4862 121.929 89.4697 122.154 89.392 122.375C89.3144 122.595 89.1707 122.789 88.961 122.959ZM88.6874 122.627C88.814 122.522 88.9015 122.397 88.9498 122.251C88.9992 122.104 89.009 121.953 88.9795 121.798C88.9509 121.643 88.8827 121.5 88.7749 121.369C88.6696 121.241 88.5452 121.149 88.4017 121.091C88.2583 121.032 88.1112 121.013 87.9602 121.032C87.8103 121.051 87.672 121.113 87.5453 121.217C87.4498 121.296 87.3766 121.389 87.3256 121.495C87.2739 121.6 87.2438 121.711 87.2353 121.828C87.2279 121.944 87.2414 122.058 87.2758 122.172C87.3095 122.284 87.3644 122.387 87.4407 122.479C87.5418 122.602 87.665 122.693 87.8102 122.752C87.9564 122.811 88.1067 122.831 88.2612 122.814C88.4166 122.795 88.5587 122.733 88.6874 122.627ZM88.9823 117.438L91.0364 121.957L90.7106 122.225L88.6566 117.707L88.9823 117.438ZM92.0645 120.328L91.8407 120.057L91.9399 118.1C91.9518 117.871 91.9566 117.676 91.9544 117.516C91.9514 117.354 91.9333 117.216 91.9 117.099C91.8669 116.981 91.8114 116.875 91.7335 116.781C91.6439 116.672 91.5403 116.6 91.4225 116.563C91.3057 116.526 91.1847 116.523 91.0596 116.553C90.9345 116.584 90.8161 116.645 90.7045 116.737C90.5859 116.835 90.5026 116.945 90.4548 117.067C90.4071 117.188 90.3952 117.312 90.4191 117.439C90.4439 117.565 90.5049 117.687 90.6019 117.805L90.246 118.098C90.0967 117.918 90.0075 117.724 89.9782 117.519C89.9488 117.313 89.9746 117.113 90.0553 116.918C90.1371 116.722 90.268 116.55 90.4479 116.402C90.6289 116.252 90.8208 116.158 91.0236 116.119C91.2263 116.081 91.4209 116.093 91.6073 116.158C91.7937 116.222 91.9523 116.333 92.0833 116.492C92.177 116.606 92.248 116.734 92.2964 116.876C92.3448 117.017 92.3735 117.195 92.3824 117.411C92.3915 117.625 92.3859 117.9 92.3657 118.236L92.2838 119.55L92.3037 119.574L93.7394 118.39L94.013 118.722L92.0645 120.328ZM95.6359 117.454C95.459 117.6 95.2706 117.696 95.0708 117.743C94.871 117.789 94.6778 117.787 94.4912 117.734C94.3046 117.682 94.1426 117.581 94.0052 117.431L94.3671 117.132C94.4965 117.261 94.6552 117.324 94.8432 117.323C95.0314 117.319 95.2045 117.253 95.3623 117.122C95.489 117.018 95.5772 116.896 95.6268 116.755C95.6774 116.614 95.6882 116.468 95.6591 116.318C95.6301 116.166 95.5614 116.024 95.4528 115.893C95.3417 115.758 95.2129 115.662 95.0666 115.605C94.9204 115.547 94.7707 115.529 94.6176 115.553C94.4644 115.576 94.3216 115.641 94.1891 115.749C94.0937 115.826 94.0087 115.92 93.9341 116.033C93.8586 116.144 93.8077 116.249 93.7815 116.348L93.3968 116.595L92.3302 114.92L93.9349 113.597L94.2085 113.929L92.9175 114.993L93.5601 115.994L93.5782 115.979C93.6001 115.876 93.6451 115.769 93.7133 115.657C93.7814 115.545 93.8673 115.447 93.9708 115.361C94.1598 115.205 94.3656 115.112 94.588 115.08C94.8106 115.047 95.0283 115.074 95.2413 115.16C95.4553 115.245 95.6448 115.388 95.8097 115.588C95.9723 115.785 96.0731 115.998 96.1123 116.225C96.1517 116.451 96.1314 116.672 96.0513 116.889C95.9705 117.104 95.832 117.293 95.6359 117.454Z" fill="black"/>
<path d="M108.988 106.338C108.86 106.44 108.713 106.521 108.549 106.579C108.384 106.637 108.204 106.655 108.009 106.631C107.813 106.607 107.606 106.527 107.388 106.391C107.168 106.254 106.941 106.043 106.706 105.758C106.48 105.484 106.306 105.221 106.183 104.967C106.059 104.713 105.987 104.473 105.965 104.248C105.942 104.022 105.969 103.814 106.044 103.625C106.121 103.435 106.246 103.269 106.42 103.125C106.593 102.983 106.775 102.89 106.967 102.849C107.159 102.805 107.349 102.809 107.535 102.862C107.722 102.914 107.894 103.009 108.051 103.149L107.683 103.452C107.534 103.341 107.373 103.281 107.199 103.271C107.025 103.261 106.856 103.323 106.694 103.457C106.454 103.654 106.352 103.914 106.385 104.235C106.42 104.556 106.592 104.905 106.901 105.282L106.925 105.262C106.911 105.13 106.918 105.002 106.946 104.878C106.974 104.752 107.021 104.634 107.088 104.522C107.155 104.411 107.242 104.312 107.347 104.225C107.524 104.079 107.723 103.99 107.942 103.957C108.161 103.924 108.379 103.948 108.595 104.03C108.81 104.111 109 104.251 109.164 104.45C109.322 104.641 109.423 104.851 109.469 105.08C109.514 105.309 109.497 105.533 109.419 105.755C109.342 105.974 109.198 106.168 108.988 106.338ZM108.715 106.006C108.841 105.902 108.929 105.776 108.977 105.63C109.026 105.483 109.036 105.332 109.007 105.178C108.978 105.022 108.91 104.879 108.802 104.748C108.697 104.621 108.573 104.528 108.429 104.471C108.286 104.412 108.139 104.392 107.988 104.412C107.838 104.431 107.699 104.492 107.573 104.597C107.477 104.676 107.404 104.768 107.353 104.874C107.301 104.979 107.271 105.09 107.263 105.207C107.255 105.323 107.269 105.438 107.303 105.551C107.337 105.664 107.392 105.766 107.468 105.859C107.569 105.981 107.692 106.072 107.838 106.132C107.984 106.19 108.134 106.211 108.288 106.193C108.444 106.175 108.586 106.112 108.715 106.006ZM111.638 104.153C111.51 104.255 111.364 104.335 111.199 104.394C111.034 104.452 110.854 104.469 110.659 104.446C110.463 104.422 110.256 104.341 110.038 104.206C109.819 104.069 109.591 103.858 109.356 103.572C109.13 103.299 108.956 103.035 108.833 102.782C108.71 102.527 108.637 102.288 108.615 102.062C108.592 101.836 108.619 101.629 108.694 101.44C108.771 101.25 108.896 101.083 109.07 100.94C109.243 100.797 109.425 100.705 109.617 100.663C109.809 100.62 109.999 100.624 110.185 100.676C110.372 100.728 110.544 100.824 110.701 100.963L110.333 101.267C110.184 101.156 110.023 101.096 109.849 101.085C109.675 101.075 109.507 101.137 109.344 101.272C109.104 101.469 109.002 101.728 109.036 102.05C109.07 102.371 109.242 102.72 109.552 103.097L109.576 103.077C109.561 102.945 109.568 102.817 109.596 102.693C109.624 102.567 109.671 102.448 109.738 102.337C109.806 102.226 109.892 102.127 109.997 102.04C110.174 101.894 110.373 101.805 110.593 101.772C110.811 101.738 111.029 101.763 111.245 101.844C111.46 101.925 111.65 102.065 111.814 102.264C111.972 102.455 112.073 102.666 112.119 102.895C112.164 103.123 112.147 103.348 112.069 103.569C111.992 103.789 111.848 103.983 111.638 104.153ZM111.365 103.821C111.492 103.716 111.579 103.591 111.627 103.445C111.677 103.298 111.687 103.147 111.657 102.992C111.628 102.837 111.56 102.694 111.452 102.563C111.347 102.435 111.223 102.343 111.079 102.285C110.936 102.226 110.789 102.207 110.638 102.226C110.488 102.245 110.349 102.307 110.223 102.411C110.127 102.49 110.054 102.583 110.003 102.689C109.951 102.794 109.921 102.905 109.913 103.022C109.905 103.138 109.919 103.252 109.953 103.366C109.987 103.478 110.042 103.581 110.118 103.673C110.219 103.796 110.343 103.887 110.488 103.946C110.634 104.005 110.784 104.025 110.939 104.008C111.094 103.989 111.236 103.927 111.365 103.821ZM113.325 102.691L112.453 98.8192L112.433 98.7951L110.84 100.108L110.567 99.7766L112.545 98.1449L112.834 98.4948L113.717 102.368L113.325 102.691ZM114.193 96.7859L116.74 99.8745L116.366 100.183L114.143 97.4864L114.125 97.5014L113.783 98.6239L113.47 98.2438L113.819 97.0943L114.193 96.7859ZM117.725 99.0624L116.853 95.1905L116.833 95.1664L115.241 96.4797L114.967 96.1479L116.946 94.5162L117.234 94.8661L118.117 98.7391L117.725 99.0624Z" fill="black"/>
<path d="M246.507 53.8035C246.507 62.6046 243.084 70.8778 236.867 77.1012C230.649 83.3246 222.385 86.7518 213.592 86.7518C204.8 86.7518 196.535 83.3246 190.318 77.1012C184.101 70.8778 180.677 62.6046 180.677 53.8035C180.677 45.0024 184.101 36.7292 190.318 30.5058C196.535 24.2825 204.8 20.8552 213.592 20.8552H221.426V10.926H213.592C207.812 10.926 202.203 12.061 196.918 14.2982C191.818 16.4581 187.236 19.5483 183.306 23.4846C179.373 27.4208 176.286 32.0054 174.129 37.1127C171.894 42.4023 170.76 48.0169 170.76 53.8035C170.76 59.5901 171.894 65.2047 174.129 70.4943C176.286 75.5999 179.373 80.1862 183.306 84.1208C187.238 88.057 191.818 91.1472 196.92 93.3071C202.204 95.5443 207.813 96.6793 213.594 96.6793C219.375 96.6793 224.984 95.5443 230.268 93.3071C235.369 91.1472 239.95 88.057 243.881 84.1208C247.813 80.1845 250.9 75.5999 253.058 70.4943C255.293 65.2047 256.427 59.5901 256.427 53.8035V47.2104H246.507V53.8035Z" fill="#66CC99"/>
<path d="M216.063 53.819L206.984 40.1909L193.674 53.5147L212.578 66.1351L217.127 69.172L220.057 65.5951L265.199 10.5099L252.064 0.690796L216.063 53.819Z" fill="#66CC99"/>
<path d="M42.2157 39.3374C42.3706 38.9366 42.4273 38.1779 41.6395 37.8718C40.8516 37.5656 40.3803 38.1625 40.2254 38.5633C40.0706 38.9641 40.0138 39.7227 40.8017 40.0289C41.5896 40.3351 42.0609 39.7382 42.2157 39.3374ZM40.6813 38.7405C40.9015 38.1728 41.3918 37.9698 41.5947 38.0197C41.7547 38.1091 41.9801 38.5908 41.7599 39.1585C41.5431 39.7175 41.0666 39.924 40.8585 39.8827C40.6779 39.7726 40.4646 39.2978 40.6813 38.7405Z" fill="#205FAE"/>
<path d="M46.4618 39.3374C46.6167 38.9366 46.6734 38.1779 45.8855 37.8718C45.0977 37.5656 44.6264 38.1625 44.4715 38.5633C44.3167 38.9641 44.2599 39.7227 45.0478 40.0289C45.8357 40.3351 46.307 39.7382 46.4618 39.3374ZM44.9274 38.7405C45.1476 38.1728 45.6378 37.9698 45.8408 38.0197C46.0008 38.1091 46.2262 38.5908 46.006 39.1585C45.7892 39.7175 45.3127 39.924 45.1046 39.8827C44.9239 39.7726 44.7124 39.2978 44.9274 38.7405Z" fill="#205FAE"/>
<path d="M40.3595 38.9745C40.3577 38.9779 40.356 38.9848 40.3543 38.9882C40.3268 39.045 40.2322 39.0639 40.1461 39.0312L36.9981 37.8357C36.919 37.8064 36.8743 37.7428 36.8898 37.6895C36.8915 37.686 36.8932 37.6791 36.8949 37.6757C36.9225 37.6189 37.0171 37.6 37.1031 37.6327L40.2511 38.8282C40.3285 38.8575 40.3749 38.9194 40.3595 38.9745Z" fill="#205FAE"/>
<path d="M44.5457 39.2515C44.5268 39.3152 44.4838 39.3633 44.4476 39.3616L42.2664 39.2687C42.2268 39.267 42.2079 39.2068 42.2251 39.1345C42.2389 39.0657 42.2871 39.0055 42.3283 39.0072L44.5079 39.1001C44.5474 39.1019 44.5663 39.1621 44.5491 39.2343C44.5491 39.2395 44.5474 39.2446 44.5457 39.2515Z" fill="#205FAE"/>
</svg>
