<svg width="39" height="39" viewBox="0 0 39 39" fill="none" xmlns="http://www.w3.org/2000/svg">
<path fill-rule="evenodd" clip-rule="evenodd" d="M21.6255 22.9125C21.918 23.283 22.269 23.7022 22.269 23.7022C24.4237 23.634 25.2525 22.2202 25.2525 22.2202C25.2525 19.0807 23.8485 16.536 23.8485 16.536C22.4445 15.483 21.1087 15.5122 21.1087 15.5122L20.9722 15.6683C22.6298 16.1752 23.4 16.9065 23.4 16.9065C22.386 16.3507 21.3915 16.0778 20.4653 15.9705C19.7633 15.8925 19.0905 15.912 18.4958 15.99C18.4447 15.99 18.401 15.9974 18.3519 16.0058L18.33 16.0095C17.9888 16.0387 17.16 16.1655 16.1168 16.6238C15.756 16.7895 15.5415 16.9065 15.5415 16.9065C15.5415 16.9065 16.3507 16.1362 18.1057 15.6293L18.0082 15.5122C18.0082 15.5122 16.6725 15.483 15.2685 16.536C15.2685 16.536 13.8645 19.0807 13.8645 22.2202C13.8645 22.2202 14.6835 23.634 16.8382 23.7022C16.8382 23.7022 17.199 23.2635 17.4915 22.893C16.2533 22.5225 15.7852 21.7425 15.7852 21.7425C15.7852 21.7425 15.8827 21.8107 16.0583 21.9082C16.068 21.918 16.0777 21.9278 16.0972 21.9375C16.1119 21.9473 16.1265 21.9546 16.1411 21.9619C16.1558 21.9692 16.1704 21.9765 16.185 21.9862C16.4287 22.1228 16.6725 22.23 16.8967 22.3177C17.2965 22.4737 17.7743 22.6297 18.33 22.737C19.0612 22.8735 19.9193 22.9223 20.8552 22.7467C21.3135 22.6688 21.7815 22.5322 22.269 22.3275C22.6103 22.2008 22.9905 22.0155 23.3902 21.7522C23.3902 21.7522 22.9028 22.5518 21.6255 22.9125ZM16.7408 20.2313C16.7408 19.6365 17.1795 19.149 17.7353 19.149C18.291 19.149 18.7395 19.6365 18.7298 20.2313C18.7298 20.826 18.291 21.3135 17.7353 21.3135C17.1893 21.3135 16.7408 20.826 16.7408 20.2313ZM20.2995 20.2313C20.2995 19.6365 20.7383 19.149 21.294 19.149C21.8498 19.149 22.2885 19.6365 22.2885 20.2313C22.2885 20.826 21.8498 21.3135 21.294 21.3135C20.748 21.3135 20.2995 20.826 20.2995 20.2313Z" fill="#222222"/>
<path fill-rule="evenodd" clip-rule="evenodd" d="M19.5 0C30.2696 0 39 8.73045 39 19.5C39 30.2696 30.2696 39 19.5 39C8.73045 39 0 30.2696 0 19.5C0 8.73045 8.73045 0 19.5 0ZM10.9688 12.9773C10.9688 11.8658 11.8658 10.9688 12.9675 10.9688H26.0325C27.1343 10.9688 28.0312 11.8658 28.0312 12.9773V30.4688L25.935 28.6162L24.7552 27.5243L23.5072 26.364L24.024 28.1677H12.9675C11.8658 28.1677 10.9688 27.2708 10.9688 26.1593V12.9773Z" fill="#222222"/>
</svg>
