<svg width="34" height="34" viewBox="0 0 34 34" fill="none" xmlns="http://www.w3.org/2000/svg">
<path fill-rule="evenodd" clip-rule="evenodd" d="M17 4.25C13.5371 4.25 13.1036 4.26445 11.7436 4.3265C10.3862 4.38855 9.4588 4.60445 8.6479 4.9198C7.7979 5.2394 7.02695 5.7409 6.38945 6.3903C5.74109 7.02706 5.23928 7.79747 4.91895 8.6479C4.6053 9.4588 4.38855 10.387 4.3265 11.7445C4.2653 13.1036 4.25 13.5363 4.25 17C4.25 20.4638 4.26445 20.8964 4.3265 22.2564C4.38855 23.6139 4.60445 24.5412 4.9198 25.3521C5.2394 26.2021 5.7409 26.9731 6.3903 27.6106C7.02708 28.2589 7.79748 28.7607 8.6479 29.0811C9.4588 29.3956 10.3862 29.6115 11.7436 29.6735C13.1036 29.7356 13.5371 29.75 17 29.75C20.4629 29.75 20.8964 29.7356 22.2564 29.6735C23.6139 29.6115 24.5412 29.3956 25.3521 29.0802C26.2021 28.7606 26.9731 28.2591 27.6106 27.6097C28.2589 26.9729 28.7607 26.2025 29.0811 25.3521C29.3956 24.5412 29.6115 23.6139 29.6735 22.2564C29.7356 20.8964 29.75 20.4629 29.75 17C29.75 13.5371 29.7356 13.1036 29.6735 11.7436C29.6115 10.3862 29.3956 9.4588 29.0802 8.6479C28.7601 7.7971 28.2583 7.02637 27.6097 6.38945C26.9729 5.74109 26.2025 5.23928 25.3521 4.91895C24.5412 4.6053 23.613 4.38855 22.2556 4.3265C20.8964 4.2653 20.4638 4.25 17 4.25ZM17 6.54755C20.4043 6.54755 20.808 6.5603 22.1527 6.6215C23.3954 6.67845 24.0703 6.885 24.52 7.06095C25.115 7.2913 25.54 7.5684 25.9862 8.0138C26.4325 8.46005 26.7087 8.88505 26.9391 9.48005C27.1142 9.9297 27.3215 10.6046 27.3785 11.8473C27.4397 13.192 27.4525 13.5958 27.4525 17C27.4525 20.4043 27.4397 20.808 27.3785 22.1527C27.3215 23.3954 27.115 24.0703 26.9391 24.52C26.735 25.0738 26.4094 25.5748 25.9862 25.9862C25.5749 26.4095 25.0738 26.7351 24.52 26.9391C24.0703 27.1142 23.3954 27.3215 22.1527 27.3785C20.808 27.4397 20.4051 27.4525 17 27.4525C13.5949 27.4525 13.192 27.4397 11.8473 27.3785C10.6046 27.3215 9.9297 27.115 9.48005 26.9391C8.92624 26.735 8.42521 26.4094 8.0138 25.9862C7.59065 25.5748 7.26506 25.0737 7.06095 24.52C6.88585 24.0703 6.67845 23.3954 6.6215 22.1527C6.5603 20.808 6.54755 20.4043 6.54755 17C6.54755 13.5958 6.5603 13.192 6.6215 11.8473C6.67845 10.6046 6.885 9.9297 7.06095 9.48005C7.2913 8.88505 7.5684 8.46005 8.0138 8.0138C8.42515 7.59054 8.9262 7.26493 9.48005 7.06095C9.9297 6.88585 10.6046 6.67845 11.8473 6.6215C13.192 6.5603 13.5958 6.54755 17 6.54755V6.54755Z" fill="#222222"/>
<path fill-rule="evenodd" clip-rule="evenodd" d="M16.9998 21.2542C16.4411 21.2542 15.8879 21.1442 15.3718 20.9304C14.8556 20.7166 14.3866 20.4032 13.9916 20.0082C13.5965 19.6131 13.2832 19.1441 13.0694 18.628C12.8556 18.1118 12.7455 17.5586 12.7455 16.9999C12.7455 16.4413 12.8556 15.8881 13.0694 15.3719C13.2832 14.8558 13.5965 14.3868 13.9916 13.9917C14.3866 13.5967 14.8556 13.2833 15.3718 13.0695C15.8879 12.8557 16.4411 12.7457 16.9998 12.7457C18.1281 12.7457 19.2102 13.1939 20.008 13.9917C20.8058 14.7896 21.254 15.8716 21.254 16.9999C21.254 18.1282 20.8058 19.2103 20.008 20.0082C19.2102 20.806 18.1281 21.2542 16.9998 21.2542V21.2542ZM16.9998 10.4464C15.2617 10.4464 13.5948 11.1369 12.3658 12.3659C11.1367 13.5949 10.4463 15.2618 10.4463 16.9999C10.4463 18.738 11.1367 20.405 12.3658 21.634C13.5948 22.863 15.2617 23.5534 16.9998 23.5534C18.7379 23.5534 20.4048 22.863 21.6338 21.634C22.8628 20.405 23.5533 18.738 23.5533 16.9999C23.5533 15.2618 22.8628 13.5949 21.6338 12.3659C20.4048 11.1369 18.7379 10.4464 16.9998 10.4464V10.4464ZM25.4598 10.3274C25.4598 10.7383 25.2966 11.1323 25.0061 11.4228C24.7156 11.7134 24.3216 11.8766 23.9107 11.8766C23.4999 11.8766 23.1058 11.7134 22.8153 11.4228C22.5248 11.1323 22.3616 10.7383 22.3616 10.3274C22.3616 9.91659 22.5248 9.52257 22.8153 9.23205C23.1058 8.94153 23.4999 8.77832 23.9107 8.77832C24.3216 8.77832 24.7156 8.94153 25.0061 9.23205C25.2966 9.52257 25.4598 9.91659 25.4598 10.3274" fill="#222222"/>
</svg>
