<svg width="42" height="27" viewBox="0 0 42 27" fill="none" xmlns="http://www.w3.org/2000/svg">
<g clip-path="url(#clip0_27_125)">
<path d="M0.489441 3.375C0.489441 1.51104 2.0068 0 3.87856 0H37.7698C39.6416 0 41.1589 1.51104 41.1589 3.375V23.625C41.1589 25.489 39.6416 27 37.7698 27H3.87856C2.0068 27 0.489441 25.489 0.489441 23.625V3.375Z" fill="#FAD1D7"/>
<path d="M10.9371 3.37598H19.0506C20.1832 3.37598 20.8876 4.29527 20.6234 5.42686L16.846 21.5772C16.5794 22.7048 15.4455 23.6249 14.3121 23.6249H6.1994C5.06842 23.6249 4.36241 22.7048 4.62662 21.5772L8.40561 5.42686C8.66982 4.29527 9.80318 3.37598 10.9371 3.37598Z" fill="#E21836"/>
<path d="M18.375 3.375H27.7053C28.8377 3.375 28.3271 4.2943 28.0607 5.42589L24.2839 21.5762C24.0189 22.7038 24.1016 23.6239 22.9668 23.6239H13.6365C12.5018 23.6239 11.7995 22.7038 12.0661 21.5762L15.8427 5.42589C16.1109 4.2943 17.2419 3.375 18.375 3.375Z" fill="#00447C"/>
<path d="M27.3354 3.375H35.4489C36.583 3.375 37.2874 4.2943 37.0211 5.42589L33.2442 21.5762C32.9777 22.7038 31.8429 23.6239 30.709 23.6239H22.5992C21.4645 23.6239 20.7607 22.7038 21.0265 21.5762L24.8039 5.42589C25.0681 4.2943 26.2006 3.375 27.3354 3.375Z" fill="#007B84"/>
<path d="M13.0557 8.55049C12.2213 8.55896 11.9749 8.55049 11.8962 8.53198C11.866 8.67515 11.3029 11.2615 11.3013 11.2637C11.1801 11.7869 11.0919 12.1599 10.7923 12.4008C10.6222 12.5408 10.4237 12.6083 10.1935 12.6083C9.82349 12.6083 9.60793 12.4254 9.57174 12.0784L9.56482 11.9592C9.56482 11.9592 9.67754 11.2584 9.67754 11.2544C9.67754 11.2544 10.2685 8.89749 10.3743 8.58594C10.3798 8.56821 10.3814 8.55896 10.3828 8.55049C9.23259 8.56053 9.0287 8.55049 9.01465 8.53198C9.00694 8.55738 8.97846 8.70351 8.97846 8.70351L8.3751 11.36L8.32329 11.5853L8.22302 12.3222C8.22302 12.5408 8.26613 12.7192 8.35196 12.8701C8.62685 13.3484 9.41096 13.4201 9.85454 13.4201C10.4261 13.4201 10.9622 13.2992 11.3245 13.0784C11.9534 12.7084 12.1179 12.13 12.2646 11.616L12.3327 11.3523C12.3327 11.3523 12.9414 8.90438 13.0448 8.58594C13.0488 8.56821 13.0503 8.55896 13.0557 8.55049ZM15.1268 10.5252C14.98 10.5252 14.7119 10.5607 14.471 10.6783C14.3836 10.723 14.3009 10.7746 14.2137 10.826L14.2924 10.543L14.2493 10.4953C13.7385 10.5983 13.6242 10.6121 13.1523 10.6783L13.1128 10.7045C13.058 11.1568 13.0093 11.4969 12.8062 12.3861C12.7289 12.7138 12.6486 13.0446 12.5681 13.3716L12.5899 13.4131C13.0734 13.3877 13.2202 13.3877 13.6404 13.3946L13.6744 13.3578C13.7278 13.0854 13.7347 13.0216 13.853 12.47C13.9086 12.2085 14.0244 11.6338 14.0816 11.4292C14.1866 11.3807 14.2902 11.3331 14.3891 11.3331C14.6246 11.3331 14.596 11.5377 14.5869 11.6192C14.5768 11.7561 14.491 12.2031 14.403 12.587L14.3442 12.8347C14.3033 13.0177 14.2584 13.1955 14.2175 13.3769L14.2353 13.4131C14.7119 13.3877 14.8572 13.3877 15.2642 13.3946L15.3121 13.3578C15.3856 12.9324 15.4072 12.8186 15.5377 12.1992L15.6034 11.9146C15.7309 11.3577 15.795 11.0753 15.6985 10.8453C15.5964 10.5875 15.3516 10.5252 15.1268 10.5252ZM17.4404 11.1083C17.1871 11.1568 17.0255 11.1891 16.8649 11.21C16.7057 11.2354 16.5505 11.2584 16.3056 11.2923L16.2863 11.3098L16.2685 11.3238C16.2429 11.5054 16.2252 11.6623 16.1913 11.8469C16.1627 12.0377 16.1186 12.2545 16.0468 12.5661C15.9912 12.8046 15.9625 12.8877 15.9309 12.9716C15.9 13.0554 15.866 13.137 15.8035 13.3715L15.8182 13.3932L15.8304 13.4131C16.0592 13.4023 16.2089 13.3946 16.3628 13.3932C16.5164 13.3877 16.6756 13.3932 16.9221 13.3946L16.9436 13.377L16.9667 13.3577C17.0023 13.1462 17.0077 13.0893 17.0294 12.9861C17.051 12.8755 17.0882 12.7222 17.1793 12.313C17.2225 12.1208 17.2705 11.9292 17.3152 11.733C17.3617 11.5377 17.4103 11.3453 17.4566 11.1531L17.4497 11.1298L17.4404 11.1083ZM17.4458 10.3221C17.2156 10.1868 16.8116 10.2298 16.5396 10.4167C16.2685 10.5998 16.2377 10.8598 16.4671 10.9968C16.6933 11.1284 17.0989 11.0892 17.3685 10.9007C17.639 10.7136 17.6728 10.4561 17.4458 10.3221ZM18.8379 13.4555C19.3036 13.4555 19.781 13.3277 20.1404 12.9484C20.4168 12.6408 20.5436 12.1831 20.5875 11.9946C20.7305 11.3699 20.6191 11.0783 20.4793 10.9006C20.2669 10.6299 19.8916 10.543 19.5022 10.543C19.268 10.543 18.7104 10.566 18.2747 10.966C17.9618 11.2545 17.8173 11.646 17.7301 12.0214C17.6421 12.4038 17.5408 13.0923 18.1766 13.3486C18.3728 13.4324 18.6556 13.4555 18.8379 13.4555ZM18.8015 12.05C18.9089 11.5769 19.0357 11.1799 19.3592 11.1799C19.6127 11.1799 19.6311 11.4753 19.5184 11.9499C19.4982 12.0553 19.4057 12.447 19.2805 12.6138C19.1931 12.7369 19.0897 12.8115 18.9754 12.8115C18.9413 12.8115 18.739 12.8115 18.7359 12.5124C18.7343 12.3647 18.7645 12.2138 18.8015 12.05ZM21.7517 13.3947L21.7881 13.3578C21.8397 13.0855 21.8482 13.0215 21.9625 12.47C22.0197 12.2085 22.1379 11.6339 22.1935 11.4292C22.2987 11.3806 22.4006 11.3329 22.5026 11.3329C22.7365 11.3329 22.7081 11.5375 22.6988 11.6191C22.6903 11.7561 22.6044 12.203 22.5149 12.5868L22.4593 12.8346C22.4168 13.0177 22.3705 13.1954 22.3296 13.3769L22.3474 13.4132C22.8255 13.3878 22.9654 13.3878 23.3747 13.3947L23.4242 13.3578C23.4959 12.9322 23.5153 12.8184 23.6498 12.1993L23.7139 11.9145C23.842 11.3576 23.9069 11.0753 23.812 10.8453C23.707 10.5875 23.4605 10.5253 23.2389 10.5253C23.0919 10.5253 22.8224 10.5606 22.5829 10.6783C22.4973 10.723 22.4114 10.7744 22.3272 10.826L22.4006 10.543L22.3612 10.4952C21.8506 10.5984 21.7339 10.6121 21.2626 10.6783L21.2265 10.7045C21.1693 11.1569 21.1228 11.4968 20.9197 12.3861C20.8424 12.7138 20.7621 13.0447 20.6818 13.3716L20.7034 13.4132C21.1877 13.3878 21.3323 13.3878 21.7517 13.3947ZM25.265 13.4131C25.2951 13.2669 25.4736 12.4008 25.4752 12.4008C25.4752 12.4008 25.6273 11.7653 25.6366 11.7423C25.6366 11.7423 25.6845 11.6761 25.7323 11.6499H25.8027C26.467 11.6499 27.2171 11.6499 27.805 11.2192C28.2051 10.9238 28.4786 10.4876 28.6006 9.95744C28.6323 9.82746 28.6556 9.67286 28.6556 9.51827C28.6556 9.31523 28.6147 9.11435 28.4964 8.9574C28.1966 8.5397 27.5996 8.53202 26.9104 8.52887C26.9082 8.52887 26.5706 8.53202 26.5706 8.53202C25.6884 8.54285 25.3346 8.5397 25.1893 8.52197C25.177 8.58598 25.1539 8.69981 25.1539 8.69981C25.1539 8.69981 24.8378 10.1583 24.8378 10.1607C24.8378 10.1607 24.0816 13.2616 24.046 13.4077C24.8163 13.3985 25.1321 13.3985 25.265 13.4131ZM25.8506 10.8222C25.8506 10.8222 26.1866 9.36663 26.185 9.37214L26.1959 9.29751L26.2006 9.24059L26.3349 9.25438C26.3349 9.25438 27.0278 9.31365 27.044 9.31523C27.3175 9.42059 27.4303 9.69216 27.3516 10.0466C27.2798 10.3706 27.0688 10.643 26.7976 10.7745C26.5744 10.886 26.3009 10.8952 26.0191 10.8952H25.8367L25.8506 10.8222ZM27.9425 12.0769C27.8538 12.4539 27.7517 13.1423 28.3843 13.3877C28.5861 13.4732 28.7668 13.4986 28.9505 13.4893C29.1445 13.4789 29.3243 13.382 29.4908 13.2426C29.4758 13.2999 29.4607 13.3572 29.4457 13.4147L29.4744 13.4515C29.9294 13.4324 30.0706 13.4324 30.5637 13.4362L30.6083 13.4023C30.6803 12.9809 30.7482 12.5716 30.9352 11.7654C31.0264 11.3792 31.1174 10.9967 31.2109 10.6121L31.1963 10.5698C30.6873 10.6637 30.5512 10.6838 30.0615 10.7529L30.0244 10.783C30.0194 10.8222 30.0143 10.8599 30.0095 10.8975C29.9334 10.775 29.823 10.6704 29.6528 10.6052C29.435 10.5199 28.9236 10.6298 28.484 11.0284C28.1751 11.313 28.0268 11.7029 27.9425 12.0769ZM29.0116 12.1C29.1206 11.6354 29.2458 11.2423 29.5701 11.2423C29.7752 11.2423 29.8832 11.4308 29.8612 11.7522C29.8438 11.8323 29.825 11.9168 29.8027 12.0123C29.7702 12.1504 29.735 12.2872 29.7008 12.4243C29.666 12.5181 29.6255 12.6065 29.581 12.6654C29.4975 12.7831 29.299 12.8562 29.1847 12.8562C29.1522 12.8562 28.9521 12.8562 28.9452 12.5624C28.9436 12.416 28.9739 12.2654 29.0116 12.1ZM34.5945 10.566L34.5551 10.5213C34.0514 10.6229 33.9603 10.6391 33.4975 10.7013L33.4635 10.7352C33.4619 10.7407 33.4605 10.7492 33.4582 10.7568L33.4566 10.7492C33.1121 11.5406 33.1222 11.3699 32.8417 11.993C32.8402 11.9646 32.8402 11.9469 32.8386 11.9168L32.7684 10.566L32.7243 10.5213C32.1967 10.6229 32.1842 10.6391 31.6969 10.7013L31.6589 10.7352C31.6536 10.7513 31.6536 10.769 31.6504 10.7883L31.6536 10.7952C31.7145 11.1052 31.6999 11.0361 31.761 11.5253C31.7895 11.7653 31.8274 12.0068 31.8559 12.2439C31.904 12.6407 31.9309 12.8361 31.9896 13.4417C31.6605 13.9824 31.5826 14.1871 31.2658 14.6617L31.268 14.6664L31.0449 15.0177C31.0194 15.0548 30.9963 15.0802 30.9638 15.091C30.9282 15.1085 30.8819 15.1117 30.8177 15.1117H30.6941L30.5104 15.7202L31.1406 15.731C31.5106 15.7295 31.7432 15.5571 31.8684 15.3255L32.2647 14.6493H32.2584L32.3001 14.6016C32.5667 14.0301 34.5945 10.566 34.5945 10.566ZM27.9425 18.5581H27.6752L28.6647 15.2987H28.993L29.0972 14.9629L29.1073 15.3363C29.0951 15.5671 29.2774 15.7717 29.7564 15.7378H30.3103L30.5009 15.1102H30.2925C30.1727 15.1102 30.1171 15.0801 30.124 15.0155L30.1139 14.6356H29.0882V14.6376C28.7565 14.6444 27.7661 14.6693 27.5656 14.7224C27.3229 14.7847 27.0672 14.9678 27.0672 14.9678L27.1677 14.6316H26.2082L26.0082 15.2987L25.0054 18.608H24.8108L24.62 19.2311H26.5311L26.467 19.4388H27.4088L27.4713 19.2311H27.7355L27.9425 18.5581ZM27.1584 15.961C27.0048 16.0033 26.7188 16.1317 26.7188 16.1317L26.9731 15.2987H27.7355L27.5516 15.9056C27.5516 15.9056 27.316 15.9194 27.1584 15.961ZM27.173 17.151C27.173 17.151 26.9336 17.181 26.7759 17.2164C26.6207 17.2633 26.3296 17.411 26.3296 17.411L26.5922 16.5441H27.3585L27.173 17.151ZM26.7459 18.5658H25.9811L26.2028 17.8342H26.9652L26.7459 18.5658ZM28.5875 16.5441H29.6899L29.5314 17.0549H28.4145L28.2468 17.6134H29.2241L28.4841 18.6511C28.4323 18.7273 28.3858 18.7543 28.3342 18.7758C28.2824 18.802 28.2144 18.8327 28.1357 18.8327H27.8645L27.6782 19.4444H28.3874C28.756 19.4444 28.9738 19.2774 29.1345 19.0582L29.642 18.3665L29.751 19.0688C29.7741 19.2004 29.869 19.2774 29.9333 19.3073C30.0043 19.3427 30.0777 19.4036 30.1813 19.4127C30.2924 19.4174 30.3727 19.4211 30.4261 19.4211H30.7746L30.9838 18.7366H30.8464C30.7674 18.7366 30.6316 18.7234 30.6084 18.6988C30.5853 18.6688 30.5853 18.6227 30.5729 18.5526L30.4623 17.8488H30.0096L30.2082 17.6134H31.323L31.4944 17.0549H30.4623L30.6231 16.5441H31.652L31.8429 15.9141H28.7752L28.5875 16.5441ZM19.2774 18.7081L19.5347 17.8557H20.5921L20.7853 17.2218H19.7269L19.8884 16.6972H20.9227L21.1144 16.0833H18.5265L18.3388 16.6972H18.9267L18.7699 17.2218H18.1804L17.985 17.8666H18.5728L18.2298 18.9942C18.1836 19.1435 18.2516 19.2004 18.2947 19.2697C18.3388 19.3373 18.3835 19.382 18.484 19.4074C18.5876 19.4304 18.6586 19.4442 18.7551 19.4442H19.9472L20.1596 18.7419L19.6312 18.8142C19.5291 18.8142 19.2465 18.802 19.2774 18.7081ZM19.3987 14.6278L19.1307 15.1101C19.0733 15.2155 19.0217 15.2808 18.9753 15.311C18.9343 15.3364 18.8532 15.347 18.7358 15.347H18.596L18.4091 15.964H18.8734C19.0967 15.964 19.2681 15.8825 19.35 15.8417C19.438 15.7948 19.4611 15.8216 19.5292 15.7562L19.686 15.621H21.136L21.3284 14.9785H20.267L20.4523 14.6278H19.3987ZM21.5393 18.7205C21.5146 18.685 21.5324 18.6226 21.5701 18.4926L21.9664 17.1863H23.3763C23.5817 17.1834 23.7301 17.181 23.8266 17.1741C23.9302 17.1633 24.0429 17.1265 24.1657 17.0603C24.2925 16.991 24.3574 16.9179 24.4121 16.834C24.4733 16.7503 24.5713 16.5672 24.6556 16.2848L25.1537 14.6317L23.6907 14.6402C23.6907 14.6402 23.2402 14.7063 23.0419 14.7794C22.8417 14.8609 22.5558 15.0886 22.5558 15.0886L22.6879 14.6354H21.7841L20.5188 18.8142C20.474 18.9765 20.4439 19.0942 20.437 19.1649C20.4346 19.2412 20.5335 19.3166 20.5976 19.3735C20.6733 19.4304 20.7852 19.4212 20.8926 19.4304C21.0055 19.4389 21.1661 19.4442 21.3878 19.4442H22.0823L22.2955 18.7274L21.6738 18.7858C21.6073 18.7858 21.5593 18.7504 21.5393 18.7205ZM22.2222 16.3041H23.703L23.6088 16.5979C23.5956 16.6048 23.564 16.5833 23.4133 16.601H22.131L22.2222 16.3041ZM22.5188 15.3186H24.0121L23.9047 15.6725C23.9047 15.6725 23.2009 15.6656 23.0881 15.6863C22.5922 15.7717 22.3024 16.0356 22.3024 16.0356L22.5188 15.3186ZM23.642 17.5818C23.6297 17.6258 23.6103 17.6525 23.5833 17.6726C23.5532 17.6919 23.5045 17.6988 23.432 17.6988H23.221L23.2334 17.341H22.3558L22.3202 19.0904C22.3188 19.2166 22.331 19.2897 22.4238 19.3482C22.5165 19.4212 22.8023 19.4305 23.1869 19.4305H23.7369L23.9355 18.7757L23.4567 18.8019L23.2975 18.8111C23.2757 18.8019 23.255 18.7934 23.2318 18.7703C23.2117 18.7505 23.1776 18.7627 23.1832 18.6364L23.1869 18.188L23.6891 18.1673C23.9602 18.1673 24.0761 18.0795 24.1749 17.9958C24.2693 17.9156 24.3001 17.8235 24.3357 17.6988L24.42 17.3018H23.73L23.642 17.5818Z" fill="#FEFEFE"/>
</g>
<defs>
<clipPath id="clip0_27_125">
<rect width="40.6695" height="27" fill="white" transform="translate(0.489441)"/>
</clipPath>
</defs>
</svg>
