<svg width="83" height="83" viewBox="0 0 83 83" fill="none" xmlns="http://www.w3.org/2000/svg">
<g clip-path="url(#clip0_142_189)">
<path d="M58.7917 0C57.8745 0 56.9948 0.364359 56.3463 1.01292C55.6977 1.66149 55.3333 2.54113 55.3333 3.45833C55.3333 13.657 46.4005 17.2917 38.0417 17.2917H13.8333C10.1645 17.2917 6.64594 18.7491 4.05169 21.3434C1.45744 23.9376 0 27.4562 0 31.125L0 38.0417C0.00755357 40.1123 0.482305 42.1545 1.38888 44.0162C2.29545 45.8778 3.61046 47.5109 5.23592 48.7936L17.5891 76.3635C18.4676 78.3385 19.8999 80.0165 21.7124 81.1943C23.5249 82.3722 25.6399 82.9994 27.8015 83C29.5214 82.9989 31.2137 82.5677 32.7244 81.7456C34.235 80.9235 35.5161 79.7367 36.451 78.2931C37.3859 76.8495 37.9449 75.195 38.0771 73.4803C38.2094 71.7655 37.9107 70.0449 37.2082 68.475L29.5999 51.875H38.0417C46.4005 51.875 55.3333 55.5097 55.3333 65.7083C55.3333 66.6255 55.6977 67.5052 56.3463 68.1537C56.9948 68.8023 57.8745 69.1667 58.7917 69.1667C59.7089 69.1667 60.5885 68.8023 61.2371 68.1537C61.8856 67.5052 62.25 66.6255 62.25 65.7083V3.45833C62.25 2.54113 61.8856 1.66149 61.2371 1.01292C60.5885 0.364359 59.7089 0 58.7917 0V0ZM30.9071 71.3074C31.1362 71.8247 31.2325 72.391 31.1874 72.955C31.1423 73.5189 30.9571 74.0627 30.6487 74.537C30.3403 75.0113 29.9183 75.4012 29.4212 75.6712C28.924 75.9412 28.3673 76.0829 27.8015 76.0833C26.9764 76.0828 26.1691 75.8426 25.4778 75.392C24.7866 74.9413 24.241 74.2997 23.9075 73.5449L14.1965 51.875H21.9915L30.9071 71.3074ZM55.3333 50.4917C50.3924 46.6847 44.2748 44.7271 38.0417 44.9583H13.8333C11.9989 44.9583 10.2396 44.2296 8.94251 42.9325C7.64538 41.6354 6.91667 39.8761 6.91667 38.0417V31.125C6.91667 29.2906 7.64538 27.5313 8.94251 26.2342C10.2396 24.937 11.9989 24.2083 13.8333 24.2083H38.0417C44.2727 24.4445 50.3901 22.4931 55.3333 18.6923V50.4917ZM82.6542 53.4382C82.4513 53.8448 82.1703 54.2074 81.8272 54.5054C81.4841 54.8033 81.0857 55.0307 80.6547 55.1746C80.2237 55.3185 79.7685 55.376 79.3153 55.3439C78.862 55.3118 78.4195 55.1907 78.0131 54.9875L71.0964 51.5292C70.2755 51.1192 69.6511 50.3999 69.3605 49.5295C69.07 48.6591 69.1371 47.709 69.5471 46.8881C69.9571 46.0672 70.6764 45.4428 71.5467 45.1522C72.4171 44.8617 73.3673 44.9288 74.1882 45.3387L81.1048 48.7971C81.9215 49.2068 82.5429 49.9231 82.8332 50.7894C83.1235 51.6558 83.0591 52.6018 82.6542 53.4209V53.4382ZM69.5471 22.3132C69.3439 21.9067 69.2228 21.4642 69.1907 21.011C69.1586 20.5577 69.2161 20.1026 69.36 19.6716C69.5039 19.2405 69.7313 18.8421 70.0292 18.499C70.3272 18.1559 70.6898 17.8749 71.0964 17.6721L78.0131 14.2137C78.834 13.8038 79.7841 13.7367 80.6545 14.0272C81.5249 14.3178 82.2442 14.9422 82.6542 15.7631C83.0642 16.584 83.1313 17.5341 82.8407 18.4045C82.5501 19.2749 81.9257 19.9942 81.1048 20.4042L74.1882 23.8625C73.7817 24.0657 73.3392 24.1868 72.886 24.2189C72.4327 24.251 71.9776 24.1935 71.5466 24.0496C71.1155 23.9057 70.7171 23.6783 70.374 23.3804C70.031 23.0824 69.7499 22.7198 69.5471 22.3132ZM69.1667 34.5833C69.1667 33.6661 69.531 32.7865 70.1796 32.1379C70.8282 31.4894 71.7078 31.125 72.625 31.125H79.5417C80.4589 31.125 81.3385 31.4894 81.9871 32.1379C82.6357 32.7865 83 33.6661 83 34.5833C83 35.5005 82.6357 36.3802 81.9871 37.0287C81.3385 37.6773 80.4589 38.0417 79.5417 38.0417H72.625C71.7078 38.0417 70.8282 37.6773 70.1796 37.0287C69.531 36.3802 69.1667 35.5005 69.1667 34.5833Z" fill="#3274FF"/>
</g>
<defs>
<clipPath id="clip0_142_189">
<rect width="83" height="83" fill="white"/>
</clipPath>
</defs>
</svg>
