<svg width="83" height="83" viewBox="0 0 83 83" fill="none" xmlns="http://www.w3.org/2000/svg">
<g clip-path="url(#clip0_142_197)">
<path d="M41.5 41.4998C45.604 41.4998 49.6158 40.2828 53.0281 38.0028C56.4404 35.7227 59.1 32.482 60.6705 28.6904C62.241 24.8989 62.6519 20.7267 61.8513 16.7016C61.0507 12.6765 59.0744 8.97924 56.1725 6.0773C53.2705 3.17536 49.5732 1.19911 45.5481 0.398471C41.523 -0.402173 37.3509 0.00874654 33.5593 1.57926C29.7678 3.14978 26.527 5.80936 24.247 9.22168C21.967 12.634 20.75 16.6458 20.75 20.7498C20.7555 26.2513 22.9434 31.526 26.8336 35.4162C30.7238 39.3064 35.9984 41.4943 41.5 41.4998ZM41.5 6.91643C44.236 6.91643 46.9105 7.72774 49.1854 9.24777C51.4603 10.7678 53.2333 12.9283 54.2803 15.456C55.3273 17.9837 55.6013 20.7651 55.0675 23.4485C54.5338 26.1319 53.2163 28.5968 51.2816 30.5314C49.347 32.466 46.8822 33.7835 44.1987 34.3173C41.5153 34.8511 38.7339 34.5771 36.2062 33.5301C33.6785 32.4831 31.518 30.71 29.998 28.4352C28.478 26.1603 27.6667 23.4857 27.6667 20.7498C27.6667 17.0809 29.1241 13.5624 31.7184 10.9681C34.3126 8.37387 37.8312 6.91643 41.5 6.91643Z" fill="#3274FF"/>
<path d="M41.5 48.4188C33.2479 48.4279 25.3365 51.7101 19.5014 57.5452C13.6663 63.3803 10.3842 71.2917 10.375 79.5438C10.375 80.461 10.7394 81.3406 11.3879 81.9892C12.0365 82.6377 12.9161 83.0021 13.8333 83.0021C14.7505 83.0021 15.6302 82.6377 16.2787 81.9892C16.9273 81.3406 17.2917 80.461 17.2917 79.5438C17.2917 73.1233 19.8422 66.9658 24.3821 62.4259C28.9221 57.8859 35.0796 55.3354 41.5 55.3354C47.9205 55.3354 54.0779 57.8859 58.6179 62.4259C63.1578 66.9658 65.7083 73.1233 65.7083 79.5438C65.7083 80.461 66.0727 81.3406 66.7213 81.9892C67.3698 82.6377 68.2495 83.0021 69.1667 83.0021C70.0839 83.0021 70.9635 82.6377 71.6121 81.9892C72.2606 81.3406 72.625 80.461 72.625 79.5438C72.6158 71.2917 69.3337 63.3803 63.4986 57.5452C57.6635 51.7101 49.7521 48.4279 41.5 48.4188Z" fill="#3274FF"/>
</g>
<defs>
<clipPath id="clip0_142_197">
<rect width="83" height="83" fill="white"/>
</clipPath>
</defs>
</svg>
