<svg width="88" height="88" viewBox="0 0 88 88" fill="none" xmlns="http://www.w3.org/2000/svg">
<g clip-path="url(#clip0_142_204)">
<path d="M26.2083 51.4167C26.2083 52.3339 25.844 53.2135 25.1954 53.8621C24.5468 54.5106 23.6672 54.875 22.75 54.875H19.2917C18.3745 54.875 17.4948 54.5106 16.8463 53.8621C16.1977 53.2135 15.8333 52.3339 15.8333 51.4167C15.8333 50.4995 16.1977 49.6198 16.8463 48.9713C17.4948 48.3227 18.3745 47.9583 19.2917 47.9583H22.75C23.6672 47.9583 24.5468 48.3227 25.1954 48.9713C25.844 49.6198 26.2083 50.4995 26.2083 51.4167ZM40.0417 47.9583H36.5833C35.6661 47.9583 34.7865 48.3227 34.1379 48.9713C33.4894 49.6198 33.125 50.4995 33.125 51.4167C33.125 52.3339 33.4894 53.2135 34.1379 53.8621C34.7865 54.5106 35.6661 54.875 36.5833 54.875H40.0417C40.9589 54.875 41.8385 54.5106 42.4871 53.8621C43.1356 53.2135 43.5 52.3339 43.5 51.4167C43.5 50.4995 43.1356 49.6198 42.4871 48.9713C41.8385 48.3227 40.9589 47.9583 40.0417 47.9583ZM22.75 61.7917H19.2917C18.3745 61.7917 17.4948 62.156 16.8463 62.8046C16.1977 63.4531 15.8333 64.3328 15.8333 65.25C15.8333 66.1672 16.1977 67.0469 16.8463 67.6954C17.4948 68.344 18.3745 68.7083 19.2917 68.7083H22.75C23.6672 68.7083 24.5468 68.344 25.1954 67.6954C25.844 67.0469 26.2083 66.1672 26.2083 65.25C26.2083 64.3328 25.844 63.4531 25.1954 62.8046C24.5468 62.156 23.6672 61.7917 22.75 61.7917ZM40.0417 61.7917H36.5833C35.6661 61.7917 34.7865 62.156 34.1379 62.8046C33.4894 63.4531 33.125 64.3328 33.125 65.25C33.125 66.1672 33.4894 67.0469 34.1379 67.6954C34.7865 68.344 35.6661 68.7083 36.5833 68.7083H40.0417C40.9589 68.7083 41.8385 68.344 42.4871 67.6954C43.1356 67.0469 43.5 66.1672 43.5 65.25C43.5 64.3328 43.1356 63.4531 42.4871 62.8046C41.8385 62.156 40.9589 61.7917 40.0417 61.7917ZM22.75 20.2917H19.2917C18.3745 20.2917 17.4948 20.656 16.8463 21.3046C16.1977 21.9532 15.8333 22.8328 15.8333 23.75C15.8333 24.6672 16.1977 25.5468 16.8463 26.1954C17.4948 26.844 18.3745 27.2083 19.2917 27.2083H22.75C23.6672 27.2083 24.5468 26.844 25.1954 26.1954C25.844 25.5468 26.2083 24.6672 26.2083 23.75C26.2083 22.8328 25.844 21.9532 25.1954 21.3046C24.5468 20.656 23.6672 20.2917 22.75 20.2917ZM40.0417 20.2917H36.5833C35.6661 20.2917 34.7865 20.656 34.1379 21.3046C33.4894 21.9532 33.125 22.8328 33.125 23.75C33.125 24.6672 33.4894 25.5468 34.1379 26.1954C34.7865 26.844 35.6661 27.2083 36.5833 27.2083H40.0417C40.9589 27.2083 41.8385 26.844 42.4871 26.1954C43.1356 25.5468 43.5 24.6672 43.5 23.75C43.5 22.8328 43.1356 21.9532 42.4871 21.3046C41.8385 20.656 40.9589 20.2917 40.0417 20.2917ZM22.75 34.125H19.2917C18.3745 34.125 17.4948 34.4894 16.8463 35.1379C16.1977 35.7865 15.8333 36.6661 15.8333 37.5833C15.8333 38.5005 16.1977 39.3802 16.8463 40.0287C17.4948 40.6773 18.3745 41.0417 19.2917 41.0417H22.75C23.6672 41.0417 24.5468 40.6773 25.1954 40.0287C25.844 39.3802 26.2083 38.5005 26.2083 37.5833C26.2083 36.6661 25.844 35.7865 25.1954 35.1379C24.5468 34.4894 23.6672 34.125 22.75 34.125ZM40.0417 34.125H36.5833C35.6661 34.125 34.7865 34.4894 34.1379 35.1379C33.4894 35.7865 33.125 36.6661 33.125 37.5833C33.125 38.5005 33.4894 39.3802 34.1379 40.0287C34.7865 40.6773 35.6661 41.0417 36.5833 41.0417H40.0417C40.9589 41.0417 41.8385 40.6773 42.4871 40.0287C43.1356 39.3802 43.5 38.5005 43.5 37.5833C43.5 36.6661 43.1356 35.7865 42.4871 35.1379C41.8385 34.4894 40.9589 34.125 40.0417 34.125ZM85 37.5833V68.7083C84.9945 73.2927 83.171 77.6877 79.9293 80.9293C76.6877 84.171 72.2927 85.9945 67.7083 86H19.2917C14.7073 85.9945 10.3123 84.171 7.07068 80.9293C3.82905 77.6877 2.00549 73.2927 2 68.7083L2 20.2917C2.00549 15.7073 3.82905 11.3123 7.07068 8.07068C10.3123 4.82905 14.7073 3.00549 19.2917 3L40.0417 3C44.626 3.00549 49.021 4.82905 52.2627 8.07068C55.5043 11.3123 57.3278 15.7073 57.3333 20.2917H67.7083C72.2927 20.2972 76.6877 22.1207 79.9293 25.3623C83.171 28.604 84.9945 32.999 85 37.5833ZM19.2917 79.0833H50.4167V20.2917C50.4167 17.54 49.3236 14.9011 47.3779 12.9554C45.4322 11.0097 42.7933 9.91667 40.0417 9.91667H19.2917C16.54 9.91667 13.9011 11.0097 11.9554 12.9554C10.0097 14.9011 8.91667 17.54 8.91667 20.2917V68.7083C8.91667 71.46 10.0097 74.0989 11.9554 76.0446C13.9011 77.9903 16.54 79.0833 19.2917 79.0833ZM78.0833 37.5833C78.0833 34.8317 76.9903 32.1928 75.0446 30.2471C73.0989 28.3014 70.46 27.2083 67.7083 27.2083H57.3333V79.0833H67.7083C70.46 79.0833 73.0989 77.9903 75.0446 76.0446C76.9903 74.0989 78.0833 71.46 78.0833 68.7083V37.5833ZM67.7083 47.9583C67.0243 47.9583 66.3557 48.1612 65.787 48.5412C65.2183 48.9212 64.775 49.4613 64.5132 50.0932C64.2515 50.7251 64.183 51.4205 64.3164 52.0914C64.4499 52.7622 64.7793 53.3784 65.2629 53.8621C65.7466 54.3457 66.3628 54.6751 67.0336 54.8085C67.7045 54.942 68.3998 54.8735 69.0318 54.6117C69.6637 54.35 70.2038 53.9067 70.5838 53.338C70.9638 52.7693 71.1667 52.1007 71.1667 51.4167C71.1667 50.4995 70.8023 49.6198 70.1537 48.9713C69.5052 48.3227 68.6255 47.9583 67.7083 47.9583ZM67.7083 61.7917C67.0243 61.7917 66.3557 61.9945 65.787 62.3745C65.2183 62.7545 64.775 63.2946 64.5132 63.9266C64.2515 64.5585 64.183 65.2538 64.3164 65.9247C64.4499 66.5955 64.7793 67.2118 65.2629 67.6954C65.7466 68.1791 66.3628 68.5084 67.0336 68.6419C67.7045 68.7753 68.3998 68.7068 69.0318 68.4451C69.6637 68.1833 70.2038 67.7401 70.5838 67.1713C70.9638 66.6026 71.1667 65.934 71.1667 65.25C71.1667 64.3328 70.8023 63.4531 70.1537 62.8046C69.5052 62.156 68.6255 61.7917 67.7083 61.7917ZM67.7083 34.125C67.0243 34.125 66.3557 34.3278 65.787 34.7078C65.2183 35.0878 64.775 35.628 64.5132 36.2599C64.2515 36.8918 64.183 37.5872 64.3164 38.258C64.4499 38.9289 64.7793 39.5451 65.2629 40.0287C65.7466 40.5124 66.3628 40.8418 67.0336 40.9752C67.7045 41.1087 68.3998 41.0402 69.0318 40.7784C69.6637 40.5167 70.2038 40.0734 70.5838 39.5047C70.9638 38.936 71.1667 38.2673 71.1667 37.5833C71.1667 36.6661 70.8023 35.7865 70.1537 35.1379C69.5052 34.4894 68.6255 34.125 67.7083 34.125Z" fill="#3274FF"/>
</g>
<defs>
<clipPath id="clip0_142_204">
<rect width="83" height="83" fill="white" transform="translate(2 3)"/>
</clipPath>
</defs>
</svg>
