<svg width="52" height="54" viewBox="0 0 52 54" fill="none" xmlns="http://www.w3.org/2000/svg">
<path d="M23.7193 17.7647C25.3943 14.3813 23.3911 11.0604 19.64 11.0604C17.0592 11.0604 14.294 12.7075 13.0711 15.1779C11.3959 18.5617 13.3998 21.8819 17.1503 21.8823C17.2396 21.8705 18.6991 21.9618 20.4893 21.0106C21.9095 20.2561 23.0566 19.1032 23.7193 17.7647ZM17.1508 19.773H17.1504C16.0149 19.7728 15.1235 19.2912 14.766 18.4844C14.1148 17.0154 15.271 14.8678 17.2906 13.7946C18.0603 13.3857 18.8726 13.1696 19.6399 13.1696C20.7753 13.1696 21.6667 13.6511 22.0243 14.4581C22.6755 15.9271 21.5193 18.0747 19.4995 19.1479C18.73 19.5567 17.9178 19.773 17.1508 19.773ZM13.416 27.6921C14.1655 25.4821 12.9819 23.072 10.7771 22.3199C8.56347 21.5642 6.16516 22.7528 5.41445 24.9661C4.66511 27.1762 5.84887 29.5862 8.05333 30.3383C10.2521 31.089 12.661 29.9185 13.416 27.6921ZM7.41209 25.6435C7.7884 24.5341 8.98608 23.9376 10.0959 24.3161C11.2018 24.6935 11.7951 25.904 11.4184 27.0146C11.0429 28.1217 9.84647 28.7213 8.73464 28.342C7.62883 27.9646 7.03558 26.7541 7.41209 25.6435ZM9.77359 34.4953C7.68483 35.5268 6.8218 38.0698 7.84967 40.1639C8.90655 42.3173 11.4595 43.1055 13.5087 42.0935C15.5976 41.062 16.4606 38.5189 15.4327 36.4247C14.3772 34.2744 11.8273 33.4807 9.77359 34.4953ZM12.5747 40.2021C11.5316 40.7172 10.2645 40.2963 9.74311 39.2345C9.22654 38.1819 9.65916 36.9042 10.7077 36.3865C10.957 36.263 11.2282 36.19 11.5058 36.1719C11.7834 36.1537 12.0618 36.1907 12.325 36.2806C12.5882 36.3706 12.831 36.5117 13.0394 36.696C13.2478 36.8802 13.4177 37.1039 13.5393 37.3541C14.0558 38.4068 13.6232 39.6844 12.5747 40.2021ZM23.0119 41.1671C20.8026 40.4131 18.4013 41.5958 17.6494 43.8133C16.8999 46.0232 18.0836 48.4333 20.2883 49.1855C22.4963 49.939 24.8983 48.7579 25.6508 46.5395C26.4002 44.3295 25.2165 41.9194 23.0119 41.1671ZM23.6533 45.862C23.2764 46.9732 22.0772 47.5673 20.9696 47.1893C19.8638 46.8119 19.2704 45.6014 19.6472 44.4907C20.0225 43.3836 21.219 42.7842 22.3307 43.1634C23.4366 43.5408 24.0298 44.7514 23.6533 45.862ZM31.7115 39.1447C29.6227 40.1762 28.7597 42.7192 29.7875 44.8133C30.8434 46.9641 33.3948 47.7562 35.4468 46.7428C37.5354 45.7113 38.3984 43.1683 37.3706 41.0742C36.3151 38.9236 33.7652 38.1306 31.7115 39.1447ZM34.5127 44.8515C33.4696 45.3668 32.2021 44.9456 31.6809 43.8839C31.1643 42.8313 31.5969 41.5536 32.6453 41.0359C32.8945 40.9124 33.1658 40.8395 33.4434 40.8213C33.721 40.8031 33.9995 40.8401 34.2627 40.93C34.526 41.02 34.7688 41.1612 34.9772 41.3454C35.1857 41.5297 35.3556 41.7534 35.4771 42.0036C35.9936 43.0562 35.5611 44.3338 34.5127 44.8515ZM36.4395 31.5413C35.69 33.7514 36.8736 36.1614 39.0784 36.9136C41.2771 37.6642 43.6858 36.4939 44.441 34.2674C45.1905 32.0574 44.0069 29.6474 41.8021 28.8952C39.5883 28.1396 37.19 29.3282 36.4395 31.5413ZM42.4434 33.5899C42.068 34.697 40.8714 35.2966 39.7596 34.9173C38.6537 34.5399 38.0604 33.3294 38.4371 32.2188C38.8134 31.1094 40.011 30.5128 41.1209 30.8914C42.2268 31.2688 42.82 32.4792 42.4434 33.5899Z" fill="white"/>
<path d="M50.2234 13.5459C53.2025 7.80588 49.4541 0.841396 49.2931 0.547778C49.171 0.325068 48.9726 0.153908 48.7344 0.06575C48.4962 -0.0224084 48.2342 -0.0216431 47.9965 0.0679052C47.9038 0.102815 45.6985 0.936844 43.2776 2.13104C39.8357 3.82863 37.8153 5.32309 37.1009 6.69974C36.0212 8.78028 36.2443 11.2283 37.4661 13.2256L31.2333 26.0051C30.0817 25.8402 29.0517 25.1905 28.4056 24.1952L28.0774 23.6896C26.8063 21.7316 27.2904 18.8717 29.1346 17.445C31.4711 15.6373 32.3675 12.6531 31.4184 9.84264C30.48 7.06455 27.9898 5.25633 25.0743 5.23576C14.0886 5.15614 3.78075 12.6574 1.20958 24.3912C-0.198607 30.8175 0.97861 37.3802 4.5246 42.8703C11.8908 54.2748 26.9941 57.3606 38.193 50.0463C46.2714 44.7702 50.4813 35.1949 48.9181 25.6521C48.4083 22.5388 45.4383 20.5186 42.3933 21.1459L44.6807 16.9959C47.0821 16.8518 49.1792 15.558 50.2234 13.5459ZM33.8192 25.5146L38.9519 14.9908C39.9354 15.8581 41.1146 16.4738 42.3884 16.7851L39.17 22.624L33.8192 25.5146ZM38.973 7.67141C39.8091 6.06051 44.521 3.73076 47.8384 2.39386C48.6506 4.25355 50.2744 8.86887 48.3512 12.5742C47.2109 14.7714 44.1846 15.6088 41.5358 14.2257C38.9482 12.8747 37.7986 9.9344 38.973 7.67141ZM46.8366 25.9929C48.2647 34.7122 44.4192 43.4604 37.0395 48.2802C26.8399 54.9414 13.0418 52.1694 6.29644 41.7258C3.05778 36.7115 1.98286 30.7156 3.26998 24.8426C5.60553 14.1843 14.9724 7.26515 25.0595 7.34509C27.4901 7.36218 28.9057 8.99512 29.4199 10.5175C29.9429 12.0659 29.8034 14.2605 27.8439 15.7766C25.1212 17.8832 24.4321 21.9481 26.3081 24.8381L26.6363 25.3436C28.4146 28.0833 31.9488 28.9226 34.7377 27.4158L41.8911 23.5515C43.9401 22.4444 46.4584 23.6838 46.8366 25.9929Z" fill="white"/>
</svg>
