<svg width="54" height="54" viewBox="0 0 54 54" fill="none" xmlns="http://www.w3.org/2000/svg">
<path d="M10.9923 49.9342C11.128 50.6288 11.5008 51.2546 12.0471 51.7046C12.5933 52.1546 13.279 52.4008 13.9867 52.401C14.755 52.4012 15.4955 52.1131 16.0618 51.5938C16.2499 52.0655 16.5525 52.483 16.9422 52.8086C17.332 53.1342 17.7966 53.3576 18.2943 53.4587C18.792 53.5599 19.307 53.5356 19.7929 53.388C20.2788 53.2404 20.7203 52.9741 21.0777 52.6133C21.3051 53.0322 21.6411 53.382 22.0504 53.6261C22.4598 53.8703 22.9273 53.9996 23.4039 54.0006C23.5795 54.0005 23.7547 53.9833 23.927 53.9493C24.2698 53.8829 24.5961 53.7492 24.8869 53.556C25.1777 53.3627 25.4273 53.1137 25.6213 52.8233L25.8308 52.5107L27.8283 53.5731C28.2498 53.7983 28.7203 53.9162 29.1982 53.9165C29.4914 53.9161 29.7828 53.8722 30.0631 53.7862C30.6748 53.6009 31.2089 53.2204 31.584 52.7029C31.959 52.1854 32.1543 51.5593 32.14 50.9203C32.3092 50.9474 32.4803 50.9613 32.6517 50.9618C32.9865 50.9614 33.3195 50.9113 33.6395 50.8129C34.3699 50.5916 35.0024 50.1267 35.4317 49.4956C35.8609 48.8646 36.061 48.1056 35.9987 47.3449C36.5018 47.4467 37.0216 47.4313 37.5178 47.3001C38.014 47.1688 38.4734 46.9252 38.8605 46.588C39.2475 46.2508 39.5518 45.8291 39.7498 45.3555C39.9477 44.882 40.0341 44.3692 40.0023 43.8569C40.733 44.0516 41.5081 43.9932 42.2014 43.6911C42.8947 43.3891 43.4653 42.8612 43.8202 42.1934C44.1374 41.6027 44.2577 40.9262 44.1636 40.2624C44.473 40.4942 44.8335 40.6483 45.2149 40.7115C45.5962 40.7748 45.9872 40.7455 46.3548 40.6259L51.8334 38.8511C52.4437 38.6526 52.9504 38.2201 53.2423 37.6485C53.5341 37.0769 53.5873 36.4129 53.3902 35.8021L48.8056 21.6493C48.6322 21.1165 48.2797 20.6603 47.808 20.3581C47.3363 20.0558 46.7745 19.9263 46.2181 19.9914V9.24444C46.218 9.13288 46.1959 9.02242 46.1529 8.91946C46.11 8.81651 46.047 8.7231 45.9677 8.64464L37.4768 0.243949C37.3189 0.0876757 37.1056 1.51927e-05 36.8834 0L8.62646 0C8.40268 0 8.18807 0.0888949 8.02984 0.247129C7.8716 0.405362 7.78271 0.619974 7.78271 0.84375V19.9914C7.22628 19.9262 6.66445 20.0557 6.19274 20.358C5.72103 20.6602 5.36856 21.1165 5.19524 21.6493L0.610307 35.8016C0.413183 36.4124 0.466388 37.0764 0.758249 37.648C1.05011 38.2196 1.55679 38.6521 2.16713 38.8506L7.64571 40.6254C7.88671 40.7038 8.13856 40.7439 8.392 40.7441C8.55226 40.7437 8.71208 40.7272 8.86904 40.6949C9.12384 41.2083 9.4747 41.6681 9.90263 42.0494C9.79939 42.1625 9.70473 42.2831 9.61945 42.4103L8.38546 44.2508C8.07695 44.7105 7.89901 45.2453 7.87065 45.7982C7.84228 46.3511 7.96454 46.9013 8.22439 47.3901C8.48424 47.879 8.87193 48.2881 9.34609 48.5739C9.82025 48.8596 10.3631 49.0113 10.9167 49.0127C10.9279 49.0127 10.9391 49.012 10.9501 49.0119C10.9178 49.3197 10.932 49.6306 10.9923 49.9342ZM16.3648 48.2659L15.1308 50.1064C14.9255 50.402 14.6122 50.6051 14.2585 50.6719C13.9048 50.7387 13.5391 50.6639 13.2401 50.4635C12.9411 50.2631 12.7328 49.9532 12.6601 49.6007C12.5875 49.2482 12.6562 48.8812 12.8516 48.5789L13.4685 47.6587L14.0857 46.7381C14.1859 46.5885 14.3148 46.4603 14.4648 46.3609C14.6149 46.2615 14.7832 46.1929 14.96 46.1589C15.0495 46.1412 15.1406 46.1322 15.2319 46.1321C15.4795 46.134 15.722 46.2027 15.9337 46.3311C16.1454 46.4595 16.3185 46.6428 16.4346 46.8615C16.5507 47.0802 16.6055 47.3263 16.5932 47.5736C16.581 47.8209 16.502 48.0603 16.3648 48.2664V48.2659ZM21.276 49.3848L20.042 51.2253C19.8394 51.5276 19.525 51.737 19.168 51.8075C18.811 51.8779 18.4406 51.8037 18.1383 51.6011C17.8361 51.3984 17.6267 51.0841 17.5562 50.727C17.4857 50.37 17.56 49.9997 17.7626 49.6974L18.9966 47.8568C19.1992 47.5545 19.5136 47.3451 19.8706 47.2747C20.2276 47.2042 20.598 47.2785 20.9003 47.4811C21.2025 47.6837 21.4119 47.9981 21.4824 48.3551C21.5528 48.7121 21.4786 49.0825 21.276 49.3848ZM25.231 50.3762L24.2203 51.8844C24.0746 52.0929 23.8529 52.236 23.6028 52.2828C23.3527 52.3296 23.0942 52.2765 22.8829 52.1348C22.6716 51.9931 22.5243 51.7742 22.4726 51.5251C22.421 51.276 22.4691 51.0165 22.6067 50.8025L23.6175 49.2943C23.6879 49.187 23.7789 49.0947 23.8853 49.0227C23.9916 48.9508 24.1111 48.9006 24.237 48.8752C24.3628 48.8497 24.4924 48.8494 24.6184 48.8744C24.7443 48.8993 24.864 48.949 24.9707 49.0205C25.0773 49.092 25.1687 49.1839 25.2396 49.2909C25.3105 49.398 25.3594 49.518 25.3837 49.6441C25.4079 49.7701 25.4069 49.8998 25.3807 50.0255C25.3545 50.1511 25.3037 50.2704 25.2311 50.3763L25.231 50.3762ZM42.3311 41.4008C42.1227 41.7886 41.7695 42.0784 41.3484 42.2071C40.9273 42.3358 40.4725 42.2929 40.0828 42.0878L38.2344 41.1048H38.2334L33.8078 38.7503C33.6102 38.6452 33.379 38.6229 33.165 38.6883C32.9509 38.7537 32.7717 38.9014 32.6666 39.099C32.5615 39.2965 32.5392 39.5277 32.6046 39.7418C32.67 39.9558 32.8177 40.135 33.0153 40.2401L34.8641 41.2235L37.4405 42.5938C37.6332 42.6963 37.8039 42.8358 37.9427 43.0043C38.0815 43.1727 38.1858 43.3669 38.2495 43.5757C38.3133 43.7845 38.3353 44.0038 38.3144 44.2211C38.2934 44.4383 38.2298 44.6494 38.1273 44.8421C38.0247 45.0348 37.8853 45.2055 37.7168 45.3443C37.5483 45.4831 37.3541 45.5873 37.1454 45.6511C36.9366 45.7149 36.7173 45.7369 36.5 45.7159C36.2827 45.695 36.0717 45.6314 35.879 45.5289L31.4537 43.1752C31.2561 43.0701 31.0249 43.0478 30.8109 43.1132C30.5969 43.1786 30.4176 43.3263 30.3125 43.5239C30.2074 43.7215 30.1851 43.9527 30.2505 44.1667C30.3159 44.3807 30.4636 44.56 30.6612 44.6651L33.4409 46.1435H33.4416C33.825 46.3537 34.1102 46.7065 34.2354 47.1254C34.3606 47.5444 34.3157 47.9958 34.1104 48.3819C33.9051 48.7679 33.5559 49.0576 33.1386 49.188C32.7212 49.3185 32.2693 49.2792 31.8806 49.0788L30.5853 48.3898L27.8367 46.9285C27.7389 46.8756 27.6315 46.8426 27.5208 46.8314C27.4101 46.8202 27.2982 46.831 27.1917 46.8632C27.0852 46.8953 26.9861 46.9482 26.9001 47.0189C26.8142 47.0895 26.743 47.1764 26.6907 47.2747C26.6385 47.3729 26.6062 47.4805 26.5957 47.5913C26.5852 47.702 26.5967 47.8138 26.6296 47.9201C26.6625 48.0264 26.716 48.1252 26.7872 48.2107C26.8584 48.2962 26.9458 48.3668 27.0444 48.4184L29.7923 49.88C30.0845 50.0354 30.3029 50.3004 30.3996 50.6169C30.4963 50.9333 30.4634 51.2752 30.308 51.5674C30.1526 51.8595 29.8875 52.0779 29.5711 52.1747C29.2546 52.2714 28.9127 52.2384 28.6206 52.083L26.7643 51.0956C27.0427 50.579 27.1424 49.9849 27.0478 49.4058C26.9532 48.8266 26.6696 48.2951 26.2413 47.894C25.813 47.4929 25.264 47.2448 24.6799 47.1884C24.0958 47.1319 23.5095 47.2703 23.0123 47.582C22.8414 47.1077 22.5559 46.683 22.1811 46.3457C21.8063 46.0085 21.354 45.7692 20.8643 45.6491C20.3746 45.529 19.8629 45.5319 19.3746 45.6576C18.8863 45.7832 18.4367 46.0276 18.0658 46.3691C17.8385 45.7966 17.4433 45.3064 16.9321 44.9627C16.4209 44.6191 15.8177 44.4382 15.2018 44.4438C15.2548 43.9598 15.1913 43.4701 15.0167 43.0156C14.842 42.5611 14.5613 42.1549 14.1979 41.8308C13.8344 41.5068 13.3988 41.2743 12.9273 41.1528C12.4558 41.0312 11.9621 41.0241 11.4873 41.1321C11.4612 41.111 11.4338 41.0914 11.4054 41.0735C10.9175 40.7698 10.5355 40.3227 10.3117 39.7934C10.4798 39.5754 10.6093 39.3302 10.6946 39.0686L14.4483 27.482C15.1414 27.7118 15.8655 27.835 16.5956 27.8472C17.0356 27.8507 17.4736 27.789 17.8955 27.6639C17.9732 27.6403 18.047 27.6056 18.1147 27.5608C19.9482 26.3502 21.5777 25.8359 22.9597 26.0315C23.7378 26.2414 24.5046 26.4911 25.2572 26.7795C22.5357 28.2018 20.0976 30.1103 18.0634 32.4105C17.9582 32.5294 17.8886 32.6755 17.8627 32.8321C17.8368 32.9887 17.8556 33.1494 17.9169 33.2959C18.3398 34.3056 19.3708 36.7676 21.5414 36.7673C21.9048 36.7638 22.2652 36.7019 22.6089 36.5839L31.0088 33.8052C33.9321 34.6715 36.7971 35.7224 41.5515 39.0954C42.2761 39.6095 42.798 40.5216 42.3306 41.4005L42.3311 41.4008ZM42.5284 37.7194C37.4243 34.0984 34.3926 33.0376 31.2319 32.112C31.0675 32.0639 30.8924 32.0669 30.7298 32.1206L22.0794 34.9823C21.263 35.2525 20.5651 35.0245 19.688 33.1314C22.6924 29.8852 26.5534 27.5547 30.8255 26.4087C32.2072 26.2128 33.8369 26.7274 35.6703 27.938C35.7381 27.9828 35.8119 28.0175 35.8896 28.0411C36.9329 28.3585 38.1941 28.2626 39.642 27.7579L42.9916 38.0974C42.8456 37.9611 42.6907 37.8347 42.5279 37.7191L42.5284 37.7194ZM46.2771 21.698C46.4621 21.6382 46.6633 21.6543 46.8365 21.7427C47.0097 21.8311 47.1407 21.9846 47.2008 22.1695L51.7855 36.3215C51.8453 36.5066 51.8292 36.7077 51.7408 36.8809C51.6524 37.0541 51.4989 37.1851 51.314 37.2452L45.8355 39.0201C45.6505 39.0791 45.4496 39.0627 45.2767 38.9744C45.1037 38.8861 44.9726 38.733 44.9119 38.5485L40.3266 24.3962C40.2675 24.2111 40.2839 24.0102 40.3722 23.8372C40.4606 23.6642 40.6137 23.5331 40.7982 23.4725L46.2771 21.698ZM38.0419 3.17682L43.0948 8.17604H38.0419V3.17682ZM9.47021 1.6875H36.3542V9.01979C36.3542 9.24357 36.4431 9.45818 36.6013 9.61642C36.7596 9.77465 36.9742 9.86354 37.1979 9.86354H44.5303V20.4895L40.2779 21.8672C39.6676 22.0657 39.161 22.4982 38.8691 23.0698C38.5772 23.6414 38.524 24.3054 38.721 24.9163L39.1218 26.152C38.0611 26.5279 37.1766 26.6303 36.4883 26.4563C34.3185 25.0483 32.3133 24.4735 30.5264 24.7468C30.4961 24.7514 30.4661 24.7577 30.4364 24.7656C29.3682 25.0509 28.3198 25.4057 27.2979 25.8279C27.2471 25.7893 27.192 25.7565 27.1338 25.7303C25.9097 25.1835 24.644 24.7349 23.3488 24.3887C23.3192 24.3807 23.2891 24.3745 23.2588 24.3699C21.4722 24.0962 19.4669 24.6714 17.297 26.0794C16.6748 26.2367 15.8943 26.1686 14.9684 25.8774L15.2797 24.9161C15.4768 24.3054 15.4235 23.6414 15.1316 23.0698C14.8398 22.4982 14.3332 22.0657 13.7229 21.8672L9.47042 20.4895L9.47021 1.6875ZM9.08926 38.5488C9.02868 38.7334 8.89761 38.8865 8.7246 38.9749C8.55159 39.0632 8.35068 39.0796 8.16567 39.0204L2.6872 37.2452C2.50226 37.1852 2.34869 37.0542 2.26021 36.881C2.17173 36.7079 2.15555 36.5067 2.21523 36.3216L6.80058 22.1695C6.83022 22.0779 6.87763 21.993 6.94009 21.9197C7.00255 21.8464 7.07884 21.7862 7.16461 21.7424C7.25037 21.6986 7.34392 21.6721 7.43992 21.6645C7.53592 21.6569 7.63247 21.6683 7.72407 21.698L13.2026 23.4728C13.3872 23.5335 13.5403 23.6646 13.6286 23.8376C13.7169 24.0106 13.7333 24.2115 13.6742 24.3965L9.08926 38.5488ZM10.1631 47.0944C9.86121 46.8915 9.65213 46.577 9.58178 46.2201C9.51143 45.8631 9.58555 45.4929 9.78788 45.1905L11.0219 43.3499C11.1222 43.2002 11.251 43.0718 11.401 42.9719C11.551 42.872 11.7191 42.8026 11.8959 42.7678C12.0727 42.7329 12.2546 42.7332 12.4313 42.7686C12.6079 42.804 12.7759 42.8739 12.9256 42.9742C13.0752 43.0745 13.2037 43.2034 13.3036 43.3533C13.4034 43.5033 13.4728 43.6715 13.5077 43.8482C13.5426 44.025 13.5423 44.2069 13.5069 44.3836C13.4715 44.5603 13.4016 44.7282 13.3013 44.8779L12.6848 45.7975V45.7982L12.0679 46.7184C11.8642 47.0193 11.5499 47.2276 11.1933 47.298C10.8368 47.3683 10.467 47.2951 10.1642 47.0941L10.1631 47.0944ZM11.7979 25.0033C11.7982 25.1703 11.7489 25.3336 11.6564 25.4727C11.5638 25.6117 11.4322 25.7202 11.278 25.7845C11.1238 25.8488 10.9541 25.8659 10.7902 25.8337C10.6263 25.8016 10.4756 25.7215 10.3571 25.6038C10.2387 25.486 10.1578 25.3358 10.1247 25.1721C10.0915 25.0084 10.1077 24.8385 10.171 24.684C10.2344 24.5295 10.3421 24.3972 10.4806 24.3038C10.6191 24.2105 10.7822 24.1602 10.9492 24.1595H10.9542C11.1779 24.1595 11.3924 24.2484 11.5506 24.4066C11.7088 24.5647 11.7977 24.7792 11.7978 25.0029L11.7979 25.0033ZM42.161 24.8849C42.1607 24.7743 42.1822 24.6646 42.2244 24.5623C42.2665 24.4599 42.3284 24.3669 42.4066 24.2886C42.4847 24.2102 42.5775 24.148 42.6797 24.1055C42.782 24.0631 42.8915 24.0412 43.0022 24.0412H43.0072C43.1739 24.0417 43.3368 24.0916 43.4753 24.1846C43.6137 24.2776 43.7215 24.4095 43.785 24.5637C43.8484 24.7179 43.8648 24.8875 43.832 25.051C43.7991 25.2145 43.7186 25.3646 43.6005 25.4824C43.4824 25.6002 43.3321 25.6803 43.1685 25.7126C43.0048 25.745 42.8353 25.7281 42.6813 25.6642C42.5273 25.6003 42.3956 25.4921 42.303 25.3534C42.2104 25.2147 42.161 25.0517 42.161 24.8849ZM13.5779 6.41429C13.5779 6.19052 13.6668 5.97591 13.825 5.81767C13.9833 5.65944 14.1979 5.57054 14.4217 5.57054H32.9016C33.1253 5.57054 33.34 5.65944 33.4982 5.81767C33.6564 5.97591 33.7453 6.19052 33.7453 6.41429C33.7453 6.63807 33.6564 6.85268 33.4982 7.01091C33.34 7.16915 33.1253 7.25804 32.9016 7.25804H14.4217C14.1979 7.25804 13.9833 7.16915 13.825 7.01091C13.6668 6.85268 13.5779 6.63807 13.5779 6.41429ZM13.5779 13.6022C13.5779 13.3784 13.6668 13.1638 13.825 13.0056C13.9833 12.8473 14.1979 12.7584 14.4217 12.7584H39.5791C39.8029 12.7584 40.0175 12.8473 40.1757 13.0056C40.334 13.1638 40.4229 13.3784 40.4229 13.6022C40.4229 13.826 40.334 14.0406 40.1757 14.1988C40.0175 14.3571 39.8029 14.4459 39.5791 14.4459H14.4217C14.1979 14.4459 13.9833 14.3571 13.825 14.1988C13.6668 14.0406 13.5779 13.826 13.5779 13.6022ZM13.5779 20.79C13.5779 20.5662 13.6668 20.3516 13.825 20.1934C13.9833 20.0351 14.1979 19.9462 14.4217 19.9462H39.5791C39.8029 19.9462 40.0175 20.0351 40.1757 20.1934C40.334 20.3516 40.4229 20.5662 40.4229 20.79C40.4229 21.0138 40.334 21.2284 40.1757 21.3866C40.0175 21.5449 39.8029 21.6337 39.5791 21.6337H14.4217C14.1979 21.6337 13.9833 21.5449 13.825 21.3866C13.6668 21.2284 13.5779 21.0138 13.5779 20.79Z" fill="white"/>
</svg>
