<svg width="23" height="23" viewBox="0 0 23 23" fill="none" xmlns="http://www.w3.org/2000/svg">
<path d="M11.5 0C5.15865 0 0 5.15865 0 11.5C0 17.8414 5.15865 23 11.5 23C17.8414 23 23 17.8414 23 11.5C23 5.15865 17.8414 0 11.5 0Z" fill="#3274FF"/>
<path d="M17.3285 9.06299L11.0993 15.292C10.9124 15.4789 10.6671 15.573 10.4218 15.573C10.1765 15.573 9.93115 15.4789 9.74428 15.292L6.62975 12.1775C6.25493 11.8029 6.25493 11.1971 6.62975 10.8225C7.0044 10.4477 7.60995 10.4477 7.98478 10.8225L10.4218 13.2595L15.9735 7.70796C16.3482 7.33313 16.9537 7.33313 17.3285 7.70796C17.7032 8.08261 17.7032 8.68816 17.3285 9.06299Z" fill="#FAFAFA"/>
</svg>
