<svg width="34" height="34" viewBox="0 0 34 34" fill="none" xmlns="http://www.w3.org/2000/svg">
<path fill-rule="evenodd" clip-rule="evenodd" d="M28.0389 7.6708C29.2573 7.99815 30.2212 8.962 30.5485 10.1804C31.1486 12.3991 31.1668 17.0001 31.1668 17.0001C31.1668 17.0001 31.1668 21.6192 30.5667 23.8197C30.2394 25.0382 29.2755 26.002 28.0571 26.3293C25.8566 26.9295 17.0002 26.9295 17.0002 26.9295C17.0002 26.9295 8.14372 26.9295 5.94325 26.3293C4.72481 26.002 3.76097 25.0382 3.43362 23.8197C2.8335 21.6011 2.8335 17.0001 2.8335 17.0001C2.8335 17.0001 2.8335 12.3991 3.41544 10.1986C3.74278 8.98018 4.70662 8.01634 5.92507 7.689C8.12554 7.08886 16.982 7.07068 16.982 7.07068C16.982 7.07068 25.8384 7.07068 28.0389 7.6708ZM21.5102 17.0001L14.1632 21.2555V12.7446L21.5102 17.0001Z" fill="#222222"/>
</svg>
